<svg width="120" height="60" viewBox="0 0 120 60" fill="none" xmlns="http://www.w3.org/2000/svg">
<rect width="120" height="60" fill="black"/>
<g clip-path="url(#clip0_2183_4622)">
<path fill-rule="evenodd" clip-rule="evenodd" d="M45.2791 13.8516H49.4194V18.0044H45.2791V13.8516ZM45.2791 21.6985V25.8484H41.1418V34.1541H45.2791V37.8459V41.9984H49.4194V37.8459H69.6626V41.9973H61.8422V46.1501H69.6626V41.9984H73.803V34.1541H77.9402V25.8484H73.803H73.801V21.6985H69.6656V18.0059H65.5254V21.6985H53.5567V18.0059H49.4164V21.6985H45.2791ZM69.6626 29.9982V25.8514H65.519V29.9982H69.6626ZM53.5582 25.8514V29.9982H49.4194V25.8514H53.5582ZM41.1403 29.9982H37V41.9955H41.1403V29.9982ZM57.2418 46.1501V41.9973H49.4213V46.1501H57.2418ZM73.803 13.8516H69.6626V18.0044H73.803V13.8516ZM82.0866 29.9982H77.9463V41.9955H82.0866V29.9982Z" fill="#FFE457"/>
</g>
<defs>
<clipPath id="clip0_2183_4622">
<rect width="46" height="32.2979" fill="white" transform="translate(37 13.8516)"/>
</clipPath>
</defs>
</svg>
