<svg width="25" height="21" viewBox="0 0 25 21" fill="none" xmlns="http://www.w3.org/2000/svg">
<path fill-rule="evenodd" clip-rule="evenodd" d="M15.1305 3.13396C12.8938 4.06354 8.42218 5.98979 1.71768 8.91079C0.629016 9.34396 0.0578486 9.76754 0.00609862 10.1815C-0.082068 10.883 0.795766 11.159 1.98793 11.5328C2.15085 11.5845 2.31952 11.6363 2.49202 11.6938C3.66693 12.0752 5.24627 12.5218 6.0666 12.539C6.81218 12.5544 7.64402 12.2477 8.5621 11.619C14.8258 7.38896 18.0592 5.25187 18.2623 5.20587C18.4061 5.17329 18.6054 5.13112 18.7396 5.25187C18.8738 5.37071 18.8603 5.59687 18.8469 5.65821C18.7588 6.02812 15.3203 9.22704 13.5378 10.883C12.9819 11.3986 12.589 11.7647 12.5085 11.849C12.3284 12.035 12.1443 12.2132 11.968 12.3838C10.8755 13.4341 10.059 14.2238 12.014 15.5118C12.9532 16.1309 13.7045 16.6426 14.4539 17.1525C15.2723 17.7102 16.0888 18.266 17.1468 18.9599C17.4152 19.1362 17.672 19.3183 17.9231 19.4965C18.8757 20.177 19.7324 20.7865 20.7904 20.6906C21.4038 20.6331 22.0401 20.0562 22.3621 18.3331C23.123 14.2583 24.6218 5.43396 24.9688 1.79612C24.9899 1.49408 24.977 1.19063 24.9304 0.891457C24.9025 0.649824 24.7849 0.427492 24.6008 0.26854C24.3267 0.0442905 23.9012 -0.00362631 23.7095 0.000207022C22.8451 0.0155404 21.5188 0.477457 15.1305 3.13396Z" fill="black"/>
</svg>
