<svg width="496" height="273" viewBox="0 0 496 273" fill="none" xmlns="http://www.w3.org/2000/svg">
<rect x="10.5" y="10.5" width="484" height="261" rx="8.5" fill="black" stroke="black" stroke-width="3"/>
<rect x="1.5" y="1.5" width="484" height="261" rx="8.5" fill="#FFE457"/>
<rect x="28" y="72" width="231" height="180" rx="5" fill="white"/>
<line x1="-8.74228e-08" y1="25" x2="482" y2="25" stroke="black" stroke-width="2"/>
<line x1="445" y1="12.5" x2="452" y2="12.5" stroke="black"/>
<rect x="456.5" y="10.5" width="5" height="5" stroke="black"/>
<line x1="466.525" y1="15.4746" x2="471.475" y2="10.5248" stroke="black"/>
<line x1="466.525" y1="10.5254" x2="471.475" y2="15.4751" stroke="black"/>
<path d="M188.717 44V36.7273H193.447V37.8317H190.035V39.8061H193.202V40.9105H190.035V42.8956H193.476V44H188.717ZM198.041 39.8345V40.8928H194.767V39.8345H198.041ZM205.675 39.1811H204.347C204.309 38.9633 204.239 38.7704 204.137 38.6023C204.035 38.4318 203.909 38.2874 203.757 38.169C203.606 38.0507 203.433 37.9619 203.239 37.9027C203.047 37.8411 202.84 37.8104 202.617 37.8104C202.222 37.8104 201.872 37.9098 201.566 38.1087C201.261 38.3052 201.022 38.594 200.849 38.9751C200.676 39.3539 200.59 39.8168 200.59 40.3636C200.59 40.92 200.676 41.3887 200.849 41.7699C201.024 42.1487 201.263 42.4351 201.566 42.6293C201.872 42.821 202.221 42.9169 202.614 42.9169C202.832 42.9169 203.035 42.8885 203.225 42.8317C203.416 42.7725 203.588 42.6861 203.74 42.5724C203.893 42.4588 204.022 42.3191 204.127 42.1534C204.233 41.9877 204.307 41.7983 204.347 41.5852L205.675 41.5923C205.625 41.938 205.517 42.2623 205.352 42.5653C205.188 42.8684 204.974 43.1359 204.709 43.3679C204.444 43.5975 204.134 43.7775 203.779 43.9077C203.423 44.0355 203.029 44.0994 202.596 44.0994C201.957 44.0994 201.386 43.9515 200.884 43.6555C200.383 43.3596 199.987 42.9323 199.698 42.3736C199.41 41.8149 199.265 41.1449 199.265 40.3636C199.265 39.58 199.411 38.91 199.702 38.3537C199.993 37.795 200.39 37.3677 200.892 37.0717C201.393 36.7758 201.962 36.6278 202.596 36.6278C203.001 36.6278 203.377 36.6847 203.725 36.7983C204.073 36.9119 204.383 37.0788 204.656 37.299C204.928 37.5168 205.152 37.7843 205.327 38.1016C205.504 38.4164 205.62 38.7763 205.675 39.1811ZM213.38 40.3636C213.38 41.1473 213.233 41.8184 212.94 42.3771C212.648 42.9335 212.251 43.3596 211.746 43.6555C211.245 43.9515 210.675 44.0994 210.038 44.0994C209.402 44.0994 208.831 43.9515 208.327 43.6555C207.825 43.3572 207.427 42.9299 207.134 42.3736C206.842 41.8149 206.697 41.1449 206.697 40.3636C206.697 39.58 206.842 38.91 207.134 38.3537C207.427 37.795 207.825 37.3677 208.327 37.0717C208.831 36.7758 209.402 36.6278 210.038 36.6278C210.675 36.6278 211.245 36.7758 211.746 37.0717C212.251 37.3677 212.648 37.795 212.94 38.3537C213.233 38.91 213.38 39.58 213.38 40.3636ZM212.055 40.3636C212.055 39.812 211.969 39.3468 211.796 38.968C211.626 38.5869 211.389 38.2992 211.086 38.1051C210.783 37.9086 210.434 37.8104 210.038 37.8104C209.643 37.8104 209.294 37.9086 208.991 38.1051C208.688 38.2992 208.45 38.5869 208.277 38.968C208.107 39.3468 208.021 39.812 208.021 40.3636C208.021 40.9152 208.107 41.3816 208.277 41.7628C208.45 42.1416 208.688 42.4292 208.991 42.6257C209.294 42.8198 209.643 42.9169 210.038 42.9169C210.434 42.9169 210.783 42.8198 211.086 42.6257C211.389 42.4292 211.626 42.1416 211.796 41.7628C211.969 41.3816 212.055 40.9152 212.055 40.3636ZM214.626 36.7273H216.238L218.397 41.9972H218.482L220.641 36.7273H222.253V44H220.989V39.0036H220.922L218.912 43.9787H217.967L215.957 38.9929H215.89V44H214.626V36.7273ZM223.688 36.7273H225.3L227.459 41.9972H227.545L229.704 36.7273H231.316V44H230.052V39.0036H229.984L227.974 43.9787H227.03L225.02 38.9929H224.952V44H223.688V36.7273ZM232.751 44V36.7273H237.481V37.8317H234.068V39.8061H237.236V40.9105H234.068V42.8956H237.509V44H232.751ZM238.825 44V36.7273H241.552C242.111 36.7273 242.579 36.8243 242.958 37.0185C243.339 37.2126 243.627 37.4848 243.821 37.8352C244.018 38.1832 244.116 38.5893 244.116 39.0533C244.116 39.5196 244.017 39.9245 243.818 40.2678C243.621 40.6087 243.331 40.8726 242.948 41.0597C242.564 41.2443 242.093 41.3366 241.534 41.3366H239.592V40.2429H241.357C241.683 40.2429 241.951 40.1979 242.159 40.108C242.368 40.0156 242.521 39.8819 242.621 39.7067C242.723 39.5291 242.774 39.3113 242.774 39.0533C242.774 38.7952 242.723 38.575 242.621 38.3928C242.519 38.2081 242.364 38.0684 242.156 37.9737C241.947 37.8767 241.679 37.8281 241.35 37.8281H240.142V44H238.825ZM242.582 40.7045L244.382 44H242.912L241.144 40.7045H242.582ZM251.554 39.1811H250.226C250.188 38.9633 250.118 38.7704 250.016 38.6023C249.914 38.4318 249.788 38.2874 249.636 38.169C249.485 38.0507 249.312 37.9619 249.118 37.9027C248.926 37.8411 248.719 37.8104 248.496 37.8104C248.101 37.8104 247.751 37.9098 247.445 38.1087C247.14 38.3052 246.901 38.594 246.728 38.9751C246.555 39.3539 246.469 39.8168 246.469 40.3636C246.469 40.92 246.555 41.3887 246.728 41.7699C246.903 42.1487 247.142 42.4351 247.445 42.6293C247.751 42.821 248.1 42.9169 248.493 42.9169C248.711 42.9169 248.914 42.8885 249.104 42.8317C249.295 42.7725 249.467 42.6861 249.618 42.5724C249.772 42.4588 249.901 42.3191 250.006 42.1534C250.112 41.9877 250.185 41.7983 250.226 41.5852L251.554 41.5923C251.504 41.938 251.396 42.2623 251.231 42.5653C251.067 42.8684 250.853 43.1359 250.588 43.3679C250.323 43.5975 250.013 43.7775 249.657 43.9077C249.302 44.0355 248.908 44.0994 248.475 44.0994C247.836 44.0994 247.265 43.9515 246.763 43.6555C246.261 43.3596 245.866 42.9323 245.577 42.3736C245.288 41.8149 245.144 41.1449 245.144 40.3636C245.144 39.58 245.29 38.91 245.581 38.3537C245.872 37.795 246.269 37.3677 246.77 37.0717C247.272 36.7758 247.84 36.6278 248.475 36.6278C248.88 36.6278 249.256 36.6847 249.604 36.7983C249.952 36.9119 250.262 37.0788 250.535 37.299C250.807 37.5168 251.031 37.7843 251.206 38.1016C251.383 38.4164 251.499 38.7763 251.554 39.1811ZM252.76 44V36.7273H257.49V37.8317H254.078V39.8061H257.245V40.9105H254.078V42.8956H257.519V44H252.76Z" fill="black"/>
<rect x="15" y="13" width="1.54301" height="4.45758" fill="black"/>
<rect x="22.5438" y="17.457" width="1.54301" height="2.91457" transform="rotate(90 22.5438 17.457)" fill="black"/>
<rect x="27.1728" y="17.457" width="1.54301" height="2.91457" transform="rotate(90 27.1728 17.457)" fill="black"/>
<rect x="18.0859" y="11.457" width="1.54301" height="6.00059" fill="black"/>
<rect x="18.0859" y="7" width="1.54301" height="1.54301" fill="black"/>
<rect x="27.1728" y="7" width="1.54301" height="1.54301" fill="black"/>
<rect x="28.7148" y="11.457" width="1.54301" height="3.08602" fill="black"/>
<rect x="16.5439" y="11.457" width="1.54301" height="3.08602" fill="black"/>
<rect x="25.6309" y="8.54297" width="1.54301" height="1.54301" fill="black"/>
<rect x="19.627" y="8.54297" width="1.54301" height="1.54301" fill="black"/>
<rect x="18.0859" y="9.91797" width="10.6296" height="1.54301" fill="black"/>
<rect x="18.0859" y="14.3711" width="10.6296" height="1.54301" fill="black"/>
<rect x="18.0859" y="13" width="10.6296" height="1.54301" fill="black"/>
<rect x="21.1709" y="11.457" width="4.45758" height="1.54301" fill="black"/>
<rect x="27.1729" y="11.457" width="1.54301" height="6.00059" fill="black"/>
<rect x="30.2599" y="13" width="1.54301" height="4.45758" fill="black"/>
<rect x="21" y="65" width="229" height="178" rx="4" fill="#FFE457" stroke="black" stroke-width="2"/>
<circle cx="430.5" cy="39.75" r="2" stroke="black"/>
<path d="M432 41.25L433.5 42.75" stroke="black"/>
<circle cx="446.5" cy="38" r="1.5" stroke="black"/>
<path d="M443.5 44V41H449.5V44" stroke="black"/>
<path d="M461.5 38.5H460.5H459.5V43.5H466.5V38.5H464.5M461.5 38.5V36.5H464.5V38.5M461.5 38.5H464.5" stroke="black"/>
<line x1="20" y1="38.5" x2="32" y2="38.5" stroke="black"/>
<line x1="20" y1="41.5" x2="32" y2="41.5" stroke="black"/>
<rect x="271" y="144" width="140" height="20" rx="5" fill="black"/>
<path d="M312.632 158V150.727H315.544C316.079 150.727 316.525 150.807 316.883 150.965C317.24 151.124 317.509 151.344 317.689 151.626C317.869 151.905 317.959 152.227 317.959 152.592C317.959 152.876 317.902 153.125 317.788 153.341C317.675 153.554 317.518 153.729 317.32 153.866C317.123 154.001 316.898 154.097 316.645 154.154V154.225C316.922 154.237 317.181 154.315 317.423 154.46C317.666 154.604 317.864 154.806 318.016 155.067C318.167 155.325 318.243 155.633 318.243 155.99C318.243 156.376 318.147 156.72 317.955 157.023C317.766 157.324 317.485 157.562 317.114 157.737C316.742 157.912 316.284 158 315.739 158H312.632ZM314.17 156.743H315.423C315.852 156.743 316.164 156.661 316.361 156.498C316.557 156.332 316.656 156.112 316.656 155.837C316.656 155.636 316.607 155.459 316.51 155.305C316.413 155.151 316.274 155.03 316.094 154.942C315.917 154.855 315.705 154.811 315.459 154.811H314.17V156.743ZM314.17 153.771H315.31C315.52 153.771 315.707 153.734 315.871 153.661C316.036 153.585 316.167 153.478 316.261 153.341C316.358 153.204 316.407 153.039 316.407 152.847C316.407 152.585 316.313 152.373 316.126 152.212C315.942 152.051 315.679 151.97 315.338 151.97H314.17V153.771ZM323.736 150.727H325.273V155.45C325.273 155.981 325.147 156.445 324.893 156.842C324.642 157.24 324.291 157.55 323.839 157.773C323.386 157.993 322.86 158.103 322.258 158.103C321.655 158.103 321.127 157.993 320.675 157.773C320.222 157.55 319.871 157.24 319.62 156.842C319.369 156.445 319.243 155.981 319.243 155.45V150.727H320.781V155.319C320.781 155.596 320.841 155.842 320.962 156.058C321.085 156.273 321.258 156.442 321.481 156.565C321.703 156.688 321.962 156.75 322.258 156.75C322.557 156.75 322.816 156.688 323.036 156.565C323.259 156.442 323.43 156.273 323.551 156.058C323.674 155.842 323.736 155.596 323.736 155.319V150.727ZM326.112 150.727H327.835L329.493 153.859H329.564L331.222 150.727H332.945L330.292 155.429V158H328.765V155.429L326.112 150.727ZM342.182 150.727V158H340.854L337.69 153.423H337.637V158H336.099V150.727H337.448L340.588 155.301H340.651V150.727H342.182ZM350.136 154.364C350.136 155.157 349.985 155.831 349.685 156.388C349.386 156.944 348.979 157.369 348.463 157.663C347.949 157.954 347.372 158.099 346.73 158.099C346.084 158.099 345.504 157.953 344.99 157.659C344.476 157.366 344.07 156.941 343.772 156.384C343.474 155.828 343.325 155.154 343.325 154.364C343.325 153.571 343.474 152.896 343.772 152.339C344.07 151.783 344.476 151.359 344.99 151.068C345.504 150.775 346.084 150.628 346.73 150.628C347.372 150.628 347.949 150.775 348.463 151.068C348.979 151.359 349.386 151.783 349.685 152.339C349.985 152.896 350.136 153.571 350.136 154.364ZM348.577 154.364C348.577 153.85 348.5 153.417 348.346 153.064C348.194 152.711 347.98 152.444 347.703 152.261C347.426 152.079 347.102 151.988 346.73 151.988C346.358 151.988 346.034 152.079 345.757 152.261C345.48 152.444 345.265 152.711 345.111 153.064C344.959 153.417 344.884 153.85 344.884 154.364C344.884 154.877 344.959 155.311 345.111 155.663C345.265 156.016 345.48 156.284 345.757 156.466C346.034 156.648 346.358 156.739 346.73 156.739C347.102 156.739 347.426 156.648 347.703 156.466C347.98 156.284 348.194 156.016 348.346 155.663C348.5 155.311 348.577 154.877 348.577 154.364ZM352.638 158L350.557 150.727H352.237L353.441 155.781H353.501L354.829 150.727H356.268L357.592 155.791H357.656L358.86 150.727H360.54L358.459 158H356.96L355.575 153.245H355.518L354.137 158H352.638ZM363.142 150.727L363.003 155.82H361.703L361.561 150.727H363.142ZM362.353 158.092C362.119 158.092 361.918 158.009 361.75 157.844C361.582 157.676 361.499 157.474 361.501 157.24C361.499 157.008 361.582 156.809 361.75 156.643C361.918 156.478 362.119 156.395 362.353 156.395C362.578 156.395 362.776 156.478 362.946 156.643C363.117 156.809 363.203 157.008 363.206 157.24C363.203 157.396 363.162 157.54 363.081 157.67C363.003 157.798 362.9 157.901 362.772 157.979C362.645 158.054 362.505 158.092 362.353 158.092ZM366.384 150.727L366.245 155.82H364.946L364.804 150.727H366.384ZM365.596 158.092C365.361 158.092 365.16 158.009 364.992 157.844C364.824 157.676 364.741 157.474 364.743 157.24C364.741 157.008 364.824 156.809 364.992 156.643C365.16 156.478 365.361 156.395 365.596 156.395C365.82 156.395 366.018 156.478 366.189 156.643C366.359 156.809 366.445 157.008 366.448 157.24C366.445 157.396 366.404 157.54 366.324 157.67C366.245 157.798 366.142 157.901 366.015 157.979C365.887 158.054 365.747 158.092 365.596 158.092ZM369.626 150.727L369.488 155.82H368.188L368.046 150.727H369.626ZM368.838 158.092C368.603 158.092 368.402 158.009 368.234 157.844C368.066 157.676 367.983 157.474 367.985 157.24C367.983 157.008 368.066 156.809 368.234 156.643C368.402 156.478 368.603 156.395 368.838 156.395C369.063 156.395 369.26 156.478 369.431 156.643C369.601 156.809 369.688 157.008 369.69 157.24C369.688 157.396 369.646 157.54 369.566 157.67C369.488 157.798 369.385 157.901 369.257 157.979C369.129 158.054 368.989 158.092 368.838 158.092Z" fill="white"/>
<path d="M271.959 76.4432V74.0213L278.031 64.4545H280.119V67.8068H278.884L275.055 73.8651V73.9787H283.685V76.4432H271.959ZM278.94 79V75.7045L278.997 74.6321V64.4545H281.881V79H278.94ZM290.996 64.2557C291.745 64.2557 292.464 64.3812 293.156 64.6321C293.852 64.883 294.472 65.2831 295.016 65.8324C295.566 66.3816 295.999 67.1108 296.316 68.0199C296.638 68.9242 296.801 70.0346 296.806 71.3509C296.806 72.5866 296.666 73.6899 296.387 74.6605C296.112 75.6264 295.717 76.4479 295.201 77.125C294.685 77.8021 294.062 78.3182 293.333 78.6733C292.604 79.0237 291.79 79.1989 290.89 79.1989C289.919 79.1989 289.062 79.0118 288.319 78.6378C287.576 78.259 286.977 77.7453 286.522 77.0966C286.072 76.4432 285.8 75.7093 285.705 74.8949H288.738C288.856 75.4252 289.105 75.8371 289.484 76.1307C289.862 76.4195 290.331 76.5639 290.89 76.5639C291.837 76.5639 292.557 76.152 293.049 75.3281C293.541 74.4995 293.79 73.3655 293.795 71.9261H293.695C293.478 72.3523 293.184 72.7192 292.815 73.027C292.445 73.33 292.022 73.5644 291.543 73.7301C291.07 73.8958 290.566 73.9787 290.031 73.9787C289.174 73.9787 288.409 73.7775 287.737 73.375C287.064 72.9725 286.534 72.4186 286.146 71.7131C285.757 71.0076 285.563 70.2027 285.563 69.2983C285.558 68.3229 285.783 67.4541 286.238 66.6918C286.692 65.9295 287.327 65.3329 288.141 64.902C288.96 64.4664 289.912 64.2509 290.996 64.2557ZM291.018 66.6705C290.54 66.6705 290.113 66.7841 289.739 67.0114C289.37 67.2386 289.076 67.544 288.859 67.9276C288.646 68.3111 288.541 68.7396 288.546 69.2131C288.546 69.6913 288.65 70.1222 288.859 70.5057C289.072 70.8845 289.361 71.1875 289.725 71.4148C290.094 71.6373 290.516 71.7486 290.989 71.7486C291.344 71.7486 291.674 71.6823 291.977 71.5497C292.28 71.4171 292.542 71.2348 292.765 71.0028C292.992 70.7661 293.17 70.4938 293.298 70.1861C293.425 69.8783 293.489 69.5516 293.489 69.206C293.485 68.7467 293.376 68.3253 293.163 67.9418C292.95 67.5582 292.656 67.2505 292.282 67.0185C291.908 66.7865 291.487 66.6705 291.018 66.6705ZM304.2 64.2557C304.948 64.2557 305.667 64.3812 306.359 64.6321C307.055 64.883 307.675 65.2831 308.219 65.8324C308.769 66.3816 309.202 67.1108 309.519 68.0199C309.841 68.9242 310.004 70.0346 310.009 71.3509C310.009 72.5866 309.87 73.6899 309.59 74.6605C309.316 75.6264 308.92 76.4479 308.404 77.125C307.888 77.8021 307.265 78.3182 306.536 78.6733C305.807 79.0237 304.993 79.1989 304.093 79.1989C303.122 79.1989 302.265 79.0118 301.522 78.6378C300.779 78.259 300.18 77.7453 299.725 77.0966C299.275 76.4432 299.003 75.7093 298.908 74.8949H301.941C302.059 75.4252 302.308 75.8371 302.687 76.1307C303.066 76.4195 303.534 76.5639 304.093 76.5639C305.04 76.5639 305.76 76.152 306.252 75.3281C306.745 74.4995 306.993 73.3655 306.998 71.9261H306.898C306.681 72.3523 306.387 72.7192 306.018 73.027C305.648 73.33 305.225 73.5644 304.746 73.7301C304.273 73.8958 303.769 73.9787 303.234 73.9787C302.377 73.9787 301.612 73.7775 300.94 73.375C300.267 72.9725 299.737 72.4186 299.349 71.7131C298.96 71.0076 298.766 70.2027 298.766 69.2983C298.762 68.3229 298.987 67.4541 299.441 66.6918C299.896 65.9295 300.53 65.3329 301.344 64.902C302.164 64.4664 303.115 64.2509 304.2 64.2557ZM304.221 66.6705C303.743 66.6705 303.317 66.7841 302.942 67.0114C302.573 67.2386 302.28 67.544 302.062 67.9276C301.849 68.3111 301.745 68.7396 301.749 69.2131C301.749 69.6913 301.853 70.1222 302.062 70.5057C302.275 70.8845 302.564 71.1875 302.928 71.4148C303.298 71.6373 303.719 71.7486 304.192 71.7486C304.548 71.7486 304.877 71.6823 305.18 71.5497C305.483 71.4171 305.746 71.2348 305.968 71.0028C306.195 70.7661 306.373 70.4938 306.501 70.1861C306.629 69.8783 306.692 69.5516 306.692 69.206C306.688 68.7467 306.579 68.3253 306.366 67.9418C306.153 67.5582 305.859 67.2505 305.485 67.0185C305.111 66.7865 304.69 66.6705 304.221 66.6705ZM321.655 80.8182V62.6364H322.82V80.8182H321.655ZM324.745 68.6378C324.688 68.0649 324.444 67.6198 324.013 67.3026C323.582 66.9853 322.998 66.8267 322.259 66.8267C321.757 66.8267 321.333 66.8977 320.988 67.0398C320.642 67.1771 320.377 67.3688 320.192 67.6151C320.012 67.8613 319.922 68.1406 319.922 68.4531C319.913 68.7135 319.967 68.9408 320.086 69.1349C320.209 69.3291 320.377 69.4972 320.59 69.6392C320.803 69.7765 321.049 69.8973 321.328 70.0014C321.608 70.1009 321.906 70.1861 322.223 70.2571L323.53 70.5696C324.165 70.7116 324.747 70.901 325.277 71.1378C325.808 71.3745 326.267 71.6657 326.655 72.0114C327.043 72.357 327.344 72.7642 327.557 73.233C327.775 73.7017 327.886 74.2391 327.891 74.8452C327.886 75.7353 327.659 76.5071 327.209 77.1605C326.764 77.8092 326.12 78.3134 325.277 78.6733C324.439 79.0284 323.428 79.206 322.245 79.206C321.07 79.206 320.048 79.026 319.176 78.6662C318.31 78.3063 317.633 77.7737 317.145 77.0682C316.662 76.358 316.409 75.4796 316.385 74.4332H319.361C319.394 74.9209 319.534 75.3281 319.78 75.6548C320.031 75.9768 320.365 76.2206 320.782 76.3864C321.203 76.5473 321.679 76.6278 322.209 76.6278C322.73 76.6278 323.182 76.5521 323.566 76.4006C323.954 76.2491 324.255 76.0384 324.468 75.7685C324.681 75.4986 324.787 75.1884 324.787 74.8381C324.787 74.5114 324.69 74.2367 324.496 74.0142C324.307 73.7917 324.027 73.6023 323.658 73.446C323.293 73.2898 322.846 73.1477 322.316 73.0199L320.732 72.6222C319.506 72.3239 318.537 71.8575 317.827 71.223C317.117 70.5885 316.764 69.7339 316.769 68.6591C316.764 67.7784 316.998 67.009 317.472 66.3509C317.95 65.6927 318.606 65.179 319.439 64.8097C320.273 64.4403 321.22 64.2557 322.28 64.2557C323.36 64.2557 324.302 64.4403 325.107 64.8097C325.917 65.179 326.546 65.6927 326.996 66.3509C327.446 67.009 327.678 67.7713 327.692 68.6378H324.745Z" fill="#0A8F0F"/>
<rect x="271" y="90" width="60" height="10" rx="3" fill="black"/>
<rect x="271" y="106" width="60" height="10" rx="3" fill="black"/>
<rect x="271" y="202" width="140" height="10" rx="3" fill="black"/>
<rect x="271" y="218" width="140" height="10" rx="3" fill="black"/>
<rect x="271" y="234" width="140" height="10" rx="3" fill="black"/>
<rect x="271" y="122" width="15" height="10" rx="3" fill="black"/>
<rect x="290" y="122" width="15" height="10" rx="3" fill="black"/>
<rect x="309" y="122" width="15" height="10" rx="3" fill="black"/>
<circle cx="126" cy="231" r="2.5" fill="black" fill-opacity="0.6" stroke="black"/>
<circle cx="136" cy="231" r="2.5" stroke="black"/>
<circle cx="146" cy="231" r="2.5" stroke="black"/>
<path d="M233 147L240.5 154.5L233 162" stroke="black"/>
<path d="M37.5 162L30 154.5L37.5 147" stroke="black"/>
<g clip-path="url(#clip0_2672_22015)">
<path d="M147.352 159.023H122.925C122.579 159.024 122.248 159.164 122.004 159.411C121.76 159.659 121.623 159.995 121.623 160.346V199.449H148.657V160.346C148.657 160.172 148.623 160 148.557 159.84C148.492 159.679 148.396 159.533 148.275 159.41C148.154 159.288 148.01 159.19 147.851 159.124C147.693 159.057 147.523 159.023 147.352 159.023ZM135.22 181.241C134.457 181.238 133.725 180.929 133.185 180.381C132.645 179.834 132.34 179.093 132.336 178.318V173.808C132.337 173.034 132.641 172.291 133.182 171.744C133.723 171.196 134.456 170.889 135.22 170.889C135.985 170.889 136.718 171.196 137.259 171.744C137.8 172.291 138.104 173.034 138.105 173.808V178.318C138.101 179.093 137.796 179.834 137.256 180.381C136.716 180.929 135.984 181.238 135.22 181.241Z" fill="#292929"/>
<path d="M121.539 198.195V201.968C121.54 202.163 121.617 202.351 121.753 202.489C121.889 202.627 122.074 202.705 122.267 202.706H148.013C148.205 202.705 148.39 202.627 148.526 202.488C148.663 202.35 148.74 202.163 148.74 201.968V198.195H121.539Z" fill="black" fill-opacity="0.8"/>
<path d="M187.801 98H83.3842C82.4871 98.0014 81.6272 98.3632 80.9928 99.006C80.3585 99.6489 80.0014 100.52 80 101.429V172.831C80.0009 173.74 80.3577 174.612 80.9922 175.255C81.6266 175.898 82.4869 176.26 83.3842 176.261H187.801C188.699 176.26 189.559 175.898 190.193 175.255C190.828 174.612 191.185 173.74 191.186 172.831V101.429C191.184 100.52 190.827 99.6489 190.193 99.006C189.558 98.3632 188.698 98.0014 187.801 98Z" fill="black" fill-opacity="0.8"/>
<path d="M186.93 100.477H84.2566C83.7763 100.478 83.316 100.672 82.9767 101.016C82.6374 101.361 82.4468 101.828 82.4468 102.314V171.946C82.4476 172.433 82.6385 172.899 82.9778 173.242C83.317 173.586 83.7769 173.78 84.2566 173.781H186.93C187.41 173.78 187.869 173.586 188.209 173.242C188.548 172.899 188.739 172.433 188.74 171.946V102.314C188.74 101.828 188.549 101.361 188.21 101.016C187.87 100.672 187.41 100.478 186.93 100.477Z" fill="white"/>
<path d="M166.931 204.019H105.846C105.679 204.019 105.514 203.981 105.363 203.908C105.212 203.835 105.079 203.729 104.973 203.598C104.868 203.466 104.793 203.312 104.754 203.148C104.714 202.983 104.712 202.811 104.746 202.646L105.694 198.084C105.748 197.829 105.886 197.6 106.086 197.435C106.286 197.271 106.536 197.181 106.794 197.18H165.983C166.241 197.181 166.49 197.271 166.69 197.435C166.89 197.6 167.029 197.829 167.083 198.084L168.03 202.646C168.065 202.811 168.062 202.983 168.023 203.148C167.984 203.312 167.909 203.466 167.803 203.598C167.698 203.729 167.565 203.835 167.414 203.908C167.263 203.981 167.098 204.019 166.931 204.019H166.931Z" fill="#292929"/>
<path d="M108.925 198.004H107.411C107.31 198.004 107.227 198.087 107.227 198.19V198.962C107.227 199.064 107.31 199.148 107.411 199.148H108.925C109.026 199.148 109.109 199.064 109.109 198.962V198.19C109.109 198.087 109.026 198.004 108.925 198.004Z" fill="black" fill-opacity="0.8"/>
<path d="M112.688 198.004H111.174C111.072 198.004 110.99 198.087 110.99 198.19V198.962C110.99 199.064 111.072 199.148 111.174 199.148H112.688C112.789 199.148 112.871 199.064 112.871 198.962V198.19C112.871 198.087 112.789 198.004 112.688 198.004Z" fill="black" fill-opacity="0.8"/>
<path d="M116.45 198.004H114.936C114.835 198.004 114.753 198.087 114.753 198.19V198.962C114.753 199.064 114.835 199.148 114.936 199.148H116.45C116.552 199.148 116.634 199.064 116.634 198.962V198.19C116.634 198.087 116.552 198.004 116.45 198.004Z" fill="black" fill-opacity="0.8"/>
<path d="M120.213 198.004H118.699C118.598 198.004 118.515 198.087 118.515 198.19V198.962C118.515 199.064 118.598 199.148 118.699 199.148H120.213C120.314 199.148 120.397 199.064 120.397 198.962V198.19C120.397 198.087 120.314 198.004 120.213 198.004Z" fill="black" fill-opacity="0.8"/>
<path d="M123.976 198.004H122.462C122.36 198.004 122.278 198.087 122.278 198.19V198.962C122.278 199.064 122.36 199.148 122.462 199.148H123.976C124.077 199.148 124.159 199.064 124.159 198.962V198.19C124.159 198.087 124.077 198.004 123.976 198.004Z" fill="black" fill-opacity="0.8"/>
<path d="M127.739 198.004H126.225C126.123 198.004 126.041 198.087 126.041 198.19V198.962C126.041 199.064 126.123 199.148 126.225 199.148H127.739C127.84 199.148 127.922 199.064 127.922 198.962V198.19C127.922 198.087 127.84 198.004 127.739 198.004Z" fill="black" fill-opacity="0.8"/>
<path d="M131.501 198.004H129.987C129.886 198.004 129.804 198.087 129.804 198.19V198.962C129.804 199.064 129.886 199.148 129.987 199.148H131.501C131.603 199.148 131.685 199.064 131.685 198.962V198.19C131.685 198.087 131.603 198.004 131.501 198.004Z" fill="black" fill-opacity="0.8"/>
<path d="M135.264 198.004H133.75C133.649 198.004 133.566 198.087 133.566 198.19V198.962C133.566 199.064 133.649 199.148 133.75 199.148H135.264C135.365 199.148 135.448 199.064 135.448 198.962V198.19C135.448 198.087 135.365 198.004 135.264 198.004Z" fill="black" fill-opacity="0.8"/>
<path d="M139.027 198.004H137.513C137.411 198.004 137.329 198.087 137.329 198.19V198.962C137.329 199.064 137.411 199.148 137.513 199.148H139.027C139.128 199.148 139.21 199.064 139.21 198.962V198.19C139.21 198.087 139.128 198.004 139.027 198.004Z" fill="black" fill-opacity="0.8"/>
<path d="M142.789 198.004H141.275C141.174 198.004 141.092 198.087 141.092 198.19V198.962C141.092 199.064 141.174 199.148 141.275 199.148H142.789C142.891 199.148 142.973 199.064 142.973 198.962V198.19C142.973 198.087 142.891 198.004 142.789 198.004Z" fill="black" fill-opacity="0.8"/>
<path d="M146.552 198.004H145.038C144.937 198.004 144.854 198.087 144.854 198.19V198.962C144.854 199.064 144.937 199.148 145.038 199.148H146.552C146.653 199.148 146.736 199.064 146.736 198.962V198.19C146.736 198.087 146.653 198.004 146.552 198.004Z" fill="black" fill-opacity="0.8"/>
<path d="M150.315 198.004H148.801C148.699 198.004 148.617 198.087 148.617 198.19V198.962C148.617 199.064 148.699 199.148 148.801 199.148H150.315C150.416 199.148 150.498 199.064 150.498 198.962V198.19C150.498 198.087 150.416 198.004 150.315 198.004Z" fill="black" fill-opacity="0.8"/>
<path d="M154.077 198.004H152.563C152.462 198.004 152.38 198.087 152.38 198.19V198.962C152.38 199.064 152.462 199.148 152.563 199.148H154.077C154.179 199.148 154.261 199.064 154.261 198.962V198.19C154.261 198.087 154.179 198.004 154.077 198.004Z" fill="black" fill-opacity="0.8"/>
<path d="M157.84 198.004H156.326C156.225 198.004 156.143 198.087 156.143 198.19V198.962C156.143 199.064 156.225 199.148 156.326 199.148H157.84C157.942 199.148 158.024 199.064 158.024 198.962V198.19C158.024 198.087 157.942 198.004 157.84 198.004Z" fill="black" fill-opacity="0.8"/>
<path d="M161.603 198.004H160.089C159.988 198.004 159.905 198.087 159.905 198.19V198.962C159.905 199.064 159.988 199.148 160.089 199.148H161.603C161.704 199.148 161.787 199.064 161.787 198.962V198.19C161.787 198.087 161.704 198.004 161.603 198.004Z" fill="black" fill-opacity="0.8"/>
<path d="M165.366 198.004H163.852C163.75 198.004 163.668 198.087 163.668 198.19V198.962C163.668 199.064 163.75 199.148 163.852 199.148H165.366C165.467 199.148 165.549 199.064 165.549 198.962V198.19C165.549 198.087 165.467 198.004 165.366 198.004Z" fill="black" fill-opacity="0.8"/>
<path d="M108.88 199.91H107.366C107.265 199.91 107.183 199.993 107.183 200.096V200.868C107.183 200.971 107.265 201.054 107.366 201.054H108.88C108.982 201.054 109.064 200.971 109.064 200.868V200.096C109.064 199.993 108.982 199.91 108.88 199.91Z" fill="black" fill-opacity="0.8"/>
<path d="M112.643 199.91H111.129C111.028 199.91 110.946 199.993 110.946 200.096V200.868C110.946 200.971 111.028 201.054 111.129 201.054H112.643C112.745 201.054 112.827 200.971 112.827 200.868V200.096C112.827 199.993 112.745 199.91 112.643 199.91Z" fill="black" fill-opacity="0.8"/>
<path d="M116.406 199.91H114.892C114.79 199.91 114.708 199.993 114.708 200.096V200.868C114.708 200.971 114.79 201.054 114.892 201.054H116.406C116.507 201.054 116.59 200.971 116.59 200.868V200.096C116.59 199.993 116.507 199.91 116.406 199.91Z" fill="black" fill-opacity="0.8"/>
<path d="M120.169 199.91H118.655C118.553 199.91 118.471 199.993 118.471 200.096V200.868C118.471 200.971 118.553 201.054 118.655 201.054H120.169C120.27 201.054 120.352 200.971 120.352 200.868V200.096C120.352 199.993 120.27 199.91 120.169 199.91Z" fill="black" fill-opacity="0.8"/>
<path d="M123.931 199.91H122.417C122.316 199.91 122.234 199.993 122.234 200.096V200.868C122.234 200.971 122.316 201.054 122.417 201.054H123.931C124.033 201.054 124.115 200.971 124.115 200.868V200.096C124.115 199.993 124.033 199.91 123.931 199.91Z" fill="black" fill-opacity="0.8"/>
<path d="M127.694 199.91H126.18C126.079 199.91 125.996 199.993 125.996 200.096V200.868C125.996 200.971 126.079 201.054 126.18 201.054H127.694C127.795 201.054 127.878 200.971 127.878 200.868V200.096C127.878 199.993 127.795 199.91 127.694 199.91Z" fill="black" fill-opacity="0.8"/>
<path d="M131.457 199.91H129.943C129.841 199.91 129.759 199.993 129.759 200.096V200.868C129.759 200.971 129.841 201.054 129.943 201.054H131.457C131.558 201.054 131.64 200.971 131.64 200.868V200.096C131.64 199.993 131.558 199.91 131.457 199.91Z" fill="black" fill-opacity="0.8"/>
<path d="M135.219 199.91H133.705C133.604 199.91 133.522 199.993 133.522 200.096V200.868C133.522 200.971 133.604 201.054 133.705 201.054H135.219C135.321 201.054 135.403 200.971 135.403 200.868V200.096C135.403 199.993 135.321 199.91 135.219 199.91Z" fill="black" fill-opacity="0.8"/>
<path d="M138.982 199.91H137.468C137.367 199.91 137.285 199.993 137.285 200.096V200.868C137.285 200.971 137.367 201.054 137.468 201.054H138.982C139.084 201.054 139.166 200.971 139.166 200.868V200.096C139.166 199.993 139.084 199.91 138.982 199.91Z" fill="black" fill-opacity="0.8"/>
<path d="M142.745 199.91H141.231C141.129 199.91 141.047 199.993 141.047 200.096V200.868C141.047 200.971 141.129 201.054 141.231 201.054H142.745C142.846 201.054 142.929 200.971 142.929 200.868V200.096C142.929 199.993 142.846 199.91 142.745 199.91Z" fill="black" fill-opacity="0.8"/>
<path d="M146.508 199.91H144.994C144.892 199.91 144.81 199.993 144.81 200.096V200.868C144.81 200.971 144.892 201.054 144.994 201.054H146.508C146.609 201.054 146.691 200.971 146.691 200.868V200.096C146.691 199.993 146.609 199.91 146.508 199.91Z" fill="black" fill-opacity="0.8"/>
<path d="M150.27 199.91H148.756C148.655 199.91 148.573 199.993 148.573 200.096V200.868C148.573 200.971 148.655 201.054 148.756 201.054H150.27C150.372 201.054 150.454 200.971 150.454 200.868V200.096C150.454 199.993 150.372 199.91 150.27 199.91Z" fill="black" fill-opacity="0.8"/>
<path d="M154.033 199.91H152.519C152.418 199.91 152.335 199.993 152.335 200.096V200.868C152.335 200.971 152.418 201.054 152.519 201.054H154.033C154.134 201.054 154.217 200.971 154.217 200.868V200.096C154.217 199.993 154.134 199.91 154.033 199.91Z" fill="black" fill-opacity="0.8"/>
<path d="M157.796 199.91H156.282C156.18 199.91 156.098 199.993 156.098 200.096V200.868C156.098 200.971 156.18 201.054 156.282 201.054H157.796C157.897 201.054 157.979 200.971 157.979 200.868V200.096C157.979 199.993 157.897 199.91 157.796 199.91Z" fill="black" fill-opacity="0.8"/>
<path d="M161.558 199.91H160.044C159.943 199.91 159.861 199.993 159.861 200.096V200.868C159.861 200.971 159.943 201.054 160.044 201.054H161.558C161.66 201.054 161.742 200.971 161.742 200.868V200.096C161.742 199.993 161.66 199.91 161.558 199.91Z" fill="black" fill-opacity="0.8"/>
<path d="M165.321 199.91H163.807C163.706 199.91 163.623 199.993 163.623 200.096V200.868C163.623 200.971 163.706 201.054 163.807 201.054H165.321C165.423 201.054 165.505 200.971 165.505 200.868V200.096C165.505 199.993 165.423 199.91 165.321 199.91Z" fill="black" fill-opacity="0.8"/>
<path d="M140.111 202.199H125.427C125.326 202.199 125.244 202.283 125.244 202.385V203.157C125.244 203.26 125.326 203.343 125.427 203.343H140.111C140.212 203.343 140.295 203.26 140.295 203.157V202.385C140.295 202.283 140.212 202.199 140.111 202.199Z" fill="black" fill-opacity="0.8"/>
<path d="M181.769 110.071H85.6977C85.5979 110.069 85.5029 110.027 85.433 109.955C85.3632 109.882 85.3241 109.785 85.3241 109.684C85.3241 109.583 85.3632 109.486 85.433 109.413C85.5029 109.341 85.5979 109.299 85.6977 109.297H181.769C181.868 109.299 181.963 109.341 182.033 109.413C182.103 109.486 182.142 109.583 182.142 109.684C182.142 109.785 182.103 109.882 182.033 109.955C181.963 110.027 181.868 110.069 181.769 110.071Z" fill="#CACACA"/>
<path d="M92.2374 107.319C93.4739 107.319 94.4763 106.28 94.4763 104.999C94.4763 103.718 93.4739 102.68 92.2374 102.68C91.0008 102.68 89.9984 103.718 89.9984 104.999C89.9984 106.28 91.0008 107.319 92.2374 107.319Z" fill="black" fill-opacity="0.8"/>
<path d="M99.972 107.319C101.209 107.319 102.211 106.28 102.211 104.999C102.211 103.718 101.209 102.68 99.972 102.68C98.7355 102.68 97.733 103.718 97.733 104.999C97.733 106.28 98.7355 107.319 99.972 107.319Z" fill="black" fill-opacity="0.8"/>
<path d="M107.707 107.319C108.943 107.319 109.946 106.28 109.946 104.999C109.946 103.718 108.943 102.68 107.707 102.68C106.47 102.68 105.468 103.718 105.468 104.999C105.468 106.28 106.47 107.319 107.707 107.319Z" fill="black" fill-opacity="0.8"/>
<path d="M177.112 103.254H171.617C171.508 103.256 171.405 103.301 171.328 103.38C171.252 103.459 171.209 103.565 171.209 103.675C171.209 103.786 171.252 103.892 171.328 103.971C171.405 104.049 171.508 104.095 171.617 104.097H177.112C177.22 104.095 177.324 104.049 177.4 103.971C177.477 103.892 177.519 103.786 177.519 103.675C177.519 103.565 177.477 103.459 177.4 103.38C177.324 103.301 177.22 103.256 177.112 103.254Z" fill="black" fill-opacity="0.8"/>
<path d="M177.112 104.836H171.617C171.508 104.838 171.405 104.884 171.328 104.962C171.252 105.041 171.209 105.147 171.209 105.258C171.209 105.368 171.252 105.474 171.328 105.553C171.405 105.631 171.508 105.677 171.617 105.679H177.112C177.22 105.677 177.324 105.631 177.4 105.553C177.477 105.474 177.519 105.368 177.519 105.258C177.519 105.147 177.477 105.041 177.4 104.962C177.324 104.884 177.22 104.838 177.112 104.836Z" fill="black" fill-opacity="0.8"/>
<path d="M177.112 106.418H171.617C171.508 106.42 171.405 106.466 171.328 106.544C171.252 106.623 171.209 106.729 171.209 106.84C171.209 106.95 171.252 107.056 171.328 107.135C171.405 107.214 171.508 107.259 171.617 107.261H177.112C177.22 107.259 177.324 107.214 177.4 107.135C177.477 107.056 177.519 106.95 177.519 106.84C177.519 106.729 177.477 106.623 177.4 106.544C177.324 106.466 177.22 106.42 177.112 106.418Z" fill="black" fill-opacity="0.8"/>
<path d="M141.49 131.16H129.485C128.584 131.16 127.853 131.901 127.853 132.815C127.853 133.728 128.584 134.469 129.485 134.469H141.49C142.392 134.469 143.122 133.728 143.122 132.815C143.122 131.901 142.392 131.16 141.49 131.16Z" fill="#FFE457"/>
<path d="M149.245 137.781H121.73C120.829 137.781 120.098 138.522 120.098 139.436C120.098 140.349 120.829 141.09 121.73 141.09H149.245C150.147 141.09 150.877 140.349 150.877 139.436C150.877 138.522 150.147 137.781 149.245 137.781Z" fill="#E6E6E6"/>
<path d="M149.245 144.398H121.73C120.829 144.398 120.098 145.139 120.098 146.053C120.098 146.967 120.829 147.707 121.73 147.707H149.245C150.147 147.707 150.877 146.967 150.877 146.053C150.877 145.139 150.147 144.398 149.245 144.398Z" fill="#E6E6E6"/>
<path d="M95.5184 169.787C95.5207 171.149 95.2811 172.502 94.811 173.779H84.2566C83.7769 173.778 83.317 173.584 82.9778 173.241C82.6385 172.897 82.4476 172.431 82.4468 171.945V158.493C83.0365 158.396 83.6329 158.347 84.2303 158.348C85.7127 158.348 87.1806 158.643 88.5502 159.218C89.9198 159.793 91.1642 160.636 92.2124 161.698C93.2606 162.76 94.0921 164.021 94.6594 165.409C95.2266 166.797 95.5185 168.284 95.5184 169.787Z" fill="#E6E6E6"/>
</g>
<rect x="1.5" y="1.5" width="484" height="261" rx="8.5" stroke="black" stroke-width="3"/>
<defs>
<clipPath id="clip0_2672_22015">
<rect width="111" height="106" fill="white" transform="translate(80 98)"/>
</clipPath>
</defs>
</svg>
