<svg width="150" height="60" viewBox="0 0 150 60" fill="none" xmlns="http://www.w3.org/2000/svg">
<g clip-path="url(#clip0_2146_6526)">
<path d="M47.096 31.3406L42.439 26.6846L19.141 26.6796V22.0126H47.096V12.7196H0.5V40.6496H19.141V38.3236H28.46V47.6316H19.14V45.3056H0.5V54.6136L5.162 59.2706H42.439L47.096 54.6136V31.3406ZM98.296 31.3406L93.639 26.6386H70.336V21.9976H98.296V12.7196H51.7V40.6496H70.336V38.3236H79.654L79.66 47.6316H70.336V45.3056H51.7V54.6136L56.357 59.2706H93.639L98.296 54.6136V31.3406ZM149.496 31.3406L144.834 26.6386H121.536V21.9976H149.496V12.7196H102.9V40.6496H121.536V38.3236H130.855L130.86 47.6316H121.536V45.3056H102.9V54.6136L107.557 59.2706H144.834L149.496 54.6136V31.3406ZM7.273 8.13755H5.273V3.36956L2.611 8.13755H0.5V0.379555H2.496V5.14655L5.156 0.379555H7.263L7.273 8.13755ZM15.373 8.13755H13.377V4.97555H10.606V8.13755H8.61V0.379555H10.606V3.42556H13.377V0.379555H15.373V8.13755ZM17.149 2.21256C17.0975 2.12442 17.0288 2.04756 16.947 1.98656C16.8628 1.91864 16.7581 1.88127 16.65 1.88056H16.206V0.379555C16.302 0.364555 16.403 0.344555 16.514 0.323555C16.7422 0.28683 16.9729 0.268437 17.204 0.268555C17.597 0.268555 17.914 0.364555 18.152 0.560555C18.393 0.756555 18.595 1.00856 18.756 1.32056L19.865 3.42456H20.641V0.380555H22.637V3.42556H23.413L24.522 1.32156C24.682 1.00956 24.889 0.757555 25.126 0.561555C25.373 0.365555 25.686 0.269555 26.079 0.269555C26.3101 0.269745 26.5408 0.288135 26.769 0.324555C26.88 0.344555 26.986 0.364555 27.082 0.380555V1.88056H26.638C26.5282 1.8803 26.4216 1.91771 26.336 1.98656C26.2543 2.04622 26.187 2.12345 26.139 2.21256L25.086 4.20656L27.253 8.14255H25.146L23.423 4.98155H22.647V8.14255H20.65V4.98155H19.874L18.156 8.14255H16.05L18.212 4.20656L17.149 2.21256ZM34.068 8.13755H27.91V0.379555H34.063V1.92956H29.901V3.42556H33.176V4.97555H29.901V6.58656H34.063L34.068 8.13755ZM41.723 8.13755H39.727V4.97555H36.956V8.13755H34.96V0.379555H36.956V3.42556H39.727V0.379555H41.723V8.13755ZM49.208 8.13755H43.05V0.379555H49.208V1.92956H45.046V3.42556H48.321V4.97555H45.046V6.58656H49.208V8.13755ZM50.1 0.379555H54.762C55.538 0.379555 56.102 0.555555 56.455 0.903555C56.808 1.25556 56.979 1.81956 56.979 2.59456V3.70256C56.979 4.47756 56.803 5.04156 56.455 5.39356C56.102 5.74555 55.538 5.92255 54.762 5.92255H52.1V8.13755H50.104L50.1 0.379555ZM54.983 2.59456C54.983 2.15156 54.762 1.93056 54.318 1.93056H52.101V4.36656H54.318C54.762 4.36656 54.983 4.14556 54.983 3.70256V2.59456ZM64.753 8.13755H62.757V4.97555H59.986V8.13755H57.99V0.379555H59.986V3.42556H62.757V0.379555H64.753V8.13755ZM67.462 8.13755H65.3L68.238 0.379555H70.461L73.404 8.13755H71.242L70.738 6.75255H67.966L67.462 8.13755ZM68.455 5.31256H70.229L69.342 2.71056L68.455 5.31256ZM80.615 8.13755H78.619V5.58456H77.122L75.737 8.13755H73.63L75.071 5.47956C74.598 5.36856 74.26 5.14155 74.048 4.80455C73.842 4.46756 73.736 3.98856 73.736 3.37456V2.59456C73.736 1.81956 73.912 1.25456 74.265 0.903555C74.618 0.550555 75.177 0.379555 75.958 0.379555H80.62L80.615 8.13755ZM75.726 3.37456C75.726 3.81756 75.948 4.03956 76.392 4.03956H78.614V1.92956H76.392C75.948 1.92956 75.726 2.15156 75.726 2.59456V3.37456Z" fill="black"/>
<path d="M89.757 4.20653L91.919 8.14253H89.812L88.093 4.98153H87.096V8.14253H85.1V0.380531H87.096V3.42553H88.093L89.203 1.32153C89.3492 1.02892 89.5549 0.770065 89.807 0.561531C90.044 0.365531 90.361 0.269531 90.754 0.269531C90.9851 0.269729 91.2158 0.288119 91.444 0.324531C91.556 0.344531 91.656 0.364531 91.757 0.380531V1.88053H91.314C91.2052 1.87936 91.0996 1.91693 91.016 1.98653C90.9345 2.04764 90.8662 2.12449 90.815 2.21253L89.757 4.20653ZM99.577 6.03353C99.577 6.80853 99.4 7.37353 99.047 7.72553C98.7 8.07753 98.135 8.24853 97.354 8.24853H94.582C93.806 8.24853 93.242 8.07253 92.889 7.72553C92.536 7.37253 92.36 6.81353 92.36 6.03353V2.48953C92.36 1.71453 92.536 1.15053 92.89 0.798531C93.242 0.445531 93.801 0.269531 94.582 0.269531H97.354C98.13 0.269531 98.694 0.445531 99.048 0.798531C99.4 1.15053 99.577 1.70853 99.577 2.48953V6.03353ZM97.58 2.48953C97.58 2.04653 97.358 1.82553 96.915 1.82553H95.025C94.581 1.82553 94.36 2.04653 94.36 2.48953V6.03953C94.36 6.48153 94.581 6.70353 95.025 6.70353H96.915C97.358 6.70353 97.58 6.48153 97.58 6.03853V2.48953ZM107.337 3.81753L105.78 6.59153H104.228L102.676 3.81753V8.14253H100.68V0.379531H102.787L105.009 4.48253L107.226 0.379531H109.333V8.13753H107.337V3.81753ZM117.433 8.13753H115.437V1.92953H112.666V8.13653H110.67V0.379531H117.438V8.13753H117.433ZM120.152 8.13753H117.99L120.928 0.379531H123.151L126.094 8.13753H123.932L123.432 6.75253H120.661L120.152 8.13753ZM121.15 5.31253H122.924L122.037 2.71053L121.15 5.31253ZM133.413 8.13753H131.417V4.97953H128.646V8.14153H126.65V0.379531H128.646V3.42553H131.417V0.379531H133.413V8.13753ZM141.513 8.13753H139.517V3.37453L136.857 8.14253H134.75V0.379531H136.746V5.14653L139.406 0.379531H141.513V8.13753ZM147.51 8.13753V5.58453H146.012L144.627 8.13753H142.52L143.961 5.47953C143.488 5.36853 143.15 5.14153 142.938 4.80453C142.732 4.46753 142.626 3.98853 142.626 3.37453V2.59453C142.626 1.81953 142.802 1.25453 143.155 0.903531C143.508 0.550531 144.067 0.379531 144.848 0.379531H149.51V8.13753H147.51ZM144.622 3.37453C144.622 3.81753 144.843 4.03953 145.287 4.03953H147.509V1.92953H145.287C144.843 1.92953 144.622 2.15153 144.622 2.59453V3.37453Z" fill="black"/>
</g>
<defs>
<clipPath id="clip0_2146_6526">
<rect width="149" height="60" fill="white" transform="translate(0.5)"/>
</clipPath>
</defs>
</svg>
