<svg width="150" height="66" viewBox="0 0 150 66" fill="none" xmlns="http://www.w3.org/2000/svg">
<path fill-rule="evenodd" clip-rule="evenodd" d="M51.8079 0.680588C51.6517 0.93 51.4804 4.69691 51.4673 8.17515C51.4606 9.93485 51.3978 11.1065 51.3072 11.1618C51.217 11.2168 51.1582 12.2622 51.1582 13.8053C51.1582 15.2091 51.1079 16.3799 51.0464 16.4069C50.9848 16.4338 50.9556 19.0203 50.9814 22.1544L51.0282 27.8529H52.062H53.0958V22.5588C53.0958 19.1275 53.1483 17.2647 53.2449 17.2647C53.3269 17.2647 53.394 17.0662 53.394 16.8235C53.394 16.5156 53.3214 16.3824 53.1535 16.3824C52.9392 16.3824 52.9192 16.1019 52.9699 13.8088C53.0012 12.3934 52.9753 11.2353 52.9122 11.2353C52.8493 11.2353 52.7977 9.7503 52.7977 7.93515C52.7977 5.89368 52.741 4.60029 52.6487 4.54412C52.5633 4.49206 52.4996 3.73059 52.4996 2.76103C52.4996 1.16853 52.3685 0.5 52.056 0.5C51.9818 0.5 51.87 0.581323 51.8079 0.680588ZM52.4463 5.16912C52.3954 5.4725 52.3531 6.46515 52.3522 7.375C52.3507 8.93088 52.3328 9.02941 52.0525 9.02941C51.7709 9.02941 51.7544 8.93132 51.7544 7.26C51.7544 5.56618 51.7687 5.48426 52.0897 5.345C52.4038 5.20882 52.3992 5.20324 52.0152 5.25588C51.6676 5.30353 51.6053 5.25926 51.6053 4.96485C51.6053 4.67382 51.6809 4.61765 52.072 4.61765C52.5283 4.61765 52.5366 4.62985 52.4463 5.16912ZM74.7086 8.14706C74.7086 8.79412 74.6875 9.32353 74.6615 9.32353C74.6356 9.32353 74.2163 9.39544 73.7299 9.48338C70.6493 10.0401 68.1659 13.325 68.1528 16.8603L68.1503 17.5588H74.8577H81.5651V16.8893C81.5651 16.521 81.4575 15.7435 81.3259 15.1613C80.648 12.1631 78.5664 9.94985 75.9854 9.48338C75.4991 9.39544 75.0798 9.32353 75.0538 9.32353C75.0279 9.32353 75.0067 8.79412 75.0067 8.14706C75.0067 7.46074 74.9446 6.97059 74.8577 6.97059C74.7708 6.97059 74.7086 7.46074 74.7086 8.14706ZM97.3706 7.69515C97.2853 7.85235 97.1728 9.62191 97.1178 11.6716C97.0632 13.7029 96.9623 15.3991 96.8936 15.4412C96.8248 15.4831 96.7686 16.3682 96.7686 17.4082C96.7686 18.4481 96.7183 19.321 96.6568 19.3481C96.5952 19.375 96.5663 21.3326 96.5925 23.6985L96.6399 28H97.6629H98.6858L98.7332 23.6985C98.7595 21.3326 98.7234 19.3557 98.6532 19.3051C98.583 19.2547 98.5494 18.3778 98.5787 17.3566C98.6079 16.3354 98.5815 15.5 98.5199 15.5C98.4584 15.5 98.4081 14.379 98.4081 13.0087C98.4081 11.5065 98.349 10.4813 98.2591 10.4265C98.1771 10.3765 98.11 9.78235 98.11 9.10632C98.11 8.43015 98.0694 7.77235 98.0196 7.64441C97.8956 7.32559 97.5568 7.35206 97.3706 7.69515ZM105.637 10.3347C104.384 11.069 103.923 12.0124 103.923 13.8446V14.9118H107.217H110.511L110.459 13.6204C110.364 11.27 109.334 10.04 107.382 9.94603C106.493 9.90338 106.3 9.94633 105.637 10.3347ZM41.2461 10.744C39.9277 11.4284 39.355 12.4307 39.2635 14.2132L39.1973 15.5H42.5914H45.9855L45.8972 14.265C45.8486 13.5856 45.7011 12.775 45.5694 12.4635C45.2692 11.7534 44.5233 10.9684 43.8966 10.7031C43.2555 10.4316 41.8044 10.4541 41.2461 10.744ZM97.8119 13.1471C97.8119 14.3235 97.7545 15.0588 97.6629 15.0588C97.5715 15.0588 97.5138 14.3562 97.5138 13.2451C97.5138 11.6532 97.5655 11.2353 97.7623 11.2353C97.7896 11.2353 97.8119 12.0956 97.8119 13.1471ZM52.4996 14.0294V16.0882H52.0525H51.6053V14.0294V11.9706H52.0525H52.4996V14.0294ZM103.923 15.6471C103.923 15.9322 104.023 15.9412 107.202 15.9412C110.382 15.9412 110.481 15.9322 110.481 15.6471C110.481 15.3619 110.382 15.3529 107.202 15.3529C104.023 15.3529 103.923 15.3619 103.923 15.6471ZM39.2339 16.0882C39.2339 16.3737 39.3333 16.3824 42.5876 16.3824C45.8419 16.3824 45.9413 16.3737 45.9413 16.0882C45.9413 15.8028 45.8419 15.7941 42.5876 15.7941C39.3333 15.7941 39.2339 15.8028 39.2339 16.0882ZM102.433 16.4559C102.433 16.6474 103.062 16.6765 107.202 16.6765C111.343 16.6765 111.972 16.6474 111.972 16.4559C111.972 16.2644 111.343 16.2353 107.202 16.2353C103.062 16.2353 102.433 16.2644 102.433 16.4559ZM98.11 17.8529V19.3235H97.7374H97.3648V17.8529V16.3824H97.7374H98.11V17.8529ZM37.7433 16.8971C37.7433 17.0887 38.381 17.1176 42.5876 17.1176C46.7942 17.1176 47.4318 17.0887 47.4318 16.8971C47.4318 16.7054 46.7942 16.6765 42.5876 16.6765C38.381 16.6765 37.7433 16.7054 37.7433 16.8971ZM101.687 17.0441C101.687 17.2362 102.4 17.2647 107.202 17.2647C112.005 17.2647 112.717 17.2362 112.717 17.0441C112.717 16.8521 112.005 16.8235 107.202 16.8235C102.4 16.8235 101.687 16.8521 101.687 17.0441ZM36.9981 17.6324C36.9981 17.8244 37.7102 17.8529 42.513 17.8529C47.3158 17.8529 48.028 17.8244 48.028 17.6324C48.028 17.4403 47.3158 17.4118 42.513 17.4118C37.7102 17.4118 36.9981 17.4403 36.9981 17.6324ZM58.9551 17.9687C58.8577 18.0299 58.7571 18.4425 58.7316 18.8856L58.6854 19.6912L57.8283 19.7353L56.9712 19.7794V21.4632V23.1471H55.4062H53.8411L53.8404 23.9926C53.8401 24.4576 53.7968 25.5734 53.7444 26.4719L53.649 28.1056H74.8569H96.0649L95.9696 26.7801C95.9172 26.0512 95.8742 24.9356 95.8742 24.3009V23.1471H94.3092H92.7441V21.4632V19.7794L91.8871 19.7353L91.03 19.6912L90.9838 18.8856C90.9583 18.4425 90.8577 18.0299 90.7602 17.9687C90.5284 17.8232 59.1869 17.8232 58.9551 17.9687ZM99.6006 22.8529V27.8529H100.495H101.389V22.8529V17.8529H100.495H99.6006V22.8529ZM101.687 19.0257V20.1985L102.172 20.0919C102.438 20.0332 103.193 19.9853 103.849 19.9853C104.504 19.9853 105.259 20.0332 105.525 20.0919L106.01 20.1985V19.0257V17.8529H103.849H101.687V19.0257ZM106.308 22.8529V27.8529H107.202H108.097V22.8529V17.8529H107.202H106.308V22.8529ZM108.395 19.0093V20.1657L109.177 20.0225C109.95 19.8813 111.969 19.9541 112.463 20.1412C112.69 20.2269 112.717 20.1081 112.717 19.0451V17.8529H110.556H108.395V19.0093ZM113.015 22.8529V27.8529H113.835H114.655V22.8529V17.8529H113.835H113.015V22.8529ZM35.0604 23.2206V28.1471H35.9547H36.849V23.2206V18.2941H35.9547H35.0604V23.2206ZM36.9981 19.3943V20.4944L37.7061 20.3869C38.0955 20.3278 38.783 20.2794 39.2339 20.2794C39.6847 20.2794 40.3722 20.3278 40.7617 20.3869L41.4697 20.4944V19.3943V18.2941H39.2339H36.9981V19.3943ZM41.6187 23.2206V28.1471H42.513H43.4074V23.2206V18.2941H42.513H41.6187V23.2206ZM43.7055 19.3943V20.4944L44.4135 20.3869C44.803 20.3278 45.4569 20.2794 45.8667 20.2794C46.2766 20.2794 46.9305 20.3278 47.32 20.3869L48.028 20.4944V19.3943V18.2941H45.8667H43.7055V19.3943ZM48.3261 23.2206V28.1471H49.2205H50.1148V23.2206V18.2941H49.2205H48.3261V23.2206ZM81.416 23.2941V27.8529H74.8577H68.2993V23.2941V18.7353H74.8577H81.416V23.2941ZM68.4484 20.8591V22.8359L69.0818 22.4772C69.9303 21.9968 72.1246 21.1701 73.583 20.7818C74.6392 20.5004 74.8572 20.4859 75.5952 20.6481C76.8252 20.9185 78.8054 21.6354 80.1118 22.2834L81.267 22.8562V20.8693V18.8824H74.8577H68.4484V20.8591ZM67.8176 24.1397C67.8434 26.4438 67.8048 27.7059 67.7085 27.7059C67.6147 27.7059 67.5447 26.441 67.5195 24.2887C67.483 21.1671 67.4569 20.8672 67.2182 20.8219C66.8821 20.7582 66.7112 21.1944 66.9343 21.5469C67.0501 21.7299 67.1069 22.7882 67.1069 24.7626V27.7059H62.6882H58.2696L58.3595 26.7868C58.5557 24.7838 59.4776 23.1247 60.9633 22.1006C62.2971 21.1812 64.9352 20.4999 66.9578 20.5524L67.7776 20.5735L67.8176 24.1397ZM84.3491 20.6569C86.6882 20.9718 88.1339 21.5557 89.3482 22.6765C90.5211 23.7588 91.0801 24.9585 91.3321 26.9338L91.4306 27.7059H87.0051H82.5797L82.6314 24.3971C82.6793 21.3243 82.6644 21.0881 82.4221 21.0882C82.1816 21.0882 82.1613 21.3413 82.1613 24.3441C82.1613 27.2725 82.1875 27.6196 82.4221 27.7953C82.5982 27.9271 82.6189 27.9922 82.4861 27.9953C81.9128 28.009 81.8632 27.6935 81.8632 24.0399V20.5H82.5232C82.8861 20.5 83.7077 20.5706 84.3491 20.6569ZM15.6174 33.1799C15.4898 33.3596 15.3853 33.6925 15.3853 33.9197C15.3853 34.1469 15.289 34.3693 15.1712 34.4138C15.0535 34.4584 14.4389 34.381 13.8055 34.2421C11.619 33.7621 8.29674 34.1899 6.1526 35.2275C3.90965 36.3128 2.27498 38.276 1.39153 40.9454C0.016664 45.0999 0.259025 51.234 1.9317 54.6176C2.65432 56.0794 4.31075 57.7388 5.72035 58.4128C7.91889 59.4643 11.0462 59.8799 13.2011 59.4069C15.0271 59.006 16.3058 58.2871 17.7865 56.829C18.4923 56.1338 19.1841 55.3471 19.3237 55.0807C19.6291 54.4979 19.5317 54.3385 18.5273 53.7797C18.1519 53.5707 17.5946 53.2437 17.2888 53.0528C16.9833 52.8621 16.6332 52.7059 16.5109 52.7059C16.3793 52.7059 16.0753 53.1615 15.766 53.8221C14.4416 56.65 12.5173 58.4294 10.7745 58.4379C8.98358 58.4468 7.45638 56.8456 6.35472 53.8044C5.66669 51.905 5.39511 50.2876 5.29376 47.4853C5.15737 43.7104 5.60036 40.9651 6.71767 38.6618C7.43879 37.1751 8.36769 36.2178 9.68771 35.6009C10.5706 35.1882 10.8411 35.1325 11.9571 35.1331C13.4638 35.134 14.4056 35.3816 14.7236 35.8607C14.9319 36.1743 14.9328 36.3196 14.7323 37.2887C14.6095 37.8822 14.4619 38.7896 14.4041 39.3053L14.2991 40.2428L15.2933 40.1804C16.1024 40.1296 16.354 40.0509 16.6451 39.7575C17.1003 39.2987 19.915 33.5087 19.8119 33.2434C19.7251 33.0206 18.4586 32.8529 16.8624 32.8529C15.9845 32.8529 15.8184 32.8966 15.6174 33.1799ZM98.7063 34.3891C95.3016 35.0944 94.5134 35.3512 93.2858 36.1551C90.8586 37.7446 89.4663 40.5432 88.7829 45.2059C88.4725 47.3225 88.5576 52.7649 88.9262 54.3728C89.5669 57.1682 91.0222 58.7769 93.4894 59.4168C94.6776 59.7249 97.7729 59.7626 99.0789 59.485C102.122 58.8378 104.159 56.7529 104.913 53.5147C105.328 51.7294 105.271 48.8977 104.789 47.3144C103.721 43.814 101.211 41.9706 97.5106 41.9706C95.211 41.9706 93.3227 42.5709 91.1537 43.9918C90.7143 44.2797 90.3116 44.4725 90.2586 44.4204C90.1407 44.304 90.7288 41.8937 91.1401 40.8081C91.5657 39.685 92.7031 38.5751 93.862 38.1522C94.6 37.8828 95.2515 37.8029 97.5884 37.6956C100.508 37.5616 102.202 37.3007 102.842 36.8868C103.133 36.699 103.191 36.5672 103.119 36.2584C103.07 36.0435 102.936 35.4504 102.822 34.9406C102.708 34.4307 102.591 33.9894 102.561 33.9599C102.33 33.7322 101.349 33.8415 98.7063 34.3891ZM114.059 41.1684C112.961 41.3993 111.388 41.975 110.668 42.4094C110.02 42.7999 110.044 43.1553 110.8 44.4063C111.841 46.1301 111.754 46.1124 112.591 44.7712C113.427 43.4304 114.106 42.8199 115.22 42.4088C116.725 41.8526 117.91 42.1243 118.709 43.2087C119.33 44.051 119.532 44.5878 119.882 46.3226C120.333 48.5628 120.534 48.4059 116.701 48.8116C111.979 49.3115 110.703 49.6946 109.799 50.8824C109.11 51.7882 108.633 53.4135 108.633 54.8537C108.633 55.9066 108.692 56.1674 109.117 57.0201C109.696 58.1812 110.409 58.8062 111.525 59.1313C112.235 59.3381 112.557 59.3472 113.922 59.1993C115.929 58.9816 116.779 58.7306 118.515 57.8428C119.285 57.4488 119.972 57.1615 120.042 57.2043C120.113 57.2471 120.17 57.7082 120.17 58.2293C120.17 58.7503 120.22 59.1834 120.282 59.1916C121 59.2894 123.732 59.2765 123.9 59.1746C124.079 59.0653 124.145 58.3231 124.256 55.1746C124.412 50.7454 124.202 45.4872 123.82 44.2163C123.331 42.5932 122.07 41.5904 119.99 41.1722C118.568 40.8863 115.41 40.8843 114.059 41.1684ZM24.4893 41.4926L24.1701 41.75L24.2119 50.1651C24.2614 60.0778 24.0493 59.1184 26.2252 59.2707C27.365 59.3506 27.6569 59.3256 27.9732 59.121C28.324 58.8943 28.3529 58.7921 28.3529 57.7776C28.3529 56.1399 28.6467 55.5544 30.839 52.8234C31.8971 51.505 33.3178 49.7151 33.996 48.8456C34.6742 47.976 35.2874 47.2647 35.3586 47.2647C35.43 47.2647 35.5095 49.8107 35.5352 52.9225C35.5917 59.7581 35.4075 59.2274 37.7299 59.2412C38.7615 59.2474 39.2765 59.1915 39.4117 59.0587C39.5674 58.9057 39.6065 57.2124 39.6065 50.6028C39.6065 46.0574 39.5578 42.1676 39.4983 41.959C39.3428 41.4143 38.8024 41.2353 37.3123 41.2353C35.5894 41.2353 35.444 41.3687 35.5888 42.8174C35.6605 43.536 35.6342 43.9432 35.5002 44.1915C35.2449 44.6638 30.8888 50.3668 29.1207 52.5434C28.6588 53.1121 28.5823 53.1563 28.4847 52.911C28.4237 52.7578 28.3692 50.2622 28.3634 47.3653C28.357 44.115 28.2953 41.9919 28.2021 41.8203C27.9997 41.4471 27.1623 41.2371 25.8728 41.2362C25.0794 41.2354 24.7274 41.3007 24.4893 41.4926ZM45.5792 41.4663C45.3719 41.671 45.3451 42.6474 45.3451 49.9888C45.3451 56.0122 45.3928 58.3837 45.5196 58.6584C45.738 59.131 46.1464 59.2428 47.6693 59.2468C48.4765 59.249 48.9574 59.1832 49.1225 59.0482C49.3415 58.8693 49.3698 58.3847 49.3717 54.7835C49.3731 52.5488 49.4338 50.6277 49.5065 50.5141C49.6514 50.2884 49.8243 50.2972 53.6175 50.7238C55.3594 50.9197 55.7474 51.0084 55.9651 51.2603C56.1978 51.5293 56.226 51.9422 56.226 55.0751C56.226 59.2149 56.1775 59.085 57.7857 59.2549C58.9957 59.3826 59.8153 59.2662 60.0637 58.9312C60.3108 58.5976 60.3361 42.6981 60.0905 42.0032C59.886 41.4241 59.3494 41.2353 57.908 41.2353C56.0979 41.2353 56.226 40.9174 56.226 45.4137C56.226 48.4274 56.1826 49.3229 56.0307 49.4474C55.7487 49.6784 49.9878 49.0607 49.6304 48.7612C49.3971 48.5657 49.3695 48.2124 49.3695 45.4132C49.3695 43.6921 49.3072 42.1222 49.231 41.9247C49.0443 41.4399 48.3744 41.2353 46.973 41.2353C46.1176 41.2353 45.7521 41.2959 45.5792 41.4663ZM67.8125 41.3953C67.5038 41.4671 66.9672 41.6665 66.6201 41.8382C65.1158 42.5832 64.9562 43.1959 65.9331 44.4746C66.2713 44.9172 66.6175 45.4282 66.7024 45.6103C66.9107 46.0574 67.0024 46.0318 67.4922 45.3897C68.2787 44.3584 69.7134 42.9707 70.3115 42.6626C70.7599 42.4318 71.1759 42.3568 71.9891 42.36C72.584 42.3624 73.107 42.4003 73.1516 42.4443C73.1962 42.4882 72.8982 42.9603 72.4892 43.4932C69.9753 46.7703 68.411 51.1637 67.7754 56.7329C67.6395 57.9241 67.2026 58.3672 66.2863 58.2432C65.7973 58.1772 65.5618 58.2176 65.3251 58.4087C65.0209 58.6544 65.013 58.7599 65.0532 62.0441L65.0947 65.4265L65.4442 65.4753C66.3284 65.5988 66.5558 65.3263 67.8551 62.5853C68.533 61.1553 69.2397 59.8272 69.4256 59.634L69.7636 59.2826H75.3159C80.5315 59.2826 80.8802 59.299 81.0681 59.5527C81.1783 59.7013 81.239 59.9256 81.2029 60.0512C81.1668 60.1766 80.961 61.3051 80.7456 62.5588C80.5301 63.8125 80.3172 64.9872 80.2725 65.1691C80.1947 65.4862 80.2312 65.5 81.1477 65.5C81.6814 65.5 82.2139 65.4187 82.3522 65.3162C82.5669 65.1571 84.6732 61.0097 85.5554 59.009L85.8562 58.3268L85.3104 58.2406C85.01 58.1932 84.5177 58.194 84.2162 58.2422C83.4956 58.3577 82.9525 58.2124 82.7571 57.8522C82.6511 57.6566 82.6013 54.9624 82.6059 49.6693C82.6122 42.4991 82.59 41.7531 82.3639 41.5066C82.1285 41.25 81.7437 41.236 75.2445 41.25C71.4657 41.2582 68.1214 41.3235 67.8125 41.3953ZM131.349 41.4341C130.43 41.6793 129.425 42.2554 129.055 42.7499L128.746 43.1615L129.041 43.6475C129.204 43.9149 129.629 44.5734 129.987 45.111L130.637 46.0885L131.35 45.1693C132.939 43.1197 134.13 42.359 135.771 42.3457C136.276 42.3416 136.734 42.3822 136.789 42.4359C136.843 42.4897 136.586 42.8994 136.217 43.3465C134.782 45.0847 133.535 47.5865 132.631 50.5409C132.188 51.9893 131.975 53.045 131.35 56.8971C131.164 58.0469 130.858 58.3091 129.757 58.2637C129.179 58.2399 128.907 58.2921 128.807 58.446C128.728 58.5687 128.683 60.1203 128.704 62.0441L128.741 65.4265L129.196 65.4704C129.968 65.545 130.303 65.1074 131.645 62.2674C132.391 60.689 133.029 59.5278 133.201 59.4374C133.387 59.3391 135.469 59.2828 139 59.2807C143.927 59.2777 144.529 59.3026 144.688 59.5174C144.853 59.7403 144.645 61.2444 143.927 65.0221L143.836 65.5H144.796C145.602 65.5 145.806 65.4463 146.075 65.1646C146.359 64.866 147.809 62.0106 149.052 59.3029L149.5 58.3265L148.955 58.2404C148.655 58.1932 148.164 58.194 147.862 58.2422C147.12 58.361 146.598 58.2102 146.38 57.8144C146.243 57.5656 146.209 55.5922 146.239 49.7207C146.275 42.7956 146.253 41.9174 146.04 41.5957L145.8 41.2353L138.91 41.2451C133.993 41.2524 131.828 41.3065 131.349 41.4341ZM78.0501 42.354C78.261 42.4338 78.2859 43.2572 78.2859 50.1397V57.8363L77.9546 58.0651C77.6842 58.2521 77.1245 58.2941 74.9088 58.2941C73.4029 58.2941 72.0139 58.2265 71.7894 58.1424L71.3846 57.9904L71.4756 55.4585C71.5722 52.7725 71.8519 50.5882 72.3455 48.6618C73.1394 45.5646 74.566 43.0282 75.8265 42.4731C76.2892 42.2694 77.6362 42.1972 78.0501 42.354ZM141.596 42.3574L141.932 42.446L141.93 50.1128C141.928 54.6874 141.87 57.8684 141.786 58C141.668 58.1847 141.135 58.2206 138.516 58.2206C136.195 58.2206 135.34 58.1726 135.2 58.0349C134.841 57.6804 135.126 52.8456 135.672 50.036C136.012 48.2856 136.878 45.6941 137.456 44.6997C138.057 43.6643 138.922 42.705 139.463 42.4725C139.943 42.266 141.029 42.2075 141.596 42.3574ZM97.4973 43.3044C98.4593 43.5079 99.4472 44.3502 99.8751 45.3316C100.467 46.6893 100.687 48.5409 100.595 51.3824C100.481 54.8812 100.096 56.2066 98.8112 57.5196C98.0375 58.3103 97.0567 58.6549 95.8801 58.5496C94.7873 58.4519 93.9045 58.0009 93.4804 57.3238C92.8285 56.2832 92.7115 55.3954 92.6362 50.9191C92.5755 47.3196 92.6006 46.5862 92.8078 45.8831C93.2081 44.5241 94.2789 43.5925 95.7765 43.3001C96.6505 43.1296 96.6715 43.1296 97.4973 43.3044ZM119.573 49.7643C119.927 49.9515 120.122 50.9446 120.23 53.1218C120.327 55.07 120.201 55.505 119.325 56.2303C118.695 56.7521 115.808 57.8529 115.069 57.8529C114.148 57.8529 113.243 57.0432 112.865 55.8801C112.637 55.1787 112.748 53.504 113.085 52.5506C113.391 51.6849 114.051 50.9025 114.762 50.5628C115.455 50.2315 117.953 49.6426 118.727 49.6282C119.039 49.6224 119.42 49.6837 119.573 49.7643Z" fill="black"/>
</svg>
