<svg width="204" height="58" viewBox="0 0 204 58" fill="none" xmlns="http://www.w3.org/2000/svg">
<g clip-path="url(#clip0_2103_3895)">
<path d="M106.391 40.8752V17.0059H115.415C118.259 17.0059 120.607 17.855 122.216 19.0671C123.701 20.3976 124.689 22.219 124.689 24.6401C124.689 27.1835 123.701 29.1224 121.845 30.3353C120.114 31.7889 117.767 32.3926 115.044 32.3926H109.235V40.876H106.391V40.8752ZM109.231 29.9707H115.286C117.142 29.9707 118.872 29.4854 119.986 28.5171C121.345 27.5457 121.841 26.3367 121.841 24.6393C121.841 22.9418 121.345 21.8552 120.11 20.8837C118.872 20.0346 117.391 19.4301 115.29 19.4301H109.235V29.9707H109.231Z" fill="black"/>
<path d="M140.63 41.2388C137.294 41.2388 134.325 40.1489 131.978 37.7239C129.751 35.2988 128.641 32.3924 128.641 28.8776C128.641 25.6073 129.755 22.5786 131.978 20.1535C134.45 17.8508 137.294 16.6387 140.88 16.6387C142.857 16.6387 144.591 17.0017 145.947 17.6101C147.431 18.3369 148.791 19.3044 150.271 20.5165L148.42 22.4555C146.072 20.1527 143.474 19.0629 140.88 19.0629C138.036 19.0629 135.813 20.0304 134.079 22.0925C132.223 23.9091 131.481 26.0895 131.481 28.8776C131.481 31.6656 132.223 34.0867 134.079 35.9033C135.934 37.7199 138.036 38.8097 140.88 38.8097C142.364 38.8097 143.724 38.4467 144.959 37.9606C146.072 37.3561 147.431 36.507 148.545 35.2949L150.4 37.2338C149.162 38.4459 147.556 39.5365 146.072 40.1402C144.587 40.875 142.732 41.238 140.63 41.238V41.2388Z" fill="black"/>
<path d="M155.094 40.8752V17.0059H165.477C168.321 17.0059 170.544 17.855 171.903 19.0671C172.771 20.1569 173.388 21.4882 173.388 22.9458C173.388 25.6115 172.029 27.4281 169.556 28.5187C173.017 29.6085 174.623 31.4291 174.623 34.4547C174.623 36.5159 173.881 37.9695 172.396 39.0593C170.79 40.3906 168.689 40.876 166.09 40.876H155.094V40.8752ZM157.935 38.4541H166.09C167.947 38.4541 169.427 38.0911 170.294 37.3643C171.529 36.5151 172.024 35.5477 172.024 34.0941C172.024 32.7588 171.529 31.7913 170.294 31.0653C169.181 30.3385 167.696 29.9755 165.473 29.9755H157.935V38.4549V38.4541ZM157.935 27.5457H165.103C166.833 27.5457 168.072 27.1827 169.059 26.4559C170.173 25.7291 170.544 24.7616 170.544 23.304C170.544 22.2142 170.173 21.1236 169.185 20.516C168.317 19.7892 166.958 19.4262 165.228 19.4262H157.935V27.5465V27.5457Z" fill="black"/>
<path d="M200.463 37.6055C197.99 39.9082 195.021 41.2387 191.439 41.2387C187.853 41.2387 184.888 39.9034 182.54 37.6055C180.313 35.1804 179.204 32.3963 179.204 28.8815C179.204 25.6112 180.317 22.5825 182.54 20.1574C185.013 17.8547 187.857 16.6426 191.564 16.6426C195.15 16.6426 198.24 17.8547 200.467 20.1574C202.689 22.5777 203.803 25.6112 203.803 28.8807C203.799 32.3955 202.685 35.1796 200.463 37.6047V37.6055ZM184.642 35.9072C186.498 37.7238 188.845 38.8136 191.564 38.8136C194.282 38.8136 196.51 37.7238 198.365 35.9072C200.096 34.0906 200.963 31.6655 200.963 28.8815C200.963 26.338 200.096 23.913 198.365 22.0964C196.51 20.0351 194.287 19.0668 191.443 19.0668C188.845 19.0668 186.498 20.0343 184.646 22.0964C182.916 23.913 182.048 26.0934 182.048 28.8815C182.044 31.6655 182.908 34.0906 184.642 35.9072Z" fill="black"/>
<path d="M8.23579 40.3898C2.79744 36.7565 0.199951 32.8779 0.199951 28.8809C3.4146 30.093 7.24722 31.1836 11.5713 32.1511C11.8171 32.2734 11.9427 32.2734 12.1885 32.3918C13.0522 34.9352 14.9077 37.4825 17.7517 39.9036C22.3263 43.5368 28.8773 46.2026 36.1703 47.6562C31.5957 46.0803 27.5173 43.5368 24.5484 40.385C22.5721 38.3237 21.333 36.1433 20.4701 33.8406L25.9076 34.5674C26.6792 36.4565 27.6746 38.2464 28.8726 39.8989C33.4472 45.5941 40.9868 48.7452 48.6512 48.7452H49.2683C50.5066 48.7452 51.741 48.6229 52.9753 48.5045L53.4716 49.476V49.5983H48.5263C32.9597 49.5983 17.6308 46.3281 8.23579 40.3882V40.3898ZM59.0427 49.2361V46.9334C60.0313 46.5703 61.1448 46.0842 62.1325 45.4797C66.9529 42.814 70.2932 38.9354 71.899 34.5753L76.9659 33.8485C75.2353 38.817 71.0321 43.181 64.7268 46.2058C63.6134 46.8102 62.3791 47.2956 61.1408 47.6594C63.8599 47.1772 66.704 46.4472 69.3015 45.479C78.0793 42.3271 83.6426 37.6041 85.3732 32.3949C89.5764 31.4274 93.4082 30.3376 96.7445 29.1247C96.995 29.1247 97.1159 29.0024 97.3617 28.884C97.2368 35.6691 89.5724 42.2135 75.4818 46.2097C70.294 47.6594 64.7276 48.6308 59.0435 49.2353L59.0427 49.2361Z" fill="black"/>
<path d="M20.4749 33.845C17.6308 25.6023 22.2055 16.5153 32.7139 11.5508C33.8274 11.0647 35.0617 10.5833 36.1751 10.2156C33.4559 10.7017 30.8585 11.4277 28.2649 12.2768C15.6553 16.7592 9.72064 24.7572 12.1941 32.3914C11.9483 32.269 11.8226 32.269 11.5769 32.1507C7.24722 31.1792 3.4146 30.0894 0.199951 28.8765C0.199951 22.2138 7.86438 15.547 22.0798 11.5508C27.2716 10.0972 32.9597 9.12575 38.8935 8.64439V10.8248L35.678 12.2784C26.6544 17.2469 23.0684 26.453 25.9116 34.5726L20.4741 33.8458L20.4749 33.845ZM68.9301 17.9681C64.3554 12.2728 57.0624 9.12178 49.5228 9.00342H49.0266C47.6177 9.00465 46.2115 9.12609 44.8233 9.36643L44.4519 8.27662C45.9368 8.1543 47.4208 8.1543 48.9017 8.1543C64.4763 8.1543 79.93 11.4285 89.3251 17.4828C94.7674 20.9977 97.3609 24.9947 97.3609 28.8725C97.1151 28.9949 96.9895 29.1132 96.7437 29.1132C93.4074 30.3253 89.5756 31.4159 85.3724 32.3834C86.9773 27.5373 85.2475 22.3281 79.8091 17.9641C75.1096 14.2086 68.5586 11.5421 61.1447 10.0893C65.8442 11.6652 69.9226 14.2086 73.0124 17.4788C77.587 22.4473 78.8214 28.3832 76.9659 33.837L71.899 34.5638C73.7505 29.118 73.0124 23.0597 68.9301 17.9689V17.9681Z" fill="black"/>
<path d="M58.9226 31.3027V39.4191C60.036 38.8146 60.7781 37.2387 60.7781 35.2998C60.7781 33.4871 60.036 31.7889 58.9226 31.3027Z" fill="black"/>
<path fill-rule="evenodd" clip-rule="evenodd" d="M46.31 30.3327V40.751H51.5018L57.6854 57.5953V21.8493L51.501 30.3327H46.3092H46.31ZM51.6267 27.4263V17.2486H46.31L40.1296 0.404297V36.1503L46.31 27.4263H51.6267Z" fill="black"/>
<path d="M37.0398 22.6994C37.0398 24.516 37.7818 26.2143 39.0161 26.6964V18.5801C37.7818 19.1846 37.0398 20.8828 37.0398 22.6994Z" fill="black"/>
<path d="M106.391 40.8752V17.0059H115.415C118.259 17.0059 120.607 17.855 122.216 19.0671C123.701 20.3976 124.689 22.219 124.689 24.6401C124.689 27.1835 123.701 29.1224 121.845 30.3353C120.114 31.7889 117.767 32.3926 115.044 32.3926H109.235V40.876H106.391V40.8752ZM109.231 29.9707H115.286C117.142 29.9707 118.872 29.4854 119.986 28.5171C121.345 27.5457 121.841 26.3367 121.841 24.6393C121.841 22.9418 121.345 21.8552 120.11 20.8837C118.872 20.0346 117.391 19.4301 115.29 19.4301H109.235V29.9707H109.231Z" fill="black"/>
<path d="M140.63 41.2388C137.294 41.2388 134.325 40.1489 131.978 37.7239C129.751 35.2988 128.641 32.3924 128.641 28.8776C128.641 25.6073 129.755 22.5786 131.978 20.1535C134.45 17.8508 137.294 16.6387 140.88 16.6387C142.857 16.6387 144.591 17.0017 145.947 17.6101C147.431 18.3369 148.791 19.3044 150.271 20.5165L148.42 22.4555C146.072 20.1527 143.474 19.0629 140.88 19.0629C138.036 19.0629 135.813 20.0304 134.079 22.0925C132.223 23.9091 131.481 26.0895 131.481 28.8776C131.481 31.6656 132.223 34.0867 134.079 35.9033C135.934 37.7199 138.036 38.8097 140.88 38.8097C142.364 38.8097 143.724 38.4467 144.959 37.9606C146.072 37.3561 147.431 36.507 148.545 35.2949L150.4 37.2338C149.162 38.4459 147.556 39.5365 146.072 40.1402C144.587 40.875 142.732 41.238 140.63 41.238V41.2388Z" fill="black"/>
<path d="M155.094 40.8752V17.0059H165.477C168.321 17.0059 170.544 17.855 171.903 19.0671C172.771 20.1569 173.388 21.4882 173.388 22.9458C173.388 25.6115 172.029 27.4281 169.556 28.5187C173.017 29.6085 174.623 31.4291 174.623 34.4547C174.623 36.5159 173.881 37.9695 172.396 39.0593C170.79 40.3906 168.689 40.876 166.09 40.876H155.094V40.8752ZM157.935 38.4541H166.09C167.947 38.4541 169.427 38.0911 170.295 37.3643C171.529 36.5151 172.024 35.5477 172.024 34.0941C172.024 32.7588 171.529 31.7913 170.295 31.0653C169.181 30.3385 167.696 29.9755 165.473 29.9755H157.935V38.4549V38.4541ZM157.935 27.5457H165.103C166.833 27.5457 168.072 27.1827 169.059 26.4559C170.173 25.7291 170.544 24.7616 170.544 23.304C170.544 22.2142 170.173 21.1236 169.185 20.516C168.317 19.7892 166.958 19.4262 165.228 19.4262H157.935V27.5465V27.5457Z" fill="black"/>
<path d="M200.463 37.6016C197.99 39.9043 195.021 41.2348 191.439 41.2348C187.853 41.2348 184.888 39.8995 182.54 37.6016C180.313 35.1765 179.204 32.3924 179.204 28.8775C179.204 25.6073 180.317 22.5786 182.54 20.1535C185.013 17.8508 187.857 16.6387 191.564 16.6387C195.15 16.6387 198.24 17.8508 200.467 20.1535C202.689 22.5738 203.803 25.6073 203.803 28.8768C203.799 32.3916 202.685 35.1757 200.463 37.6008V37.6016ZM184.642 35.9033C186.498 37.7199 188.845 38.8097 191.564 38.8097C194.282 38.8097 196.51 37.7199 198.365 35.9033C200.096 34.0867 200.963 31.6616 200.963 28.8775C200.963 26.3341 200.096 23.9091 198.365 22.0925C196.51 20.0312 194.287 19.0629 191.443 19.0629C188.845 19.0629 186.498 20.0304 184.646 22.0925C182.916 23.9091 182.048 26.0895 182.048 28.8775C182.044 31.6616 182.908 34.0867 184.642 35.9033Z" fill="black"/>
<path d="M8.23579 40.3898C2.79744 36.7565 0.199951 32.8779 0.199951 28.8809C3.4146 30.093 7.24722 31.1836 11.5713 32.1511C11.8171 32.2734 11.9427 32.2734 12.1885 32.3918C13.0522 34.9352 14.9077 37.4825 17.7517 39.9036C22.3263 43.5368 28.8773 46.2026 36.1703 47.6562C31.5957 46.0803 27.5173 43.5368 24.5484 40.385C22.5721 38.3237 21.333 36.1433 20.4701 33.8406L25.9076 34.5674C26.6792 36.4565 27.6746 38.2464 28.8726 39.8989C33.4472 45.5941 40.9868 48.7452 48.6512 48.7452H49.2683C50.5066 48.7452 51.741 48.6229 52.9753 48.5045L53.4716 49.476V49.5983H48.5263C32.9597 49.5983 17.6308 46.3281 8.23579 40.3882V40.3898ZM59.0427 49.2361V46.9334C60.0313 46.5703 61.1448 46.0842 62.1325 45.4797C66.9529 42.814 70.2932 38.9354 71.899 34.5753L76.9659 33.8485C75.2353 38.817 71.0321 43.181 64.7268 46.2058C63.6134 46.8102 62.3791 47.2956 61.1408 47.6594C63.8599 47.1772 66.704 46.4472 69.3015 45.479C78.0793 42.3271 83.6426 37.6041 85.3732 32.3949C89.5764 31.4274 93.4082 30.3376 96.7445 29.1247C96.995 29.1247 97.1159 29.0024 97.3617 28.884C97.2368 35.6691 89.5724 42.2135 75.4818 46.2097C70.294 47.6594 64.7276 48.6308 59.0435 49.2353L59.0427 49.2361Z" fill="black"/>
<path d="M20.4749 33.845C17.6308 25.6023 22.2055 16.5153 32.7139 11.5508C33.8274 11.0647 35.0617 10.5833 36.1751 10.2156C33.4559 10.7017 30.8585 11.4277 28.2649 12.2768C15.6553 16.7592 9.72064 24.7572 12.1941 32.3914C11.9483 32.269 11.8226 32.269 11.5769 32.1507C7.24722 31.1792 3.4146 30.0894 0.199951 28.8765C0.199951 22.2138 7.86438 15.547 22.0798 11.5508C27.2716 10.0972 32.9597 9.12575 38.8935 8.64439V10.8248L35.678 12.2784C26.6544 17.2469 23.0684 26.453 25.9116 34.5726L20.4741 33.8458L20.4749 33.845ZM68.9301 17.9681C64.3554 12.2728 57.0624 9.12178 49.5228 9.00342H49.0266C47.6177 9.00465 46.2115 9.12609 44.8233 9.36643L44.4519 8.27662C45.9368 8.1543 47.4208 8.1543 48.9017 8.1543C64.4763 8.1543 79.93 11.4285 89.3251 17.4828C94.7674 20.9977 97.3609 24.9947 97.3609 28.8725C97.1151 28.9949 96.9895 29.1132 96.7437 29.1132C93.4074 30.3253 89.5756 31.4159 85.3724 32.3834C86.9773 27.5373 85.2475 22.3281 79.8091 17.9641C75.1096 14.2086 68.5586 11.5421 61.1447 10.0893C65.8442 11.6652 69.9226 14.2086 73.0124 17.4788C77.587 22.4473 78.8214 28.3832 76.9659 33.837L71.899 34.5638C73.7505 29.118 73.0124 23.0597 68.9301 17.9689V17.9681Z" fill="black"/>
<path d="M58.9226 31.3027V39.4191C60.036 38.8146 60.7781 37.2387 60.7781 35.2998C60.7781 33.4871 60.036 31.7889 58.9226 31.3027Z" fill="black"/>
<path fill-rule="evenodd" clip-rule="evenodd" d="M46.31 30.3327V40.751H51.5018L57.6854 57.5953V21.8493L51.501 30.3327H46.3092H46.31ZM51.6267 27.4263V17.2486H46.31L40.1296 0.404297V36.1503L46.31 27.4263H51.6267Z" fill="black"/>
<path d="M37.0398 22.6994C37.0398 24.516 37.7818 26.2143 39.0161 26.6964V18.5801C37.7818 19.1846 37.0398 20.8828 37.0398 22.6994Z" fill="black"/>
</g>
<defs>
<clipPath id="clip0_2103_3895">
<rect width="203.6" height="57.191" fill="white" transform="translate(0.199951 0.404297)"/>
</clipPath>
</defs>
</svg>
