<svg width="112" height="72" viewBox="0 0 112 72" fill="none" xmlns="http://www.w3.org/2000/svg">
<path fill-rule="evenodd" clip-rule="evenodd" d="M0.5 36V71.5H56H111.5V36V0.5H56H0.5V36ZM109.526 35.8898V69.5155H55.8903H2.25494V35.8898V2.26398H55.8903H109.526V35.8898ZM3.13241 36V68.854H55.8903H108.648V36V3.14596H55.8903H3.13241V36ZM21.1122 11.4702C21.6209 11.7281 22.0557 12.2176 22.4284 12.9519L22.9852 14.0484L23.0462 31.9784C23.0874 44.0462 23.0317 50.1905 22.8759 50.7717C22.5589 51.9547 21.7521 52.8504 20.7242 53.16C20.2343 53.3075 18.4789 53.4193 16.6529 53.4193H13.4427V32.2516V11.0839L16.8977 11.0843C19.7508 11.0845 20.485 11.1518 21.1122 11.4702ZM38.8895 11.58C38.8898 11.8527 39.6301 21.3372 40.5348 32.6562C41.4397 43.9754 42.1798 53.2775 42.1798 53.3278C42.1798 53.378 41.5443 53.4193 40.7673 53.4193H39.355L39.2346 52.4821C39.1686 51.9666 39.0124 50.2055 38.8876 48.5683C38.7628 46.9311 38.6041 45.1204 38.535 44.5443L38.4094 43.4969H36.7079H35.0063L34.7446 47.1902C34.6005 49.2217 34.425 51.4542 34.3543 52.1514L34.226 53.4193H32.8186H31.4109L31.5263 52.7026C31.5899 52.3086 32.2956 42.9071 33.0947 31.8106C33.8937 20.7141 34.5836 11.5112 34.6277 11.3595C34.6843 11.1639 35.3147 11.0839 36.7985 11.0839C38.8204 11.0839 38.8893 11.1002 38.8895 11.58ZM55.4196 11.8005C55.4891 12.1947 56.5888 19.7108 57.8631 28.5031C59.1376 37.2954 60.2191 44.5884 60.2665 44.7096C60.3139 44.8309 60.3606 37.3148 60.37 28.007L60.3874 11.0839H61.8132H63.2391V32.2516V53.4193H61.074H58.9088L58.5368 50.9387C58.3323 49.5745 57.1936 42.0085 56.0064 34.1258L53.8478 19.7935L53.8269 36.6064L53.8063 53.4193H52.3804H50.9545V32.2516V11.0839H53.1239H55.293L55.4196 11.8005ZM82.3241 12.6273V14.1708H80.0208H77.7174V33.795V53.4193H76.1818H74.6462V33.795V14.1708H72.3429H70.0395V12.6273V11.0839H76.1818H82.3241V12.6273ZM98.3379 12.6273V14.1708H95.4862H92.6344V21.778V29.3851H95.4862H98.3379V30.9286V32.472H95.4862H92.6344V41.4022V50.3323H95.4862H98.3379V51.8758V53.4193H93.8409H89.3439V32.2516V11.0839H93.8409H98.3379V12.6273ZM16.7332 32.1413V51.2143H17.7302C18.4965 51.2143 18.8521 51.089 19.2658 50.673L19.8043 50.1319V32.1413V14.1507L19.2658 13.6096C18.8521 13.1936 18.4965 13.0683 17.7302 13.0683H16.7332V32.1413ZM36.6957 20.4777C36.6957 21.1028 35.4161 39.2133 35.2757 40.5753L35.1563 41.7329H36.6937H38.2312V40.8417C38.2312 39.324 36.9148 20.2709 36.802 20.1577C36.7435 20.0989 36.6957 20.2428 36.6957 20.4777ZM14.5454 60.5303L14.5514 61.2469L15.1487 60.5283C15.5664 60.0258 15.9329 59.8104 16.3677 59.8117L16.9894 59.8137L16.3129 60.6723C15.9408 61.1446 15.6364 61.6015 15.6364 61.6879C15.6364 61.7743 15.9408 62.2312 16.3129 62.7035L16.9894 63.5621L16.3677 63.5641C15.9329 63.5654 15.5664 63.35 15.1487 62.8475L14.5514 62.1289L14.5454 62.8455C14.5404 63.4613 14.4623 63.5621 13.9911 63.5621C13.449 63.5621 13.4427 63.5401 13.4427 61.6879C13.4427 59.8357 13.449 59.8137 13.9911 59.8137C14.4623 59.8137 14.5404 59.9144 14.5454 60.5303ZM22.2174 61.6879C22.2174 63.5401 22.211 63.5621 21.669 63.5621C21.1269 63.5621 21.1206 63.5401 21.1206 61.6879C21.1206 59.8357 21.1269 59.8137 21.669 59.8137C22.211 59.8137 22.2174 59.8357 22.2174 61.6879ZM29.4565 60.2547C29.4565 60.5781 29.3102 60.6957 28.9081 60.6957C28.3794 60.6957 28.3597 60.747 28.3597 62.1289C28.3597 63.415 28.3147 63.5621 27.9209 63.5621C27.5272 63.5621 27.4822 63.415 27.4822 62.1289C27.4822 60.747 27.4625 60.6957 26.9338 60.6957C26.5317 60.6957 26.3854 60.5781 26.3854 60.2547C26.3854 59.8556 26.5317 59.8137 27.9209 59.8137C29.3102 59.8137 29.4565 59.8556 29.4565 60.2547ZM36.6507 60.42L37.2441 61.0264L36.6516 61.0952C36.3258 61.1329 35.8638 61.0586 35.6249 60.9303C35.2921 60.7512 35.1101 60.7775 34.8462 61.0425C34.4092 61.4819 34.4092 61.8941 34.8466 62.3337C35.2533 62.7423 35.4281 62.7635 35.7475 62.4424C35.8776 62.3117 36.2528 62.2371 36.5814 62.2771L37.1785 62.3494L36.7018 62.9557C36.192 63.6042 35.0971 63.7797 34.2857 63.3434C33.3266 62.8272 33.2887 60.8039 34.2247 60.0893C34.8657 59.6002 35.9998 59.7548 36.6507 60.42ZM42.3992 60.4752C42.3992 61.0632 42.4723 61.1366 43.0573 61.1366C43.6424 61.1366 43.7154 61.0632 43.7154 60.4752C43.7154 59.9166 43.8008 59.8137 44.2638 59.8137C44.8059 59.8137 44.8123 59.8357 44.8123 61.6879C44.8123 63.5401 44.8059 63.5621 44.2638 63.5621C43.7814 63.5621 43.7154 63.4675 43.7154 62.7758C43.7154 62.048 43.6704 61.9946 43.1122 62.0592C42.6096 62.1172 42.4975 62.2484 42.4402 62.8455C42.3885 63.3835 42.2656 63.5621 41.9467 63.5621C41.5597 63.5621 41.5217 63.3948 41.5217 61.6879C41.5217 59.9607 41.5562 59.8137 41.9605 59.8137C42.3018 59.8137 42.3992 59.9607 42.3992 60.4752ZM51.6126 60.2547C51.6126 60.5978 51.4663 60.6957 50.9545 60.6957C50.5158 60.6957 50.2964 60.8059 50.2964 61.0264C50.2964 61.2321 50.5035 61.3571 50.8449 61.3571C51.1862 61.3571 51.3933 61.4822 51.3933 61.6879C51.3933 61.8936 51.1862 62.0186 50.8449 62.0186C50.5035 62.0186 50.2964 62.1437 50.2964 62.3494C50.2964 62.5699 50.5158 62.6801 50.9545 62.6801C51.4663 62.6801 51.6126 62.778 51.6126 63.1211C51.6126 63.5088 51.4663 63.5621 50.4061 63.5621H49.1996V61.6879V59.8137H50.4061C51.4663 59.8137 51.6126 59.867 51.6126 60.2547ZM57.5356 60.6957C57.8339 61.1807 58.1533 61.5776 58.2454 61.5776C58.3376 61.5776 58.413 61.1807 58.413 60.6957C58.413 59.9607 58.4861 59.8137 58.8518 59.8137C59.2561 59.8137 59.2905 59.9607 59.2905 61.6879C59.2905 63.5121 59.2767 63.5621 58.7713 63.5621C58.4058 63.5621 58.0647 63.2845 57.6196 62.625L56.9872 61.6879L56.9198 62.625C56.8652 63.3826 56.7706 63.5621 56.4262 63.5621C56.0377 63.5621 56 63.3965 56 61.6879C56 59.8878 56.0197 59.8137 56.4967 59.8137C56.8393 59.8137 57.1613 60.0869 57.5356 60.6957ZM82.857 60.1601C83.2591 60.5645 83.2828 60.7927 82.9816 61.3582C82.8346 61.6343 82.8346 61.8167 82.9816 61.9079C83.2854 62.0967 83.258 62.9762 82.9383 63.2975C82.7936 63.443 82.1025 63.5621 81.4028 63.5621H80.1304V61.6879V59.8137H81.3214C82.1113 59.8137 82.6282 59.9303 82.857 60.1601ZM90.324 61.2469C91.1988 63.597 91.1949 63.5621 90.5886 63.5621C90.2918 63.5621 89.9921 63.4133 89.9226 63.2314C89.8489 63.038 89.52 62.9006 89.1313 62.9006C88.6864 62.9006 88.4664 63.0102 88.4664 63.2314C88.4664 63.4486 88.2501 63.5621 87.8359 63.5621H87.2057L87.8868 61.6777C88.5416 59.8655 88.5921 59.7958 89.1997 59.8586C89.7526 59.9158 89.893 60.0891 90.324 61.2469ZM97.9933 60.1601C98.3941 60.5631 98.4411 61.1653 98.0982 61.5099C97.9249 61.6841 97.9249 61.8753 98.0982 62.201C98.4805 62.9189 98.3967 63.5621 97.9207 63.5621C97.6542 63.5621 97.4205 63.3229 97.274 62.9006C97.1479 62.5368 96.8914 62.2391 96.7041 62.2391C96.472 62.2391 96.3636 62.4497 96.3636 62.9006C96.3636 63.4591 96.2783 63.5621 95.8152 63.5621C95.2732 63.5621 95.2668 63.5401 95.2668 61.6879V59.8137H96.4577C97.2477 59.8137 97.7645 59.9303 97.9933 60.1601ZM70.0395 60.7164C70.0395 60.9924 70.2157 61.2242 70.4783 61.2932C70.7196 61.3567 70.917 61.5342 70.917 61.6879C70.917 61.8416 70.7196 62.0191 70.4783 62.0826C70.2157 62.1516 70.0395 62.3833 70.0395 62.6594C70.0395 62.974 69.8998 63.1211 69.6008 63.1211C69.279 63.1211 69.1621 62.974 69.1621 62.5699C69.1621 62.1657 69.0451 62.0186 68.7233 62.0186C68.4796 62.0186 68.2846 61.8716 68.2846 61.6879C68.2846 61.5042 68.4796 61.3571 68.7233 61.3571C69.0451 61.3571 69.1621 61.2101 69.1621 60.8059C69.1621 60.4017 69.279 60.2547 69.6008 60.2547C69.8998 60.2547 70.0395 60.4017 70.0395 60.7164ZM81.2273 61.0264C81.2273 61.2535 81.371 61.3616 81.6112 61.3152C82.0736 61.2257 82.0444 60.8343 81.568 60.7347C81.3692 60.693 81.2273 60.8145 81.2273 61.0264ZM96.3636 61.0264C96.3636 61.3975 96.4038 61.4125 96.8941 61.2233C97.3844 61.0343 97.3253 60.6957 96.8024 60.6957C96.5587 60.6957 96.3636 60.8427 96.3636 61.0264ZM89.0273 61.5391C88.8492 62.1024 89.0219 62.4387 89.3226 62.1141C89.4277 62.001 89.4406 61.7099 89.3513 61.4674C89.1965 61.0454 89.1824 61.0485 89.0273 61.5391ZM81.2273 62.3333C81.2273 62.5377 81.4148 62.6801 81.6842 62.6801C82.2188 62.6801 82.1433 62.1648 81.593 62.0577C81.3764 62.0153 81.2273 62.1278 81.2273 62.3333Z" fill="black"/>
</svg>
