<svg width="178" height="40" viewBox="0 0 178 40" fill="none" xmlns="http://www.w3.org/2000/svg">
<g clip-path="url(#clip0_2103_3859)">
<path fill-rule="evenodd" clip-rule="evenodd" d="M169.116 16.8343H165.457V29.5706H169.109V24.1785H169.441L173.998 29.5706H177.983L172.065 22.9931L177.488 16.8343H173.771L169.422 21.7884H169.09L169.116 16.8343ZM152.535 16.8343H148.882V29.5706H152.535V24.1785H159.468V29.5706H163.114V16.8343H159.468V21.5307H152.535V16.8343ZM102.309 26.356H93.4682C94.4056 25.0353 94.7702 24.5457 94.7702 22.7741V14.1479H102.309V26.356ZM107.901 26.356H106.215V10.8945H91.0399V21.9559C91.0399 24.2493 90.5191 24.958 89.0868 26.3238H87.1338V29.5449H107.869L107.901 26.356ZM73.7555 21.4148H79.8034C81.8215 21.4148 82.0363 21.9946 82.0363 23.225V24.5972C82.0363 25.9243 81.6978 26.356 79.6602 26.356H73.7555V21.4148ZM69.8494 10.9267V29.5706H80.1354C83.9764 29.5706 85.9034 28.6172 85.9359 24.6359V23.2765C85.9359 19.1535 83.8917 18.2065 80.0377 18.2065H73.7555V13.9739H84.3214V10.9267H69.8494ZM118.389 21.4148H124.443C126.461 21.4148 126.676 21.9946 126.676 23.225C126.676 23.2701 126.676 24.5521 126.676 24.5972C126.676 25.9243 126.344 26.356 124.307 26.356H118.395L118.389 21.4148ZM114.483 10.9267V29.5706H124.762C128.61 29.5706 130.537 28.6172 130.569 24.6359V23.2765C130.569 19.1535 128.532 18.2065 124.665 18.2065H118.382V13.9739H128.948V10.9267H114.483ZM53.828 10.9267H49.9219V29.5706H53.828V21.5758H63.0984V29.5706H67.0045V10.9267H63.0984V18.3675H53.828V10.9267Z" fill="black"/>
<path fill-rule="evenodd" clip-rule="evenodd" d="M141.537 16.8359H137.13C133.458 16.8359 132.423 18.279 132.423 20.1666H135.887C136.082 19.5224 136.336 19.2325 137.67 19.2325H140.717C142.201 19.2325 142.852 19.4515 142.852 20.6175V23.0463C142.65 22.6645 142.335 22.3531 141.948 22.1539C141.562 21.9547 141.123 21.8772 140.691 21.9318H137.065C133.426 21.9318 132.371 23.0656 132.371 24.9725V26.6346C132.371 28.6382 133.894 29.5659 136.277 29.5659H140.398C141.811 29.5659 142.214 29.1278 142.865 28.2774V29.5659H146.518V21.294C146.518 19.0585 145.248 16.8359 141.583 16.8359H141.537ZM142.885 25.8938C142.885 26.8537 142.416 27.1822 140.984 27.1822H137.807C136.394 27.1822 135.952 26.8343 135.952 25.8938V25.5266C135.984 24.6053 136.485 24.3154 137.807 24.3154H140.984C142.364 24.3154 142.859 24.6762 142.885 25.5394V25.8938Z" fill="black"/>
<mask id="mask0_2103_3859" style="mask-type:alpha" maskUnits="userSpaceOnUse" x="0" y="0" width="41" height="40">
<path fill-rule="evenodd" clip-rule="evenodd" d="M17.4862 0.141173C12.9703 0.736791 8.5707 3.00232 5.46632 6.33072C4.99097 6.84033 4.61944 7.27406 4.64068 7.29465C4.66181 7.31523 5.06904 7.22216 5.5455 7.08782C8.02899 6.3879 12.2853 5.84747 16.5718 5.68777L18.3156 5.62274C18.3156 5.62274 21.621 5.41806 25.0485 5.71303L26.6057 5.83643C26.6057 5.83643 32.9941 6.57026 34.8741 7.09806C35.3495 7.2315 35.753 7.32647 35.771 7.30916C35.8291 7.25269 34.3379 5.70915 33.5482 5.00853C30.5879 2.38195 26.7258 0.643718 22.7186 0.13451C21.2866 -0.0474569 18.8933 -0.0443728 17.4862 0.141173ZM2.43999 10.5059C1.13737 12.9567 0.42077 15.3483 0.0601098 18.4492L0 18.966L0.756708 18.6271C3.08612 17.5838 7.98899 16.7707 14.3151 16.3787C16.8016 16.2245 23.7077 16.2249 26.1114 16.3793C32.6481 16.7992 37.5752 17.6369 39.7417 18.6971L40.35 18.9948L40.2803 18.1159C40.1082 15.9449 39.3168 13.2469 38.2139 11.0713C37.3374 9.34192 37.4544 9.45876 36.9092 9.7684C35.4631 10.5899 32.2029 11.2611 27.6738 11.6697C18.2546 12.5195 6.27216 11.5395 3.37765 9.68268L3.00478 9.44344L2.43999 10.5059ZM39.7028 21.3826C37.4968 22.432 32.8495 23.2408 26.573 23.6678C24.1735 23.831 16.1656 23.8306 13.8022 23.6672C7.60207 23.2384 3.17557 22.4927 0.940013 21.5005C0.523039 21.3154 0.158687 21.164 0.130375 21.164C0.020208 21.164 0.226592 22.9626 0.464057 24.0726C0.892213 26.0739 1.71796 28.2269 2.7309 29.9827L3.08777 30.6012L3.45202 30.3615C4.77515 29.4911 8.57152 28.7515 14.0074 28.305C16.0605 28.1365 24.3559 28.1359 26.4192 28.3042C31.8296 28.7457 35.65 29.4903 36.9742 30.3613L37.3382 30.6008L37.796 29.7852C39.0419 27.566 39.9141 24.8669 40.2189 22.2875C40.2849 21.7297 40.3226 21.2375 40.3029 21.1937C40.2831 21.1501 40.0131 21.235 39.7028 21.3826ZM35.4964 32.7926C35.1894 32.9516 33.2549 33.3949 31.8044 33.6387C24.2364 34.911 12.1552 34.6557 5.96402 33.0926C5.32025 32.9301 4.77885 32.8112 4.761 32.8285C4.70468 32.883 6.28929 34.549 6.87828 35.0544C9.74859 37.5179 12.6931 38.9638 16.4029 39.7315C17.6116 39.9817 17.8716 40 20.2133 40C22.5491 40 22.817 39.9813 24.0108 39.7341C27.8224 38.9448 31.12 37.2695 33.8423 34.7392C34.7593 33.8869 35.7549 32.8157 35.6892 32.7521C35.6673 32.7308 35.5805 32.7491 35.4964 32.7926Z" fill="black"/>
</mask>
<g mask="url(#mask0_2103_3859)">
<path d="M0 20C0 31.0457 9.13897 40 20.1847 40C31.2304 40 40.3693 31.0457 40.3693 20C40.3693 8.95431 31.2304 0 20.1847 0C9.13897 0 0 8.95431 0 20Z" fill="black"/>
</g>
</g>
<defs>
<clipPath id="clip0_2103_3859">
<rect width="178" height="40" fill="white"/>
</clipPath>
</defs>
</svg>
