<svg width="218" height="58" viewBox="0 0 218 58" fill="none" xmlns="http://www.w3.org/2000/svg">
<path fill-rule="evenodd" clip-rule="evenodd" d="M44.1916 25.8501C41.6699 24.5743 38.8594 23.2059 36.3184 21.9982C34.8746 21.3165 33.0266 20.1137 31.5059 19.9384C29.5809 19.7193 27.9446 21.4869 30.0862 23.2984C35.0046 27.4571 51.3286 31.3236 52.4114 37.9463C53.2439 43.035 47.2572 45.0413 44.4804 49.0734C40.5678 54.7562 36.8381 53.9089 32.4828 48.8493L30.2787 53.0226C34.9949 58.4474 41.6121 59.1973 46.4824 53.831C47.6663 52.521 48.2438 51.1283 49.4565 49.9061C50.9821 48.3673 57.2816 45.4357 56.9929 38.6329C56.6897 31.5524 49.9233 28.7475 44.1964 25.8501" fill="black"/>
<path fill-rule="evenodd" clip-rule="evenodd" d="M37.5842 32.5466C38.7248 29.2985 35.8758 27.9642 33.9123 30.6961C30.019 36.1452 26.2508 54.5573 17.6509 52.7652C13.9789 52.0007 13.5314 49.0838 11.1107 46.6393C8.69001 44.1947 -0.21311 40.6107 9.16645 32.717L5.01326 30.5744C2.80867 32.1536 1.31183 34.552 0.850079 37.2449C0.388332 39.9378 0.999263 42.7062 2.54926 44.9446C4.64751 47.9735 7.07301 48.3095 9.18088 51.2264C15.6633 60.2012 24.5135 58.974 29.1046 50.5301C31.5109 46.1085 33.9171 40.4159 35.9961 35.8871C36.3907 35.0203 37.1559 33.7494 37.5794 32.5417" fill="black"/>
<path fill-rule="evenodd" clip-rule="evenodd" d="M20.0732 25.192C18.6294 28.7516 21.9982 30.2077 23.8654 27.1398C24.7461 25.6789 25.3814 23.6337 25.8915 22.5964C27.5999 19.1439 30.8917 11.1723 33.1102 8.29436C39.8141 -0.32001 45.257 10.1789 46.5852 11.4596C50.3005 15.0534 56.8744 17.4249 48.5102 25.2601L52.7164 27.4417C63.9006 16.3292 50.1706 9.20498 48.4958 6.95521C46.2484 3.91169 45.4639 2.21706 41.7872 1.04349C30.0928 -2.72073 24.6884 15.7936 20.5063 24.2375C20.3523 24.554 20.2031 24.8754 20.0732 25.2114" fill="black"/>
<path fill-rule="evenodd" clip-rule="evenodd" d="M12.7983 32.0085C18.1786 34.6479 22.226 36.8441 25.0365 37.6768C27.3753 38.3683 30.1088 36.5568 26.8267 34.1512C21.533 30.2555 7.50934 26.8467 5.36778 20.8766C3.4091 15.4177 10.0263 13.2459 13.2218 8.61486C17.0718 3.03914 21.1768 4.31011 24.9931 9.05313L27.3609 4.85064C22.7265 0.131973 16.6242 -1.47987 11.4412 3.77445C10.1466 5.08925 9.61722 6.42353 8.44778 7.69937C6.27253 10.0904 0.738162 11.7314 0.762224 19.1186C0.762224 26.2965 7.04734 29.413 12.7935 32.0134" fill="black"/>
<path fill-rule="evenodd" clip-rule="evenodd" d="M147.726 36.3255V18.0595H145.609L138.722 26.7762L131.864 18.0595H129.747V36.3255H133.308V24.6384L138.727 31.4559L144.17 24.6384V36.3255H147.726ZM166.442 21.4537V18.0449H153.14V21.4293C157.158 21.4293 162.414 21.4293 166.442 21.4293V21.4537ZM153.14 25.4419V28.8117H164.478V25.4029C160.667 25.4029 156.942 25.4029 153.14 25.4029V25.4419ZM153.14 32.9021V36.2622H166.442V32.8535C162.409 32.8535 157.163 32.8827 153.14 32.8827V32.9021ZM188.878 39.6953V32.9362H186.505L180.571 18.0595H178.459L172.419 32.9362H170.013V39.6953H173.574V36.3255H185.336V39.6904L188.878 39.6953ZM179.46 24.6627L182.708 32.9411H176.235L179.46 24.6627Z" fill="black"/>
<path fill-rule="evenodd" clip-rule="evenodd" d="M76.9246 38.2459L87.2138 19.9751H83.1664L78.6668 27.9369L74.1141 19.9751H70.0668L76.6166 31.6622L72.8918 38.2459H76.9246ZM90.4381 19.9751V38.2459H93.9946V34.0435H96.3671C101.425 34.0435 104.414 31.0438 104.414 26.9971C104.414 22.9504 101.425 19.9751 96.3671 19.9751H90.4381ZM93.9946 30.6493V23.3449H96.6511C98.9466 23.3449 101.035 24.5185 101.035 26.9728C101.035 29.5585 98.9466 30.625 96.6511 30.625L93.9946 30.6493ZM116.589 19.7949C114.768 19.7949 112.988 20.3413 111.474 21.3649C109.961 22.3885 108.781 23.8434 108.084 25.5456C107.387 27.2478 107.205 29.1209 107.56 30.9279C107.915 32.735 108.792 34.3948 110.079 35.6976C111.367 37.0005 113.007 37.8877 114.793 38.2471C116.579 38.6066 118.43 38.4221 120.112 37.717C121.795 37.0119 123.232 35.8179 124.244 34.286C125.256 32.754 125.796 30.953 125.796 29.1105C125.797 27.8866 125.561 26.6744 125.099 25.5433C124.637 24.4122 123.959 23.3845 123.103 22.5191C122.248 21.6537 121.232 20.9676 120.115 20.5001C118.997 20.0327 117.799 19.793 116.589 19.7949ZM217.3 38.2459V19.9751H215.188L208.301 28.6917L201.443 19.9751H199.33V38.2459H202.892V26.5588L208.306 33.3763L213.749 26.5588V38.2459H217.3ZM116.589 23.1842C119.761 23.1842 122.239 25.619 122.239 29.1105C122.239 32.602 119.761 35.032 116.589 35.032C113.418 35.032 110.968 32.6313 110.968 29.1057C110.968 25.58 113.447 23.1793 116.589 23.1793" fill="black"/>
</svg>
