<svg width="164" height="80" viewBox="0 0 164 80" fill="none" xmlns="http://www.w3.org/2000/svg">
<path d="M6.5777 41.2948C8.9815 42.7085 15.5277 44.1223 16.4396 44.289C18.5108 44.705 22.9033 45.5369 25.4721 48.0326V44.289C25.3071 44.2065 25.1412 44.0398 24.9754 43.9564C22.7383 42.6252 19.0084 41.8766 16.5229 41.2948C15.9428 41.128 15.3627 41.0455 14.9485 40.9613C9.89249 39.8802 4.42312 38.2163 4.42312 32.3929C4.42312 29.4811 6.32932 26.8195 9.31324 25.4883C13.0423 23.741 19.0918 23.5743 25.473 27.984V24.4896C23.0692 23.075 20.5004 22.1606 17.9315 21.6612C14.3684 21.0786 10.9702 21.4945 8.06965 22.9091C6.08095 23.8244 4.42312 25.1557 3.2629 26.7361C2.10268 28.4833 1.44006 30.4798 1.44006 32.4762C1.44006 36.3032 3.2629 39.2975 6.5777 41.2939V41.2948Z" fill="black"/>
<path d="M25.4751 58.598C24.3983 59.7625 23.0722 60.5111 22.3262 60.8445C19.5915 62.0924 16.1934 62.425 12.7136 61.6765C9.14954 60.927 5.58637 59.1807 2.35408 56.6016L0.447876 58.7647C4.09441 61.6765 8.15518 63.672 12.216 64.4215C13.7904 64.7541 15.199 64.9199 16.5251 64.9199C19.4257 64.9199 21.5802 64.5048 23.5698 63.5062C24.3149 63.1736 24.9784 62.7576 25.5585 62.3417V58.598H25.4751Z" fill="black"/>
<path d="M155.828 23.5699C155.828 22.6554 155.496 21.906 154.916 21.2408C154.336 20.6581 153.508 20.2422 152.596 20.2422H147.956V33.3871H150.027V26.8142H151.435L156.242 33.3871H158.729L153.756 26.565C155 26.149 155.828 24.9011 155.828 23.5699ZM152.596 24.7353H150.027V22.322H152.596C153.259 22.322 153.839 22.9047 153.839 23.5699C153.839 24.2359 153.259 24.7353 152.596 24.7353Z" fill="black"/>
<path d="M162.791 22.8212C162.211 21.49 161.382 20.3255 160.388 19.2443C159.394 18.2457 158.15 17.4138 156.824 16.8319C155.415 16.3326 153.923 16 152.432 16C150.94 16 149.448 16.3326 148.04 16.9144C146.714 17.4971 145.471 18.2465 144.477 19.3277C143.647 20.1596 143.067 21.074 142.487 22.0727L143.565 24.901C144.642 20.9907 148.122 18.0798 152.349 18.0798C157.321 18.0798 161.465 22.156 161.465 27.2301C161.465 32.305 157.404 36.3821 152.349 36.3821C150.526 36.3821 148.786 35.7994 147.377 34.8841L148.454 37.7125C149.698 38.1284 150.94 38.3785 152.349 38.3785C153.841 38.3785 155.333 38.1293 156.658 37.4632C157.984 36.8805 159.228 36.0486 160.222 35.0508C161.216 34.0522 162.045 32.8877 162.625 31.4731C163.205 30.0593 163.537 28.6456 163.537 27.0642C163.619 25.733 163.371 24.2359 162.791 22.8212Z" fill="black"/>
<path d="M74.5367 61.8407C71.3878 61.8407 68.3214 61.0087 65.7526 59.595L68.7356 63.7546C70.6418 64.2531 72.548 64.5865 74.6201 64.5865C80.4212 64.5865 85.7238 62.2575 89.6196 58.513V54.1875C86.1389 58.8456 80.6696 61.8407 74.5367 61.8407Z" fill="black"/>
<path d="M74.5335 21.1571C63.0138 21.1571 53.6496 30.2249 52.9869 41.6226L56.0534 45.9489C55.8847 44.9315 55.8014 43.9017 55.8041 42.8704C55.8041 32.3881 64.2574 23.8196 74.5335 23.8196C80.6655 23.8196 86.1357 26.8147 89.5331 31.4728V27.1473C85.6381 23.4853 80.3346 21.1562 74.5335 21.1562V21.1571Z" fill="black"/>
<path d="M62.2664 64.997H66.2438L45.1114 35.2137L59.6142 21.5703H55.2225L31.2721 44.1989V21.5703H28.2057V64.997H31.2721V48.2752L42.7085 37.4602L62.2664 64.9961V64.997Z" fill="black"/>
<path d="M117.797 59.0902C115.974 60.8374 113.487 62.0019 110.753 62.0019H95.2556V40.7054H110.753C116.222 40.7879 120.697 45.0308 121.111 50.355L122.935 45.5302C122.256 44.0788 121.331 42.7558 120.2 41.6198C118.957 40.3719 117.466 39.2908 115.808 38.7081L115.56 38.6247L114.399 37.4602L115.228 36.4615C116.305 34.9644 116.886 33.0513 116.886 31.1374C116.886 28.6416 115.891 26.1459 114.068 24.3995C112.327 22.569 109.841 21.5703 107.355 21.5703H92.1901V64.997H110.753C112.576 64.997 114.316 64.581 115.974 63.8316L117.797 59.0902ZM95.339 24.482H107.438C111.084 24.6488 113.985 27.5605 113.985 31.1374C113.985 34.7152 111.084 37.6261 107.52 37.7094H95.4215V24.4829H95.339V24.482Z" fill="black"/>
<path d="M147.46 51.5195L152.599 64.9136H155.996L139.256 21.5703H135.113L118.456 64.997H121.77L126.909 51.6029H147.46V51.5195ZM137.185 24.8146L146.301 48.5244H128.069L137.185 24.8146Z" fill="black"/>
</svg>
