<svg width="184" height="26" viewBox="0 0 184 26" fill="none" xmlns="http://www.w3.org/2000/svg">
<path d="M24.5936 1.05762L14.9411 24.9449H9.80907L0.0205688 1.05762H5.05093L12.4602 20.0051L19.7673 1.05762H24.5936Z" fill="black"/>
<path d="M51.7745 22.3042L53.4738 18.9884C56.1636 20.6378 59.2538 21.5268 62.4126 21.5599C65.2674 21.5599 68.2245 20.951 68.2245 18.6839C68.2245 16.7214 64.9617 15.8756 61.9706 15.165C57.0423 14.0822 52.5221 12.5937 52.5221 7.51834C52.5221 2.4093 57.3142 0.514648 62.6506 0.514648C66.0214 0.531136 69.3323 1.4046 72.2689 3.0522L70.6716 6.36799C67.9523 5.14998 65.1997 4.40571 62.3446 4.40571C59.6257 4.40571 57.0084 5.25157 57.0084 7.31542C57.0084 9.65005 60.8494 10.2928 63.4663 10.9357C68.1902 11.9508 72.7447 13.6425 72.7447 18.2102C72.7447 23.3869 67.8168 25.4846 62.3445 25.4846C58.674 25.4846 54.6974 24.4021 51.7745 22.3042Z" fill="black"/>
<path d="M127.476 1.05762V24.9449H122.921L108.919 7.62156V24.9449H104.466V1.05762H109.054L123.023 18.3134V1.05762H127.476Z" fill="black"/>
<path d="M157.047 13.0351C157.047 20.1404 152.391 24.9449 143.928 24.9449H134.071V1.05762H143.928C152.391 1.05762 157.047 5.92984 157.047 13.0351ZM152.493 13.0351C152.493 7.72309 149.161 4.84711 144.2 4.84711H138.523V21.1553H144.2C149.161 21.1555 152.493 18.3134 152.493 13.0351Z" fill="black"/>
<path d="M90.2865 1.05762H85.495L75.1964 24.945H79.9878L87.8057 5.42195L95.5211 24.945H100.483L90.2865 1.05762Z" fill="black"/>
<path d="M173.782 1.05762H168.99L158.692 24.945H163.483L171.302 5.42195L179.017 24.945H183.979L173.782 1.05762Z" fill="black"/>
<path d="M38.7236 1.05762H33.9325L23.6339 24.945H28.4253L36.2431 5.42195L43.9585 24.945H48.9208L38.7236 1.05762Z" fill="black"/>
</svg>
