<svg width="186" height="38" viewBox="0 0 186 38" fill="none" xmlns="http://www.w3.org/2000/svg">
<g clip-path="url(#clip0_2103_3881)">
<path fill-rule="evenodd" clip-rule="evenodd" d="M37.2884 0.0224609H0.219971V37.6403H37.8023V0.0224609H37.2884ZM4.98806 16.4459C5.62628 16.4465 6.23816 16.7006 6.68938 17.1524C7.14059 17.6042 7.39426 18.2168 7.39469 18.8556C7.39383 19.4943 7.14001 20.1065 6.68886 20.5581C6.23771 21.0097 5.62607 21.2637 4.98806 21.2646C4.35024 21.2631 3.73897 21.0088 3.28796 20.5574C2.83695 20.1059 2.58292 19.4941 2.58142 18.8556C2.58228 18.2169 2.83608 17.6046 3.2872 17.1529C3.73833 16.7012 4.34997 16.4469 4.98806 16.4459ZM16.521 35.6877C21.5997 31.989 24.7865 26.0615 25.0608 19.7569H31.106L27.2609 23.5597V25.9016L34.3598 18.8791L27.2601 11.8533V14.192L31.106 17.9988H25.0608C24.7865 11.6966 21.5997 5.76746 16.521 2.06721V1.05776H36.7729V36.6083H16.5218V35.6877H16.521ZM13.9611 36.6083L16.521 35.6877L13.9611 36.6083H1.25588V1.05776H13.9619V2.87154H14.312C19.5327 6.12521 22.868 11.8638 23.1576 17.9988H21.9862C21.6933 12.2619 18.5686 6.90855 13.6828 3.86807L12.8364 5.22882C17.2576 7.97615 20.0902 12.8143 20.3799 17.9988H18.918C18.6283 13.3166 16.0603 8.96218 12.066 6.47489L11.3673 7.60144C14.9768 9.84485 17.3076 13.7744 17.5924 17.9988H15.8449C15.5609 14.3769 13.5537 11.019 10.4484 9.08816L9.89975 9.97648C12.6969 11.7176 14.5202 14.7322 14.8001 17.9988H12.7905C12.5178 15.4259 11.0559 13.0606 8.84528 11.6853L8.42092 12.3636C10.3975 13.5952 11.7077 15.7037 11.9804 17.9988H9.72629C9.60024 17.2369 9.31389 16.5105 8.88619 15.8677C8.4585 15.2249 7.89923 14.6804 7.24543 14.2703L6.93644 14.7661C7.63209 15.2036 8.20587 15.8101 8.60437 16.5292C9.00288 17.2484 9.21314 18.0567 9.2156 18.8791C9.21275 19.7014 9.00233 20.5097 8.60387 21.2289C8.20541 21.9481 7.63184 22.5548 6.93644 22.9928L7.24543 23.491C7.89953 23.0799 8.45893 22.5345 8.88661 21.8907C9.31429 21.247 9.6005 20.5196 9.72629 19.7569H11.9804C11.7077 22.056 10.3983 24.1621 8.42092 25.3888L8.84528 26.0704C11.0559 24.6975 12.5178 22.333 12.7905 19.7569H14.8001C14.5202 23.0235 12.6969 26.0421 9.90056 27.78L10.4492 28.6667C13.5488 26.7366 15.5609 23.382 15.8449 19.7569H17.5924C17.3076 23.9828 14.9736 27.91 11.3673 30.1534L12.066 31.28C16.0571 28.7951 18.6283 24.4375 18.918 19.7569H20.3807C20.0902 24.943 17.2576 29.7787 12.8364 32.5309L13.6828 33.8916C18.5686 30.8504 21.6941 25.4954 21.9862 19.7569H23.1576C22.868 25.8976 19.5255 31.6393 14.2999 34.8938L14.3145 34.9197H13.9619V36.6083H13.9611ZM172.005 12.4832H176.187C177.385 12.4832 180.011 12.3539 180.011 15.4364C180.011 17.6411 178.714 18.5504 176.187 18.5504H172.005V12.4832ZM166.659 8.07225V30.7809H172.006V22.9621H177.095C179.85 22.9621 185.781 22.5082 185.781 15.4033C185.781 9.79074 181.828 8.07225 177.225 8.07225H166.659ZM148.82 22.6706L151.801 14.0086L154.72 22.6706H148.82ZM149.079 8.07225L140.589 30.7809H146.227L147.653 26.5307H155.886L157.345 30.7809H163.017L154.492 8.07225H149.079ZM129.093 12.4832V30.7809H134.44V12.4832H141.279V8.07225H122.222V12.4832H129.093ZM107.89 27.0177C104.908 27.0177 102.186 25.363 102.186 19.4258C102.186 14.2348 104.227 11.8347 107.89 11.8347C113.366 11.8347 113.594 17.4149 113.594 19.4258C113.594 21.3405 113.335 27.0177 107.89 27.0177ZM107.89 31.4294C115.7 31.4294 119.363 26.303 119.363 19.4258C119.363 12.5486 115.7 7.42297 107.89 7.42297C98.9443 7.42297 96.4159 14.1387 96.4159 19.4258C96.4159 24.7145 98.9443 31.4294 107.89 31.4294ZM86.6385 21.4374C86.5086 26.2707 83.1048 27.0177 80.9345 27.0177C77.2717 27.0177 75.5864 24.746 75.4888 22.606H70.0446C70.3689 27.5369 74.0946 31.4294 80.9983 31.4294C84.0778 31.4294 92.407 30.8124 92.407 19.1342C92.407 13.7817 90.0415 7.42297 80.6425 7.42297C73.1233 7.42297 70.5625 11.9647 70.3028 15.631H75.7485C75.9422 14.1387 77.045 11.8355 80.9668 11.8355C82.5876 11.8355 86.1528 12.0293 86.6385 17.2849H77.9833V21.4374H86.6377H86.6385ZM57.1821 12.4832H67.003V8.07225H51.8355V30.7809H57.1829V12.4832H57.1821Z" fill="black"/>
</g>
<defs>
<clipPath id="clip0_2103_3881">
<rect width="185.56" height="37.9555" fill="white" transform="translate(0.219971 0.0224609)"/>
</clipPath>
</defs>
</svg>
