<svg width="184" height="58" viewBox="0 0 184 58" fill="none" xmlns="http://www.w3.org/2000/svg">
<path d="M32.2986 28.589H17.2711L13.9853 36.6411H5L19.8484 2.86328H30.3675L45.216 36.6333H35.5221L32.2986 28.589ZM19.1943 23.133H30.3987L25.0962 9.88929H24.5668L19.1943 23.133Z" fill="black"/>
<path d="M61.4581 36.6333H52.5039V2.86328H70.4667C72.8182 2.86328 74.9283 3.11199 76.8126 3.6094C78.689 4.10682 80.2774 4.82963 81.5855 5.7623C82.8858 6.69495 83.8903 7.83745 84.591 9.16648C85.2918 10.4955 85.6421 12.0111 85.6421 13.6976C85.6421 14.778 85.4709 15.8039 85.1282 16.7987C84.7778 17.7858 84.2795 18.7029 83.6178 19.5345C82.9558 20.3661 82.1383 21.1045 81.1728 21.7496C80.2074 22.3869 79.1094 22.9075 77.887 23.2963L86.8958 36.6333H76.7502L68.7771 24.3999H61.4581V36.6333ZM61.4581 18.9671H69.3143C71.5879 18.9671 73.3477 18.5163 74.5934 17.607C75.8392 16.7055 76.4621 15.4308 76.4621 13.7909C76.4621 12.9981 76.2908 12.2753 75.9561 11.6303C75.6212 10.9852 75.1384 10.4333 74.5156 9.98256C73.8927 9.53178 73.1296 9.18202 72.2342 8.94109C71.331 8.70015 70.3343 8.5758 69.2287 8.5758H61.4659V18.9671H61.4581Z" fill="black"/>
<path d="M111.482 2.83984C114.659 2.83984 117.501 3.21291 119.985 3.95126C122.476 4.68962 124.571 5.77771 126.284 7.20779C127.997 8.63786 129.297 10.3866 130.193 12.4462C131.096 14.5136 131.54 16.8686 131.54 19.5033C131.54 22.2469 131.096 24.6874 130.208 26.817C129.321 28.9465 128.02 30.7341 126.307 32.1875C124.594 33.6408 122.5 34.7445 120.008 35.4983C117.517 36.2523 114.675 36.6331 111.475 36.6331H94.6406V2.83984H111.482ZM103.603 30.5942H110.065C114.036 30.5942 117.088 29.6614 119.222 27.7962C121.355 25.9309 122.422 23.2028 122.422 19.6198C122.422 17.9177 122.142 16.4022 121.573 15.0654C121.013 13.7286 120.203 12.6016 119.144 11.6845C118.085 10.7674 116.792 10.0679 115.259 9.59384C113.725 9.11973 111.996 8.87879 110.057 8.87879H103.595V30.5942H103.603Z" fill="black"/>
<path d="M158.693 2C161.853 2 164.696 2.41192 167.226 3.24354C169.756 4.06739 171.905 5.24876 173.689 6.77987C175.463 8.31098 176.834 10.1685 177.793 12.3603C178.749 14.552 179.225 17.0158 179.225 19.7438C179.225 22.4873 178.749 24.9589 177.8 27.1507C176.85 29.3424 175.488 31.1999 173.712 32.731C171.936 34.2621 169.772 35.4357 167.233 36.2673C164.696 37.0911 161.846 37.5108 158.685 37.5108C155.5 37.5108 152.642 37.0989 150.104 36.2673C147.566 35.4435 145.409 34.2621 143.626 32.731C141.85 31.1999 140.48 29.3424 139.523 27.1507C138.565 24.9589 138.082 22.4873 138.082 19.7438C138.082 17.0158 138.565 14.552 139.53 12.3603C140.496 10.1685 141.874 8.3032 143.665 6.76432C145.456 5.22543 147.62 4.05184 150.159 3.228C152.712 2.41192 155.554 2 158.693 2ZM158.693 8.20216C156.956 8.20216 155.383 8.47419 153.982 9.01046C152.58 9.54675 151.381 10.3162 150.384 11.3188C149.388 12.3136 148.617 13.5338 148.072 14.9562C147.527 16.3862 147.254 17.9795 147.254 19.7438C147.254 21.508 147.519 23.1013 148.056 24.5159C148.586 25.9382 149.349 27.1507 150.338 28.1532C151.326 29.1558 152.525 29.9331 153.935 30.4849C155.344 31.0289 156.932 31.3009 158.693 31.3009C160.429 31.3009 162.002 31.0289 163.403 30.4849C164.805 29.9409 166.003 29.1636 167.001 28.1532C167.997 27.1507 168.76 25.9382 169.296 24.5159C169.834 23.0936 170.099 21.508 170.099 19.7438C170.099 17.9795 169.834 16.3862 169.296 14.9562C168.768 13.5261 167.997 12.3136 167.001 11.3188C166.003 10.3162 164.805 9.55452 163.403 9.01046C162.002 8.46642 160.437 8.20216 158.693 8.20216Z" fill="black"/>
<path d="M52.42 53.7467C53.401 54.1119 54.8415 54.4229 56.3598 54.4229C58.6023 54.4229 59.9181 53.7 59.9181 52.6585C59.9181 51.687 59.0072 51.1352 56.7102 50.599C53.9306 50.0005 52.2176 49.1222 52.2176 47.6611C52.2176 46.0445 54.4133 44.8477 57.7225 44.8477C59.4666 44.8477 60.728 45.0963 61.4831 45.3528L60.8759 46.4408C60.3231 46.2544 59.1863 45.9513 57.6445 45.9513C55.3243 45.9513 54.4366 46.7984 54.4366 47.5057C54.4366 48.4772 55.4723 48.9513 57.8158 49.5031C60.6968 50.1793 62.1529 51.0264 62.1529 52.5497C62.1529 54.1509 60.2062 55.5343 56.1964 55.5343C54.5534 55.5343 52.7626 55.2389 51.8594 54.8737L52.42 53.7467Z" fill="black"/>
<path d="M68.3967 46.1543H63.2266V45.0195H75.8169V46.1543H70.6157V55.3798H68.3967V46.1543Z" fill="black"/>
<path d="M79.9028 45.0193V51.1516C79.9028 53.4755 81.5924 54.4548 83.866 54.4548C86.3887 54.4548 88.0083 53.4366 88.0083 51.1516V45.0193H90.2273V51.0584C90.2273 54.2371 87.4787 55.5429 83.7958 55.5429C80.3154 55.5429 77.6914 54.3305 77.6914 51.1127V45.0117H79.9028V45.0193Z" fill="black"/>
<path d="M94.0352 45.1591C95.3745 45.0348 96.9627 44.9414 98.7069 44.9414C101.86 44.9414 104.111 45.3844 105.598 46.2316C107.108 47.0788 107.996 48.2757 107.996 49.9545C107.996 51.641 107.139 53.0322 105.551 53.9804C103.963 54.952 101.339 55.4727 98.0295 55.4727C96.4645 55.4727 95.1564 55.426 94.043 55.3484V45.1591H94.0352ZM96.231 54.3224C96.7838 54.3846 97.5935 54.4001 98.45 54.4001C103.145 54.4001 105.691 52.7991 105.691 50.001C105.715 47.5607 103.449 46.0063 98.8003 46.0063C97.6635 46.0063 96.807 46.0684 96.2232 46.1462V54.3224H96.231Z" fill="black"/>
<path d="M113.039 45.0195V55.3798H110.844V45.0195H113.039Z" fill="black"/>
<path d="M131.409 50.0939C131.409 53.6613 127.85 55.55 123.513 55.55C119.021 55.55 115.867 53.4282 115.867 50.296C115.867 47.0084 119.223 44.8555 123.763 44.8555C128.411 44.8477 131.409 47.0162 131.409 50.0939ZM118.211 50.2571C118.211 52.4723 120.181 54.4542 123.638 54.4542C127.118 54.4542 129.088 52.5033 129.088 50.1484C129.088 48.0888 127.321 45.9359 123.661 45.9359C120.033 45.9437 118.211 47.9877 118.211 50.2571Z" fill="black"/>
</svg>
