<svg width="60" height="68" viewBox="0 0 60 68" fill="none" xmlns="http://www.w3.org/2000/svg">
<path d="M3.13106 32.4356C1.27422 30.5066 0.394745 27.7113 0.394745 24.0466V10.2586H5.7679V23.95C5.7679 28.386 7.52685 30.6032 10.9469 30.6032C12.6079 30.6032 13.879 30.0251 14.7584 28.964C15.6363 27.9045 16.1258 26.1672 16.1258 23.95V10.2586H21.4026V24.1432C21.4026 27.8063 20.5232 30.6032 18.6663 32.5322C16.8095 34.4596 14.269 35.4241 10.9469 35.4241C7.62474 35.4241 4.98632 34.4596 3.13106 32.4356ZM32.0511 35.0377H26.7758V10.2586H31.1732L42.7026 25.2993V10.2586H47.9779V35.0377H43.5805L32.0526 19.997L32.0511 35.0377ZM58.9216 35.0377H53.5468V10.2586H58.9216V35.0377ZM12.51 52.7709L22.6721 66.4607H16.4195L8.99369 56.7223L5.86738 60.1938V66.4607H0.491061V41.6816H5.86422V53.2523L16.1242 41.6816H22.0847L12.51 52.7709ZM46.7084 47.467C47.7821 49.3944 48.3695 51.6116 48.3695 54.0236C48.3695 56.4341 47.7821 58.6513 46.7084 60.5803C45.6332 62.5077 44.07 64.0502 42.1153 65.2079C40.1621 66.3656 38.0116 66.8471 35.569 66.8471C33.2803 66.8658 31.0254 66.3012 29.0226 65.2079C27.1004 64.0982 25.5148 62.5002 24.4311 60.5803C23.3574 58.6513 22.77 56.4341 22.77 54.0236C22.77 51.6132 23.3558 49.3959 24.4311 47.467C25.5047 45.538 27.0679 43.9954 29.0226 42.8393C30.9774 41.6816 33.1279 41.1986 35.569 41.1986C38.0116 41.1986 40.1621 41.7782 42.1153 42.8377C44.07 43.9954 45.6332 45.538 46.7084 47.4654V47.467ZM42.8969 54.1202C42.8969 52.5777 42.6047 51.2267 41.9195 49.974C41.3353 48.7197 40.4542 47.8518 39.2826 47.1771C38.2074 46.5025 36.9379 46.2127 35.569 46.2127C34.2016 46.2127 32.9321 46.5025 31.8569 47.1787C30.7832 47.8518 29.9021 48.8163 29.2184 49.974C28.6326 51.2267 28.2411 52.5761 28.2411 54.1187C28.2411 55.6612 28.5347 57.0121 29.2184 58.2649C29.8042 59.5192 30.6837 60.3871 31.8553 61.0617C32.9305 61.7364 34.2016 62.0262 35.569 62.0262C36.9379 62.0262 38.2074 61.7364 39.2826 61.0617C40.3563 60.3871 41.2358 59.4226 41.9195 58.2664C42.6047 57.0121 42.8984 55.6628 42.8984 54.1202H42.8969ZM53.6447 41.6816H59.0195V66.4607H53.6447V41.6816ZM52.9611 4.66797C52.9611 2.8356 54.4263 1.38965 56.2832 1.38965C58.14 1.38965 59.6053 2.8356 59.6053 4.66797C59.6088 5.09947 59.5254 5.52736 59.3597 5.9267C59.194 6.32604 58.9494 6.68884 58.6402 6.99397C58.331 7.29909 57.9634 7.54044 57.5587 7.70394C57.154 7.86744 56.7204 7.94983 56.2832 7.9463C54.4263 7.9463 52.8632 6.50035 52.9611 4.66797Z" fill="black"/>
</svg>
