<svg width="1920" height="177" viewBox="0 0 1920 177" fill="none" xmlns="http://www.w3.org/2000/svg">
<path fill-rule="evenodd" clip-rule="evenodd" d="M-165.299 16.1468C-165.299 16.2228 -165.927 18.6147 -166.696 21.4618C-167.463 24.309 -168.234 27.1805 -168.408 27.8433C-168.597 28.567 -168.889 29.048 -169.138 29.048C-169.366 29.048 -169.553 29.1002 -169.553 29.1642C-169.553 29.228 -177.528 58.9045 -187.276 95.1119C-197.024 131.319 -205 160.988 -205 161.044C-205 161.099 -199.335 161.144 -192.411 161.144H-179.823L-179.646 160.441L-179.47 159.737L-173.032 159.661L-166.593 159.585L-147.384 88.2928C-136.819 49.0821 -128.17 16.7773 -128.163 16.5046C-128.151 16.0371 -129.219 16.0085 -146.724 16.0085C-156.94 16.0085 -165.299 16.0709 -165.299 16.1468ZM-102.722 16.2211C-102.792 16.3382 -103.581 19.1762 -104.475 22.5283C-105.537 26.5132 -106.275 28.7699 -106.608 29.048C-106.972 29.353 -112.015 47.69 -124.46 93.9622C-133.999 129.431 -141.979 159.058 -142.193 159.8L-142.584 161.15L-129.908 161.076L-117.232 161.002L-117.141 160.365L-117.051 159.727H-110.579H-104.107L-103.947 159.089C-103.858 158.738 -95.1666 126.446 -84.6322 87.3279C-74.0981 48.2099 -65.479 16.1604 -65.479 16.1066C-65.479 15.9036 -102.6 16.0178 -102.722 16.2211ZM1333.89 16.2211C1333.82 16.3382 1333.03 19.1762 1332.14 22.5283C1331.08 26.5053 1330.34 28.7705 1330.01 29.048C1329.64 29.3525 1324.62 47.618 1312.3 93.3952C1302.85 128.552 1294.87 158.18 1294.58 159.233L1294.04 161.15L1306.71 161.076L1319.38 161.002L1319.47 160.365L1319.56 159.727H1326.03H1332.51L1332.69 159.005C1332.79 158.608 1341.48 126.317 1352 87.2485C1362.52 48.1793 1371.13 16.1675 1371.13 16.1111C1371.13 15.9053 1334.01 16.0147 1333.89 16.2211ZM1396.15 16.9298C1396.01 17.4363 1395.22 20.3705 1394.39 23.4495C1393.43 27.0328 1392.75 29.048 1392.52 29.048C1392.32 29.048 1392.09 29.2711 1392.01 29.5441C1391.79 30.2587 1357.03 159.432 1356.8 160.365L1356.61 161.144H1369.24H1381.87L1381.96 160.506C1382.05 159.871 1382.08 159.868 1388.54 159.727L1395.03 159.585L1414.27 88.1511C1424.85 48.8624 1433.52 16.5579 1433.52 16.3628C1433.52 16.083 1429.62 16.0085 1414.96 16.0085H1396.4L1396.15 16.9298ZM2832.76 16.9298C2832.62 17.4363 2831.83 20.3705 2831 23.4495C2830.04 27.0328 2829.37 29.048 2829.13 29.048C2828.93 29.048 2828.7 29.2711 2828.62 29.5441C2828.41 30.2587 2793.64 159.432 2793.41 160.365L2793.22 161.144H2805.85H2818.48L2818.57 160.506C2818.66 159.871 2818.69 159.868 2825.15 159.727L2831.64 159.585L2850.88 88.1511C2861.47 48.8624 2870.13 16.5579 2870.13 16.3628C2870.13 16.083 2866.24 16.0085 2851.57 16.0085H2833.01L2832.76 16.9298ZM2895.4 16.6463C2895.27 16.9969 2894.48 19.8353 2893.66 22.9535C2892.68 26.6587 2891.98 28.7702 2891.65 29.048C2891.28 29.3542 2886.21 47.7773 2873.55 94.7964C2863.87 130.724 2855.89 160.35 2855.8 160.632C2855.64 161.121 2856.21 161.144 2868.27 161.144H2880.9L2881.08 160.435L2881.26 159.727H2887.68H2894.11L2913.36 88.2219C2923.95 48.8942 2932.67 16.5579 2932.74 16.3628C2932.84 16.0816 2929.02 16.0085 2914.25 16.0085H2895.64L2895.4 16.6463ZM167.34 20.0244C156.781 21.0185 145.13 25.459 137.192 31.5145C134.304 33.717 128.853 39.2075 126.625 42.1576C122.609 47.4754 120.057 52.4058 117.565 59.6625C116.735 62.0791 115.487 65.6729 114.792 67.6487C114.097 69.6245 113.289 72.4217 112.998 73.8648L112.467 76.4883L112.325 48.8706L112.183 21.2526L91.4113 21.1801L70.6391 21.1072V27.7707V34.4339H69.0794H67.5197L67.5013 51.938L67.4826 69.4422L66.7946 66.1273C61.8297 42.2018 44.4432 26.0798 19.3254 22.1104C13.9714 21.2646 6.92904 21.0817 -16.9869 21.1676L-40.6658 21.2526L-40.7418 27.8433L-40.8181 34.4339H-42.2306H-43.6434V89.5865V144.739L-19.0429 144.626C6.75293 144.507 7.20666 144.487 13.9232 143.163C15.093 142.933 17.5176 142.541 19.3112 142.292C32.5723 140.453 44.2027 134.745 52.6862 125.91C59.664 118.643 64.5705 109.072 66.7274 98.5212L67.3779 95.3384L67.5197 119.95L67.6615 144.561L82.6203 144.635L97.5791 144.708V144.002V143.295L104.881 143.22L112.183 143.144L112.275 123.018L112.367 102.891L113.049 105.868C114.065 110.304 115.286 113.821 117.182 117.773C125.034 134.139 139.745 143.961 159.258 145.866C163.782 146.307 171.89 146.02 175.989 145.273C177.704 144.96 180.512 144.513 182.228 144.279C190.302 143.178 195.975 141.517 202.078 138.469C215.8 131.616 225.047 119.565 228.292 104.309L228.834 101.758L228.855 123.23L228.876 144.703H243.906H258.936V143.994V143.286H266.167H273.398V100.907V58.5287H288.286H303.174V101.616V144.703H317.92H332.666V143.994V143.286H340.039H347.413V100.907V58.5287H356.629H365.845V57.82V57.1113H373.22H380.596L380.522 39.182L380.45 21.2526H306.152H231.854L231.778 27.8433L231.702 34.4339H230.289H228.876L228.843 51.0876C228.813 66.7694 228.788 67.543 228.421 64.3398C227.584 57.0274 226.292 52.4157 223.615 47.1854C214.036 28.4649 191.78 17.7232 167.34 20.0244ZM771.931 20.0037C760.388 21.1787 748.65 25.9061 740.312 32.7388C737.667 34.9056 733.026 39.7367 731.055 42.3744C727.492 47.1421 724.188 53.5878 722.194 59.6634C721.504 61.7676 720.477 64.6723 719.913 66.1177C718.637 69.3903 717.41 74.1118 716.729 78.3714C716.309 81.0023 716.21 83.2179 716.216 89.8519C716.223 97.0681 716.302 98.5226 716.861 101.758C718.422 110.784 720.977 117.47 725.376 124.037C733.174 135.677 744.263 142.619 759.365 145.314C762.532 145.879 763.907 145.96 770.087 145.947C776.193 145.934 777.649 145.844 780.58 145.296C782.452 144.946 785.323 144.478 786.96 144.257C800.337 142.448 810.547 137.884 818.713 130.062C825.881 123.196 830.434 115.069 832.744 105.017L833.428 102.041L833.448 123.372L833.468 144.703H873.169H912.87V143.994V143.286H920.101H927.332V125.285V107.285H902.661H877.989V104.45V101.616H893.444H908.9V100.907V100.198H916.275H923.65L923.577 82.2691L923.504 64.3398L900.747 64.2672L877.989 64.1946V61.3617V58.5287H895.571H913.153V57.82V57.1113H920.385H927.616V39.1111V21.1109H882.106H836.597L836.521 27.7015L836.445 34.2922L834.956 34.3778L833.468 34.4637L833.435 50.9607C833.404 66.4482 833.378 67.2498 833.016 64.0563C832.804 62.1854 832.363 59.3944 832.035 57.8537C827.915 38.4594 810.866 23.8362 788.378 20.4085C784.747 19.8549 775.604 19.6301 771.931 20.0037ZM1093.79 19.8682C1078.51 21.2714 1065.51 27.2171 1056.17 37.0832C1050.34 43.2415 1046.27 50.1871 1043.17 59.3003C1042.33 61.7602 1041.14 65.2398 1040.52 67.0327C1039.89 68.8256 1039.07 71.6958 1038.68 73.4107L1037.97 76.5289L1037.95 48.8182L1037.93 21.1072L1017.16 21.1801L996.384 21.2526L996.308 27.8433L996.231 34.4339H994.822H993.412L993.338 48.4939L993.264 62.5536L979.538 42.3285C971.989 31.2044 965.62 21.8788 965.384 21.6047C964.984 21.1381 963.875 21.1112 947.917 21.1795L930.877 21.2526L930.801 27.8433L930.725 34.4339H929.312H927.899V89.571V144.708L942.858 144.635L957.817 144.561L957.908 143.923L957.998 143.286H965.21H972.421V125.269C972.421 115.359 972.517 107.311 972.634 107.384C972.751 107.456 978.589 115.879 985.608 126.102L998.369 144.689L1010.85 144.625L1023.32 144.561L1023.41 143.923L1023.51 143.286H1030.72H1037.93L1037.96 122.947C1037.98 109.418 1038.08 102.987 1038.26 103.742C1038.4 104.365 1038.79 106.024 1039.12 107.427C1040.8 114.638 1043.62 120.638 1048.21 126.785C1055.63 136.711 1066.78 143.129 1080.64 145.458C1085.3 146.241 1096.37 146.163 1100.88 145.316C1102.68 144.979 1105.61 144.505 1107.41 144.263C1109.2 144.021 1111.88 143.572 1113.36 143.266C1135.98 138.587 1152.93 120.326 1155.04 98.3559C1155.2 96.6409 1155.4 94.5248 1155.48 93.6535L1155.63 92.0692L1148.6 91.8824C1144.74 91.7797 1135.36 91.6953 1127.76 91.695L1113.94 91.6944L1113.79 92.3322C1113.72 92.6831 1113.46 94.2456 1113.22 95.8047C1112.17 102.669 1108.73 106.055 1102.06 106.796C1098.41 107.2 1094.64 106.645 1091.91 105.3C1087.39 103.076 1084.38 98.0849 1083.12 90.7023C1082.44 86.6824 1082.44 77.8172 1083.13 74.0168C1084.32 67.4471 1086.65 63.0148 1090.38 60.2116C1091.67 59.2436 1092.06 59.0956 1093.35 59.0956C1095.37 59.0956 1098.93 60.0345 1101.16 61.1513C1102.3 61.7251 1103.74 62.8198 1104.99 64.0563C1107.81 66.8538 1109.12 69.676 1110.13 75.1824L1110.25 75.8202H1125.45H1140.65L1140.51 75.1115L1140.38 74.4029H1148C1154.17 74.4029 1155.61 74.3312 1155.61 74.0233C1155.61 73.0456 1154.72 64.4172 1154.45 62.7807C1151.73 46.3815 1142.22 33.2776 1127.82 26.0654C1122.45 23.373 1115.95 21.3782 1109.39 20.4017C1106.52 19.9739 1096.41 19.6281 1093.79 19.8682ZM1666.62 19.9977C1644.99 22.3922 1628.27 33.9395 1619.47 52.558C1618.7 54.1851 1617.39 57.5017 1616.56 59.9282C1615.74 62.3546 1614.48 65.9981 1613.78 68.0248C1613.07 70.0516 1612.26 72.9218 1611.98 74.4029L1611.47 77.0958L1611.33 49.1742L1611.18 21.2526H1590.48H1569.78L1569.71 27.8433L1569.63 34.4339H1568.22H1566.8L1566.78 52.2215L1566.75 70.0091L1566.1 67.008C1564.21 58.3594 1561.74 52.1855 1557.73 46.0856C1550.37 34.8889 1539.15 27.0728 1525.39 23.5502C1516.73 21.3306 1513.11 21.124 1482.79 21.1169L1458.48 21.1109V27.7724V34.4339H1457.06H1455.64V89.5877V144.742L1480.38 144.61C1495.97 144.527 1505.86 144.366 1507.11 144.173C1508.2 144.005 1510.44 143.618 1512.07 143.313C1513.71 143.009 1516.2 142.616 1517.6 142.441C1523.89 141.658 1531.15 139.547 1536.6 136.916C1551.97 129.504 1562.23 115.878 1565.97 97.9307L1566.77 94.1039L1566.79 119.406L1566.8 144.708L1581.76 144.635L1596.72 144.561L1596.81 143.923L1596.9 143.286H1604.11H1611.33L1611.35 122.805L1611.37 102.324L1612.03 105.301C1613.79 113.271 1616.72 119.898 1621.12 125.874C1629.44 137.156 1641.64 143.912 1656.91 145.698C1663.32 146.447 1671.82 146.105 1677.62 144.866C1678.67 144.642 1681.11 144.245 1683.06 143.983C1703.13 141.274 1718.61 129.54 1725.13 112.088C1726.01 109.738 1726.49 107.986 1727.83 102.324C1728.01 101.577 1728.11 108.6 1728.13 122.947L1728.16 144.703H1743.05H1757.94V143.994V143.286H1765.31H1772.68V100.907V58.5287H1787.57H1802.46V101.616V144.703H1817.2H1831.95V143.994V143.286H1839.18H1846.41V100.907V58.5287H1855.77H1865.13V57.82V57.1113H1872.36H1879.59V39.1111V21.1109H1805.29H1731V27.7724V34.4339H1729.58H1728.16V51.3476C1728.16 60.6499 1728.11 68.2074 1728.04 68.1419C1727.98 68.0764 1727.72 66.1678 1727.47 63.9007C1726.52 55.2339 1724.35 49.0396 1719.91 42.3577C1717.65 38.9521 1711.49 32.7552 1707.74 30.1127C1700.81 25.2314 1691.87 21.7535 1682.79 20.4054C1678.96 19.8373 1670.09 19.6136 1666.62 19.9977ZM2272.49 19.8682C2259.74 21.2019 2249.66 24.9505 2240.79 31.6463C2237.7 33.9821 2232.65 39.0729 2230.33 42.1825C2226.41 47.4462 2222.9 54.3104 2221.17 60.0877C2220.75 61.4909 2219.92 63.8508 2219.32 65.3319C2213.85 78.8743 2213.69 99.1519 2218.95 113.238C2222.84 123.634 2230.19 132.77 2239.03 138.194C2243.69 141.055 2249.84 143.51 2255.41 144.731C2263.39 146.483 2274.38 146.538 2282.21 144.866C2283.26 144.642 2285.71 144.246 2287.66 143.986C2303.48 141.879 2316.5 134.158 2324.62 122.081C2327.94 117.149 2330.84 110.137 2332.09 104.025L2332.61 101.474L2332.68 123.088L2332.75 144.703H2372.31H2411.87V143.994V143.286H2419.24H2426.62L2426.55 125.356L2426.47 107.427L2401.87 107.354L2377.27 107.282V104.449V101.616H2392.73H2408.18V100.907V100.198H2415.41H2422.65V82.1982V64.198H2399.96H2377.27V61.3634V58.5287H2394.71H2412.15V57.8291V57.1298L2419.53 57.0495L2426.9 56.9696L2426.97 100.765L2427.04 144.561L2442 144.635L2456.96 144.708V144.002V143.295L2464.26 143.22L2471.56 143.144L2471.71 125.245L2471.85 107.347L2484.7 126.025L2497.55 144.703H2510.01H2522.47V143.999V143.295L2529.77 143.22L2537.07 143.144L2537.21 123.234L2537.35 103.323L2537.87 105.927C2539.01 111.681 2541.8 118.594 2544.88 123.301C2549.97 131.089 2555.7 136.315 2563.4 140.171C2569.5 143.231 2575.71 145.023 2583.01 145.833C2588.52 146.443 2597.37 146.005 2602.65 144.86C2603.7 144.633 2605.77 144.304 2607.26 144.129C2628.31 141.645 2645.5 128.084 2651.92 108.888C2652.49 107.197 2653.2 104.563 2653.49 103.033C2654.08 100.024 2654.79 92.345 2654.51 92.0677C2654.42 91.9742 2645.04 91.8336 2633.66 91.7554L2612.97 91.6133L2612.78 93.0004C2611.86 99.481 2611.1 101.447 2608.64 103.727C2606.03 106.142 2601.95 107.272 2597.29 106.871C2592.87 106.491 2590.32 105.402 2587.66 102.765C2584.58 99.7058 2582.75 95.1873 2581.99 88.7296C2581.51 84.6593 2581.82 75.5396 2582.54 72.4186C2583.62 67.7504 2585.03 64.759 2587.36 62.1653C2589.29 60.0155 2590.88 59.0948 2592.64 59.0999C2596.42 59.1109 2600.84 60.975 2603.87 63.8321C2606.4 66.2095 2608.18 69.6029 2608.89 73.347L2609.36 75.8202H2624.47H2639.58V75.1115V74.4029H2647.14H2654.69L2654.49 71.3556C2653.7 59.1316 2651.09 50.6032 2645.63 42.4096C2637.52 30.2281 2624.24 22.5523 2607.26 20.2222C2603.73 19.7378 2593.15 19.7324 2589.67 20.2132C2571.51 22.723 2557.19 31.7429 2548.2 46.3396C2546.11 49.7304 2543.88 54.629 2542.21 59.5208C2541.36 62.0153 2540.15 65.5232 2539.52 67.3162C2538.89 69.1091 2538.15 71.715 2537.87 73.1071C2537.35 75.6379 2537.35 75.6362 2537.21 48.4454L2537.07 21.2526L2516.3 21.1801L2495.53 21.1072V27.7707V34.4339H2493.97H2492.41L2492.34 48.4128L2492.26 62.3915L2478.25 41.7513L2464.23 21.1109H2447.12H2430.02V27.7724V34.4339H2428.46H2426.91L2426.83 27.8433L2426.76 21.2526H2381.24H2335.73L2335.65 27.8433L2335.58 34.4339H2334.16H2332.75V51.3476C2332.75 60.6499 2332.7 68.208 2332.64 68.1431C2332.58 68.0781 2332.37 66.5579 2332.19 64.765C2331.47 57.7795 2330.04 52.5203 2327.45 47.3575C2320.37 33.2348 2305.38 23.117 2287.52 20.4059C2284.53 19.9527 2274.96 19.61 2272.49 19.8682ZM3167.04 19.8889C3161.74 20.2891 3154.1 21.9928 3149.44 23.8146C3132.98 30.2528 3121.58 42.4762 3115.62 60.0877C3114.77 62.5823 3113.57 66.0902 3112.94 67.8831C3112.3 69.676 3111.49 72.5462 3111.13 74.2611L3110.47 77.3793L3110.4 49.2434L3110.32 21.1072L3089.55 21.1801L3068.78 21.2526L3068.71 27.8433L3068.63 34.4339H3067.22H3065.8L3065.79 52.0798L3065.77 69.7257L3065.06 66.324C3060.14 42.4878 3042.94 26.2564 3018.34 22.2397C3012.34 21.2597 3006.08 21.0786 2981.3 21.1676L2957.62 21.2526L2957.54 27.8433L2957.47 34.4339H2956.05H2954.64V89.5865V144.739L2979.24 144.626C3004.53 144.509 3006.11 144.443 3011.15 143.303C3011.9 143.134 3014 142.801 3015.83 142.562C3033.78 140.215 3047.64 132.166 3056.47 118.972C3060.73 112.612 3063.47 105.847 3065.25 97.3638C3065.74 94.9829 3065.75 95.2505 3065.78 119.829L3065.8 144.703H3080.83H3095.86V143.994V143.286H3103.09H3110.33L3110.35 122.947C3110.36 108.439 3110.45 102.811 3110.66 103.317C3111.35 104.94 3111.43 105.197 3111.58 106.01C3111.67 106.477 3111.82 107.37 3111.91 107.994C3112.1 109.235 3113.29 113.087 3113.74 113.872C3113.89 114.143 3114.01 114.505 3114.01 114.676C3114.01 115.278 3117.4 121.74 3118.8 123.82C3126.94 135.873 3138.34 142.916 3153.86 145.464C3158.58 146.24 3169.64 146.159 3174.13 145.315C3175.92 144.978 3179.23 144.44 3181.47 144.12C3183.72 143.799 3187.23 143.113 3189.29 142.595C3208.74 137.698 3222.49 123.503 3226.56 104.12L3227.12 101.474L3227.14 123.091L3227.16 144.708L3242.12 144.635L3257.08 144.561L3257.17 143.923L3257.26 143.286H3264.47H3271.68V100.907V58.5287H3286.57H3301.46V101.616V144.703H3316.2H3330.95V143.999V143.295L3338.25 143.22L3345.55 143.144L3345.63 100.836L3345.7 58.5287H3354.91H3364.13V57.8248V57.121L3371.43 57.0453L3378.73 56.9696V39.1111V21.2526H3304.44H3230.14L3230.06 27.8433L3229.99 34.4339H3228.57H3227.16L3227.12 51.2294C3227.09 67.0041 3227.06 67.8182 3226.7 64.6232C3226.12 59.5716 3225.55 56.7723 3224.33 53.111C3218.29 34.9447 3200.32 21.9956 3178.38 19.9932C3175.34 19.7157 3169.99 19.6664 3167.04 19.8889ZM3770.36 20.0116C3761.17 20.8796 3751.72 24.0406 3744.02 28.8159C3735.76 33.9336 3728.37 42.1663 3723.74 51.3833C3722.58 53.7024 3720.9 57.9765 3719.99 60.9382C3719.56 62.3413 3718.74 64.7012 3718.16 66.1823C3715.5 73.0099 3714.3 80.4739 3714.32 89.9936C3714.34 101.441 3716.17 110.209 3720.21 118.199C3727.96 133.532 3740.59 142.539 3758.45 145.465C3763.18 146.242 3774.24 146.159 3778.72 145.313C3780.52 144.974 3783.39 144.506 3785.1 144.273C3793.2 143.171 3798.84 141.521 3804.95 138.469C3810.16 135.866 3813.56 133.417 3817.72 129.259C3821.81 125.166 3824.32 121.716 3826.77 116.781C3828.76 112.772 3829.97 109.356 3831.03 104.734L3831.71 101.758L3831.73 123.23L3831.75 144.703H3871.45H3911.15V143.994V143.286H3918.39H3925.62V125.285V107.285H3900.94H3876.27V104.45V101.616H3891.73H3907.18V100.912V100.208L3914.49 100.132L3921.79 100.057V82.1982V64.3398L3899.03 64.2672L3876.27 64.1946V61.3639V58.5329L3893.78 58.4601L3911.3 58.3869L3911.39 57.7491L3911.48 57.1113H3918.69H3925.9V39.1103V21.1092L3880.31 21.1809L3834.73 21.2526L3834.65 27.8433L3834.58 34.4339H3833.16H3831.75L3831.72 51.0876C3831.69 61.464 3831.59 66.9933 3831.45 65.7571C3830.84 60.6414 3830.53 58.7526 3829.88 56.1762C3827.55 46.9119 3822.18 38.716 3814.17 32.1582C3802.99 23.0073 3786.63 18.473 3770.36 20.0116ZM4092.08 19.8889C4087.06 20.2676 4080.15 21.726 4075.62 23.3665C4071.94 24.6962 4065.02 28.2747 4062.02 30.3965C4058.52 32.8726 4052.22 39.1769 4049.76 42.6545C4046 47.9927 4042.89 54.2477 4041.32 59.6625C4040.99 60.8318 4040.2 63.0347 4039.58 64.5578C4038.53 67.1685 4036.58 74.0817 4036.43 75.7615C4036.39 76.1836 4036.29 64.0917 4036.21 48.8908L4036.07 21.2526H4015.37H3994.67L3994.59 27.8433L3994.52 34.4339H3993.11H3991.7L3991.62 48.5347L3991.55 62.6356L3977.49 41.9441L3963.44 21.2526H3946.3H3929.16L3929.09 27.8433L3929.01 34.4339H3927.6H3926.18V89.571V144.708L3941.14 144.635L3956.1 144.561L3956.19 143.923L3956.28 143.286H3963.49H3970.7L3970.77 125.236L3970.85 107.186L3983.75 125.945L3996.65 144.704L4009.13 144.633L4021.61 144.561L4021.7 143.923L4021.79 143.286H4029H4036.21L4036.24 122.947L4036.26 102.608L4036.97 105.851C4041.47 126.618 4055.76 140.777 4076.45 144.979C4083.06 146.321 4092.87 146.447 4099.31 145.273C4101.02 144.96 4103.89 144.505 4105.67 144.262C4113.49 143.193 4118.74 141.667 4124.63 138.741C4133.41 134.385 4139.89 128.755 4145.15 120.922C4148.56 115.835 4151.46 108.93 4152.62 103.132C4153.06 100.953 4153.92 92.248 4153.72 92.0088C4153.67 91.9478 4144.28 91.8841 4132.85 91.8671L4112.08 91.8362L4111.61 94.8602C4111.05 98.439 4110.5 100.231 4109.41 101.942C4107.19 105.441 4102.18 107.342 4096.4 106.877C4089.26 106.302 4085.02 102.855 4082.56 95.6125C4081.25 91.7593 4080.9 88.9561 4080.91 82.1982C4080.92 76.8299 4081 75.5509 4081.55 73.0074C4082.83 67.0319 4085.14 62.7821 4088.44 60.3587C4089.95 59.2433 4090.33 59.0956 4091.64 59.0956C4092.45 59.0956 4094.1 59.347 4095.31 59.6546C4102.21 61.4181 4106.81 66.4845 4108.07 73.6942L4108.42 75.6785H4123.57H4138.73L4138.64 75.0407L4138.55 74.4029H4146.06C4150.2 74.4029 4153.64 74.3003 4153.72 74.1752C4153.92 73.8504 4153.12 65.3767 4152.61 62.4187C4150.13 48.0823 4142.99 36.9202 4131.34 29.1665C4120.86 22.185 4106.53 18.7984 4092.08 19.8889ZM400.487 21.607C400.345 21.88 399.371 24.7818 398.322 28.0559C397.273 31.3299 396.313 34.1363 396.19 34.2922C396.066 34.4481 387.85 59.1466 377.932 89.1775C368.015 119.209 359.821 143.987 359.723 144.241C359.56 144.664 360.893 144.703 375.735 144.703H391.924L392.1 144L392.277 143.296L398.661 143.22L405.045 143.144L407.571 134.782C408.96 130.182 410.295 125.749 410.536 124.931L410.975 123.443H422.818H434.661L437.874 134.073L441.088 144.703H457.235H473.383L473.205 143.994L473.027 143.286H478.563H484.098V143.995V144.705L521.318 144.633L558.537 144.561L558.628 143.923L558.719 143.286H565.93H573.142V125.285V107.285H550.882H528.621L528.55 64.2689L528.478 21.2526L507.706 21.1801L486.934 21.1072V27.7707V34.4339H485.516H484.098V79.2692C484.098 103.928 484.039 124.045 483.967 123.973C483.895 123.901 476.303 101.015 467.095 73.1145C457.888 45.2142 450.23 22.0994 450.076 21.7487L449.797 21.1109H425.271C402.201 21.1109 400.73 21.1404 400.487 21.607ZM638.224 21.393C637.833 22.0251 632.714 37.3355 615.573 89.1432C605.694 118.999 597.521 143.714 597.41 144.065L597.208 144.703H613.386H629.563L629.741 143.994L629.919 143.286H636.247H642.575L642.866 142.364C643.026 141.857 643.938 138.828 644.893 135.632C645.848 132.436 647.074 128.386 647.617 126.632L648.605 123.443H660.341C667.012 123.443 672.146 123.553 672.236 123.699C672.322 123.839 673.487 127.57 674.822 131.99C676.158 136.41 677.57 141.078 677.959 142.364L678.667 144.703H694.82H710.972L710.794 143.994L710.616 143.286H719.154C723.85 143.286 727.692 143.188 727.692 143.069C727.692 142.95 718.659 115.492 707.619 82.0525L687.546 21.2526L662.973 21.1801C646.725 21.1325 638.34 21.2045 638.224 21.393ZM1148.82 21.4636C1148.83 21.6594 1150.35 24.6259 1152.2 28.0559L1155.57 34.2922L1152.62 34.4339L1149.68 34.5756L1169.8 72.1351L1189.92 109.695L1189.99 127.128L1190.07 144.561L1204.89 144.635L1219.7 144.708V143.997V143.286H1227.08H1234.45V123.666V104.047L1256.57 62.7645C1268.73 40.059 1278.69 21.3984 1278.69 21.2966C1278.69 21.1945 1268.22 21.1109 1255.42 21.1109H1232.15L1231.72 21.8905C1231.49 22.3193 1227.4 30.7701 1222.65 40.6702C1217.89 50.5703 1213.91 58.7603 1213.8 58.8697C1213.69 58.9794 1209.51 50.5604 1204.51 40.1608L1195.42 21.2526L1172.12 21.1801C1153.56 21.1225 1148.81 21.1801 1148.82 21.4636ZM1897.58 27.7015C1896.38 31.3262 1895.3 34.4197 1895.19 34.5756C1894.95 34.8957 1858.89 144.046 1858.89 144.446C1858.89 144.597 1865.52 144.703 1874.92 144.703H1890.95L1891.22 143.994L1891.49 143.286H1897.74C1903.43 143.286 1904.02 143.241 1904.2 142.789C1904.3 142.517 1905.67 138.084 1907.23 132.939L1910.08 123.585H1921.95H1933.82L1936.99 134.073L1940.16 144.561L1956.27 144.634L1972.39 144.708L1972.25 143.996L1972.12 143.286H1977.61H1983.1V143.994V144.703H2020.39H2057.68V143.994V143.286H2064.91H2072.14V125.285V107.285H2049.88H2027.62V64.1963V21.1072L2006.85 21.1801L1986.08 21.2526L1986 27.8433L1985.92 34.4339H1984.51H1983.1L1983.07 79.151L1983.04 123.868L1973.73 95.8047C1968.61 80.3699 1960.96 57.2497 1956.73 44.4261L1949.03 21.1109H1924.4H1899.77L1897.58 27.7015ZM2137.28 21.3235C2137.21 21.4403 2136.3 24.1511 2135.24 27.3472C2134.19 30.5433 2133.15 33.541 2132.94 34.0087C2132.42 35.1701 2096.53 143.946 2096.53 144.367C2096.53 144.622 2100.4 144.703 2112.56 144.703H2128.59L2128.86 144L2129.12 143.296L2135.43 143.22L2141.74 143.144L2144.71 133.293L2147.68 123.443H2159.52H2171.36L2172.07 125.781C2172.46 127.068 2173.87 131.736 2175.21 136.156C2176.54 140.575 2177.71 144.306 2177.79 144.447C2177.88 144.594 2184.76 144.703 2193.99 144.703H2210.02L2209.84 143.994L2209.67 143.286H2218.18C2225.38 143.286 2226.69 143.223 2226.69 142.88C2226.69 142.412 2187.07 22.3593 2186.67 21.6078C2186.42 21.1401 2184.97 21.1109 2161.9 21.1109C2148.43 21.1109 2137.34 21.2067 2137.28 21.3235ZM2647.93 21.5846C2648.03 21.8451 2649.57 24.779 2651.36 28.1041C2653.15 31.4294 2654.61 34.2097 2654.61 34.2825C2654.61 34.3551 2653.3 34.4509 2651.7 34.4951L2648.79 34.5756L2669 72.2769L2689.2 109.978L2689.21 127.34L2689.21 144.703H2704.1H2718.99V143.994V143.286H2726.22H2733.45V123.775V104.264L2755.47 63.1835C2767.58 40.5894 2777.55 21.8791 2777.62 21.6053C2777.75 21.1333 2776.56 21.1112 2754.44 21.1801L2731.12 21.2526L2722.02 40.1775C2717.02 50.5865 2712.83 59.0055 2712.72 58.8864C2712.61 58.7676 2708.54 50.379 2703.67 40.245C2698.81 30.111 2694.7 21.6603 2694.54 21.4653C2694.31 21.1869 2689.25 21.1109 2671 21.1109C2649.39 21.1109 2647.76 21.1444 2647.93 21.5846ZM3398.87 21.393C3398.48 22.0208 3393.39 37.2587 3376.18 89.2849C3366.27 119.219 3358.1 143.934 3358.01 144.207C3357.86 144.675 3358.75 144.703 3374.03 144.703H3390.21L3390.39 143.994L3390.56 143.286H3396.89H3403.22L3403.51 142.364C3403.67 141.857 3404.64 138.637 3405.68 135.207C3406.71 131.777 3407.94 127.727 3408.4 126.207L3409.24 123.443H3421.07H3432.91L3435.53 132.159C3436.98 136.953 3438.42 141.737 3438.73 142.789L3439.3 144.703H3455.46H3471.62L3471.44 143.994L3471.26 143.286H3476.66C3482.04 143.286 3482.06 143.288 3482.15 143.923L3482.24 144.561L3519.46 144.633L3556.68 144.705V143.995V143.286H3564.05H3571.43V125.285V107.285H3549.17H3526.91L3526.83 64.2689L3526.76 21.2526L3505.99 21.1801L3485.22 21.1072V27.7707V34.4339H3483.66H3482.1L3482.03 78.9701L3481.96 123.507L3465.08 72.3795L3448.2 21.2526L3423.62 21.1801C3407.37 21.1325 3398.99 21.2045 3398.87 21.393ZM3634.15 27.8419C3627.58 47.5168 3595.54 144.309 3595.54 144.49C3595.53 144.607 3602.79 144.703 3611.66 144.703H3627.8L3627.97 143.994L3628.15 143.286H3634.48H3640.81L3643.79 133.435L3646.76 123.585H3658.64H3670.52L3673.69 134.073L3676.86 144.561L3693.01 144.634L3709.17 144.707L3709.03 143.996L3708.9 143.286H3717.44C3722.13 143.286 3725.97 143.19 3725.97 143.073C3725.96 142.956 3716.92 115.499 3705.87 82.0565L3685.78 21.2526L3661.09 21.1804L3636.4 21.1078L3634.15 27.8419ZM4147.1 21.4636C4147.1 21.6594 4148.61 24.6259 4150.45 28.0559L4153.79 34.2922L4150.87 34.3727C4149.26 34.4169 4147.94 34.4954 4147.94 34.547C4147.94 34.5989 4157 51.5486 4168.08 72.2131L4188.21 109.785V127.244V144.703H4203.1H4217.99V143.999V143.295L4225.29 143.22L4232.59 143.144L4232.66 123.549L4232.74 103.955L4251.45 69.0241L4270.17 34.0932L4277 21.1109H4270.17H4250.23H4230.3L4221.28 39.8907C4216.32 50.2197 4212.17 58.7668 4212.06 58.8847C4211.95 59.0026 4207.77 50.5836 4202.76 40.1758L4193.67 21.2526L4170.38 21.1801C4151.84 21.1225 4147.09 21.1801 4147.1 21.4636ZM-135.785 22.7409C-135.906 23.1697 -143.897 52.8273 -153.541 88.6471L-171.076 153.774H-174.426C-176.269 153.774 -177.776 153.7 -177.776 153.611C-177.776 153.479 -144.907 31.2242 -144.42 29.5441C-144.285 29.0789 -144.849 29.048 -153.493 29.048H-162.711L-162.151 26.9929C-161.843 25.8627 -161.401 24.2682 -161.169 23.4495L-160.746 21.9613H-148.154H-135.563L-135.785 22.7409ZM-73.2408 22.5991C-75.4519 31.0626 -108.54 153.541 -108.643 153.645C-108.724 153.726 -110.26 153.756 -112.055 153.712L-115.319 153.632L-98.6291 91.6944C-89.4499 57.6287 -81.9368 29.5974 -81.9331 29.4024C-81.928 29.1263 -83.9269 29.048 -91.0011 29.048C-95.9921 29.048 -100.076 28.9678 -100.076 28.87C-100.076 28.7719 -99.673 27.1774 -99.1804 25.3266L-98.2854 21.9613H-85.6797H-73.0741L-73.2408 22.5991ZM1363.37 22.5991C1360.41 33.8497 1328.07 153.541 1327.97 153.644C1327.89 153.726 1326.35 153.756 1324.56 153.712L1321.29 153.632L1337.98 91.6944C1347.16 57.6287 1354.68 29.5974 1354.68 29.4024C1354.68 29.1263 1352.69 29.048 1345.61 29.048C1340.62 29.048 1336.54 28.9678 1336.54 28.87C1336.54 28.7719 1336.94 27.1774 1337.43 25.3266L1338.33 21.9613H1350.93H1363.54L1363.37 22.5991ZM1425.8 22.6368C1425.73 23.0085 1417.77 52.6657 1408.12 88.5423L1390.56 153.772L1387.23 153.773C1385.39 153.773 1383.89 153.665 1383.89 153.531C1383.89 153.398 1391.35 125.598 1400.47 91.7548C1409.58 57.911 1417.08 29.9886 1417.13 29.7051C1417.21 29.217 1416.73 29.1858 1408.04 29.1149C1400.39 29.0526 1398.89 28.9752 1399.02 28.6497C1399.1 28.4352 1399.51 26.9382 1399.93 25.323C1400.36 23.708 1400.76 22.2907 1400.82 22.1739C1400.89 22.0571 1406.57 21.9613 1413.44 21.9613H1425.93L1425.8 22.6368ZM2862.42 22.6329C2862.34 23.0022 2854.39 52.6598 2844.73 88.538L2827.17 153.772L2823.84 153.773C2822.01 153.773 2820.51 153.666 2820.51 153.535C2820.51 153.403 2827.97 125.578 2837.09 91.7015C2846.22 57.8248 2853.71 29.901 2853.75 29.6487C2853.82 29.2348 2852.92 29.1824 2844.65 29.1149C2837 29.0526 2835.5 28.9752 2835.63 28.6497C2835.71 28.4352 2836.12 26.9382 2836.55 25.323C2836.97 23.708 2837.37 22.2907 2837.43 22.1739C2837.5 22.0571 2843.18 21.9613 2850.05 21.9613H2862.54L2862.42 22.6329ZM2925.03 22.4574C2924.92 22.8415 2891.18 148.124 2889.96 152.711L2889.68 153.774H2886.27C2883.15 153.774 2882.87 153.731 2883.01 153.278C2883.21 152.638 2915.98 30.8605 2916.23 29.8276L2916.42 29.048H2907.31C2900.48 29.048 2898.21 28.9641 2898.21 28.7118C2898.21 28.5267 2898.46 27.4745 2898.76 26.3732C2899.06 25.2719 2899.45 23.8288 2899.62 23.1661L2899.93 21.9613H2912.56C2924.45 21.9613 2925.18 21.9899 2925.03 22.4574ZM180.892 25.9455C196.381 27.6284 209.98 35.6996 217.052 47.4071C219.622 51.6619 221.675 57.3492 222.217 61.7177L222.419 63.3476L217.353 63.3448L212.287 63.3422L211.333 60.7964C209.37 55.5576 206.195 50.8889 201.56 46.4263C193.407 38.5765 182.538 34.0127 169.608 33.0092C158.264 32.1285 146.273 34.7412 136.997 40.1146L135.437 41.018L136.855 39.5451C138.463 37.8744 142.521 34.7627 145.131 33.1988C151.04 29.6578 159.652 26.765 166.631 25.9766C169.867 25.6113 177.657 25.5942 180.892 25.9455ZM785.483 25.9523C804.308 28.042 819.481 38.964 825.037 54.4243C825.805 56.5637 826.945 61.4665 826.945 62.6341V63.3476H821.893H816.84L816.334 61.7424C815.529 59.19 812.929 54.3458 810.954 51.7186C807.031 46.4986 800.504 41.1578 794.525 38.2732C786.083 34.2003 775.582 32.2742 765.786 33.001C757.7 33.6011 751.114 35.3821 744.198 38.8393C740.338 40.7688 740.189 40.819 741.078 39.8884C747.698 32.9675 760.132 27.2293 771.222 25.9766C774.482 25.6084 782.267 25.5951 785.483 25.9523ZM1107.27 26.0716C1116.17 27.0992 1124.81 30.2763 1131.29 34.9124C1134.1 36.9233 1138.54 41.2541 1140.51 43.9131C1145.09 50.1085 1148.08 57.9966 1149.04 66.3949L1149.27 68.4501H1144.37H1139.47L1139.17 67.2453C1139.01 66.5826 1138.49 64.8469 1138.03 63.3879C1133.53 49.3287 1121.71 38.7177 1106.13 34.7426C1096.51 32.29 1085.29 32.2265 1075.93 34.5714C1071.76 35.6145 1068.48 36.8615 1064.3 38.9821L1060.47 40.9262L1062.74 38.786C1069.86 32.0686 1080.85 27.2233 1091.81 25.9642C1095.33 25.5602 1103.31 25.6155 1107.27 26.0716ZM1681 26.0764C1696.36 28.0505 1709.48 36.0894 1716.37 47.7453C1718.86 51.9562 1720.69 57.104 1721.31 61.6355L1721.55 63.3601L1716.47 63.283L1711.4 63.2059L1710.33 60.5129C1705.06 47.1389 1692.36 37.2898 1676.16 34.0107C1671.09 32.9854 1665.24 32.6189 1660.15 33.0081C1652.04 33.6286 1645.45 35.4178 1638.59 38.8682C1633.92 41.2113 1633.96 40.9508 1638.9 36.9701C1646.06 31.1896 1655.06 27.445 1665.06 26.0895C1668.99 25.5574 1676.91 25.5509 1681 26.0764ZM2285.59 26.0764C2296.93 27.534 2306.7 32.0519 2314.18 39.2951C2321.04 45.9365 2324.4 52.471 2326.06 62.4326L2326.22 63.3604L2321.09 63.283L2315.96 63.2059L2315.18 61.0799C2313.33 56.0152 2310.31 51.3986 2306.11 47.1993C2298.65 39.7529 2289.22 35.195 2277.6 33.4279C2273.76 32.8445 2265.37 32.762 2261.57 33.2706C2253.86 34.3032 2246.89 36.6056 2240.57 40.2056L2238.74 41.2422L2240.87 39.2472C2248.19 32.3793 2258.76 27.5275 2269.51 26.0999C2273.59 25.5585 2281.47 25.5469 2285.59 26.0764ZM2605.41 25.9316C2617.42 27.2505 2627.46 31.6157 2634.95 38.7704C2642.59 46.0697 2646.7 54.7931 2648.24 66.9618L2648.43 68.4501H2643.51H2638.59L2637.97 66.0723C2635.55 56.7057 2629.96 48.4114 2622.14 42.5876C2617.72 39.2883 2611.09 36.1931 2605.32 34.7355C2599.16 33.1781 2591.63 32.5262 2585.26 32.9993C2577.18 33.5982 2570.6 35.3804 2563.64 38.8495L2559.47 40.9253L2561.32 39.2359C2569.18 32.025 2578.88 27.5967 2590.1 26.0863C2593.51 25.6277 2601.88 25.5429 2605.41 25.9316ZM3182.8 26.4617C3193.52 28.478 3202.04 32.7257 3209.02 39.5363C3215.29 45.6496 3219.5 53.8319 3220.5 61.8594L3220.69 63.3476H3215.61H3210.52L3210.16 62.1429C3209.97 61.4801 3209.25 59.7762 3208.57 58.3563C3202.21 45.0535 3188.66 35.8212 3171.95 33.4072C3167.49 32.7631 3159.24 32.7691 3154.99 33.4197C3147.82 34.5155 3140.79 36.8763 3135.55 39.9482C3134.58 40.5143 3133.75 40.931 3133.69 40.8743C3133.52 40.7036 3138.28 36.6708 3140.68 34.9572C3147.03 30.4192 3156.17 27.0408 3165.06 25.9466C3168.8 25.4854 3179.22 25.7879 3182.8 26.4617ZM3783.77 25.9455C3792.47 26.8911 3801.61 30.253 3808.21 34.9373C3813.6 38.7633 3818.64 44.5435 3821.44 50.1037C3822.64 52.4883 3824.18 57.0544 3824.78 60.005C3825.54 63.6926 3826.01 63.3476 3820.16 63.3476H3815.09L3814.32 61.1508C3811.07 51.9993 3802.76 43.1452 3792.9 38.3409C3785.26 34.6153 3777.28 32.8944 3767.8 32.9278C3757.46 32.9644 3748.02 35.3923 3739.87 40.1152L3738.31 41.0191L3739.59 39.6832C3746.11 32.8544 3758.43 27.2293 3769.65 25.9605C3772.76 25.6087 3780.59 25.6005 3783.77 25.9455ZM4105.41 26.058C4125.36 28.4678 4139.64 39.4847 4145.22 56.7774C4146.24 59.9253 4147.38 65.5811 4147.38 67.486V68.4501H4142.57H4137.76L4137.45 67.2453C4134.58 56.1161 4128.62 47.4987 4119.62 41.4747C4114.76 38.2261 4110.26 36.2609 4104.08 34.6955C4095.49 32.5196 4085.37 32.2827 4076.34 34.0458C4071.65 34.9614 4065.18 37.3715 4060.82 39.8317L4058.76 40.9934L4060.17 39.5307C4064.18 35.4011 4072.49 30.4781 4079.03 28.3666C4082.31 27.3087 4086.8 26.3304 4090.09 25.9596C4093.49 25.5761 4101.86 25.63 4105.41 26.058ZM17.7516 27.7446C26.1897 29.0783 33.2149 31.5332 39.3036 35.2764C50.2441 42.0019 58.0771 53.4095 60.9739 66.8357C62.3353 73.1468 62.8296 83.2763 62.1192 90.3179C60.768 103.709 55.4512 115.355 47.0555 123.312C44.8997 125.355 41.1103 128.32 40.91 128.119C40.8474 128.057 41.3706 127.33 42.0724 126.504C45.4312 122.552 48.6019 116.735 50.501 111.041C52.802 104.143 53.6958 98.202 53.71 89.7101C53.7205 83.4685 53.4213 80.2293 52.3287 74.7555C48.3339 54.7404 34.3452 40.5458 14.1552 36.0191C7.67314 34.566 5.19154 34.4339 -15.6382 34.4339H-34.8524V30.7318V27.03L-10.1101 27.1408C11.6504 27.2381 15.0082 27.3109 17.7516 27.7446ZM106.37 82.1982V137.333H101.975H97.5791V85.8833V34.4339H86.9449H76.3107V30.7488V27.0637H91.3404H106.37V82.1982ZM267.727 82.1982V137.333H263.331H258.936V85.8833V34.4339H248.302H237.667V30.7488V27.0637H252.697H267.727V82.1982ZM374.636 39.1111V51.1585H370.241H365.845V42.7962V34.4339H322.316H278.786V30.7488V27.0637H326.711H374.636V39.1111ZM463.776 81.7691C473.713 111.857 481.919 136.67 482.011 136.91C482.158 137.294 481.515 137.336 476.562 137.268L470.947 137.191L462.895 112.813C458.467 99.4047 450.828 76.2845 445.92 61.4342L436.995 34.4339H419.681C405.947 34.4339 402.394 34.3605 402.499 34.0796C402.572 33.8848 403.124 32.2265 403.725 30.3945L404.819 27.0637H425.263H445.708L463.776 81.7691ZM522.665 70.1509V113.238H544.926H567.186V125.285V137.333H562.933H558.679V128.972V120.612L536.347 120.539L514.015 120.466L513.944 77.4502L513.872 34.4339H503.38H492.889V30.7488V27.0637H507.777H522.665V70.1509ZM696.903 68.2389C704.378 90.8837 712.563 115.693 715.09 123.372L719.685 137.333L714.118 137.329L708.551 137.326L697.683 104.376C691.705 86.2538 684.064 63.103 680.702 52.9302L674.589 34.4339H657.328C647.834 34.4339 640.066 34.3384 640.066 34.2216C640.066 34.1051 640.587 32.4468 641.224 30.5365L642.382 27.0637L662.847 27.0652L683.312 27.0666L696.903 68.2389ZM921.944 39.1111V51.1585H917.549H913.153V42.7962V34.4339H877.706H842.258V30.7488V27.0637H882.101H921.944V39.1111ZM977.744 50.0955L993.396 73.1273L993.401 82.5526C993.406 91.3474 993.373 91.977 992.91 91.9634C992.575 91.9538 986.077 82.607 972.955 63.2623L953.497 34.5756L945.094 34.5005L936.69 34.4254V30.7446V27.0637H949.391H962.092L977.744 50.0955ZM1031.97 82.1982V137.333H1027.72H1023.47V85.8833V34.4339H1012.83H1002.2V30.7488V27.0637H1017.09H1031.97V82.1982ZM1201.32 47.0482C1206.58 57.9617 1210.89 67.0517 1210.9 67.2481C1210.91 67.4446 1209.67 70.2186 1208.15 73.4127C1206.35 77.1868 1205.23 79.2181 1204.96 79.2142C1204.67 79.2102 1200.9 71.6524 1193.78 56.8211L1183.03 34.4339H1172.65H1162.27L1160.43 30.9677C1159.42 29.0613 1158.55 27.4019 1158.5 27.2803C1158.44 27.1587 1165.91 27.0921 1175.08 27.1323L1191.76 27.2055L1201.32 47.0482ZM1267.67 29.6858C1266.9 31.1278 1257.76 48.1696 1247.38 67.556L1228.49 102.804V120.068V137.333H1224.1H1219.7V123.757V110.181L1239.96 72.3783L1260.21 34.5756L1246.2 34.4339L1232.19 34.2922L1233.94 30.678L1235.68 27.0637H1252.38H1269.08L1267.67 29.6858ZM1512.92 27.3614C1519.7 27.9762 1525.66 29.3457 1530.92 31.4975C1547.85 38.4288 1558.34 52.6062 1561.04 72.2352C1561.63 76.4759 1561.7 87.128 1561.17 91.2692C1559.94 100.841 1557.05 108.955 1552.32 116.083C1550.27 119.162 1544.2 125.407 1541.34 127.375L1539.55 128.604L1541.65 125.919C1544.24 122.603 1545.39 120.724 1547.36 116.598C1549.82 111.431 1551.48 105.627 1552.39 99.0646C1552.95 94.992 1552.87 83.3006 1552.26 79.2054C1550.4 66.7552 1546.03 57.3826 1538.49 49.6451C1531 41.9631 1521.4 37.2584 1508.81 35.1023C1506.36 34.6814 1503.2 34.6023 1485.2 34.5099L1464.43 34.4036V30.7335V27.0637L1487.05 27.0646C1500.47 27.0652 1510.99 27.1859 1512.92 27.3614ZM1605.37 82.1982V137.333H1601.12H1596.86V85.8833V34.4339H1586.23H1575.59V30.7488V27.0637H1590.48H1605.37V82.1982ZM1766.73 82.1982V137.333H1762.33H1757.94V85.8833V34.4339H1747.44H1736.95V30.7488V27.0637H1751.84H1766.73V82.1982ZM1873.92 39.1111V51.1585H1869.52H1865.13V42.7962V34.4339H1821.6H1778.07V30.7488V27.0637H1826H1873.92V39.1111ZM1962.99 82.0565C1972.95 112.225 1981.11 137.003 1981.11 137.12C1981.11 137.237 1978.64 137.333 1975.61 137.333H1970.11L1963.25 116.569C1959.48 105.148 1951.84 81.9992 1946.28 65.1258L1936.17 34.4469L1918.94 34.4404C1904.97 34.435 1901.71 34.3639 1901.71 34.0643C1901.71 33.7726 1903.18 29.1628 1903.83 27.4161C1903.94 27.1338 1908.2 27.0751 1924.42 27.1326L1944.88 27.2055L1962.99 82.0565ZM2021.73 70.08L2021.81 113.096L2044.14 113.169L2066.47 113.241V125.287V137.333H2062.07H2057.68V128.97V120.608H2035.42H2013.16V77.521V34.4339H2002.52H1991.89V30.7488V27.0637H2006.78H2021.66L2021.73 70.08ZM2184.83 34.363C2187.91 43.6452 2218.33 135.839 2218.6 136.701L2218.79 137.345L2213.22 137.268L2207.65 137.191L2190.71 85.8833L2173.76 34.5756L2156.38 34.5025C2142.68 34.445 2139.04 34.3551 2139.14 34.0773C2139.21 33.8837 2139.76 32.2265 2140.37 30.3945L2141.46 27.0637H2161.93H2182.41L2184.83 34.363ZM2420.94 39.1111V51.1585H2416.55H2412.15V42.7962V34.4339H2376.85H2341.54V30.7488V27.0637H2381.24H2420.94V39.1111ZM2476.85 50.0924L2492.41 72.9793V82.4786C2492.41 90.4267 2492.34 91.9779 2492.01 91.9779C2491.79 91.9779 2482.83 79.0353 2472.09 63.2167L2452.56 34.4552L2444.2 34.3738L2435.83 34.2922L2435.75 30.6751L2435.67 27.0581L2448.49 27.1318L2461.3 27.2055L2476.85 50.0924ZM2531.26 82.1982V137.333H2526.86H2522.47V85.8867V34.4407L2511.9 34.3664L2501.34 34.2922L2501.26 30.678L2501.18 27.0637H2516.22H2531.26V82.1982ZM2700.5 47.2019L2710.18 67.3403L2707.35 73.21C2705.44 77.1879 2704.38 79.0801 2704.07 79.0801C2703.76 79.0801 2700.43 72.4455 2692.92 56.8279L2682.22 34.5756L2671.84 34.5014L2661.46 34.4268L2660.26 32.2336C2659.61 31.0272 2658.7 29.3706 2658.24 28.5519L2657.41 27.0637H2674.11H2690.82L2700.5 47.2019ZM2768.05 27.2055C2768.05 27.2834 2758.99 44.2572 2747.91 64.9246L2727.78 102.502V119.917V137.333H2723.38H2718.99V123.592V109.851L2739.12 72.2868C2750.19 51.6262 2759.25 34.6573 2759.25 34.5779C2759.25 34.4988 2753 34.4339 2745.36 34.4339C2736.14 34.4339 2731.46 34.337 2731.46 34.1462C2731.46 33.9877 2732.23 32.3294 2733.17 30.4611L2734.87 27.0637H2751.46C2760.58 27.0637 2768.05 27.1275 2768.05 27.2055ZM3015.76 27.7089C3028.99 29.8369 3038.08 34.1601 3045.97 42.0634C3054.41 50.5244 3059.18 61.4118 3060.44 75.0767C3060.86 79.5892 3060.63 89.3082 3060.01 93.2535C3058.14 105.221 3053.52 114.977 3046.24 122.324C3043.82 124.767 3039.57 128.262 3039.03 128.262C3038.91 128.262 3039.35 127.656 3040 126.915C3043.28 123.203 3047.06 116.283 3048.92 110.586C3051.03 104.157 3051.91 97.9639 3051.91 89.5684C3051.91 86.516 3051.77 82.7796 3051.61 81.2659C3048.75 54.9853 3031.82 37.9376 3005.53 34.8625C3002.6 34.5204 2997.99 34.4339 2982.65 34.4339H2963.43V30.7318V27.03L2988.17 27.1403C3009.22 27.2341 3013.34 27.3189 3015.76 27.7089ZM3104.65 82.1982V137.333H3100.26H3095.86V85.8833V34.4339H3085.23H3074.59V30.7488V27.0637H3089.62H3104.65V82.1982ZM3265.73 82.1982V137.333H3261.47H3257.22V85.8833V34.4339H3246.59H3235.95V30.7488V27.0637H3250.84H3265.73V82.1982ZM3372.92 39.1111V51.1585H3368.52H3364.13V42.7962V34.4339H3320.6H3277.07V30.7488V27.0637H3325H3372.92V39.1111ZM3458.4 70.7889C3466.34 94.8375 3474.52 119.648 3476.58 125.923L3480.33 137.333L3474.76 137.328L3469.2 137.323L3458.75 105.651C3453.01 88.2304 3445.37 65.0805 3441.78 54.2058L3435.25 34.4339H3417.98C3408.48 34.4339 3400.71 34.3384 3400.71 34.2216C3400.71 34.1051 3401.23 32.4468 3401.87 30.5365L3403.03 27.0637L3423.49 27.064H3443.96L3458.4 70.7889ZM3520.95 70.1509V113.238H3543.21H3565.47V125.285V137.333H3561.08H3556.68V128.97V120.608H3534.42H3512.16V77.5244V34.4407L3501.59 34.3664L3491.03 34.2922L3490.95 30.678L3490.87 27.0637H3505.91H3520.95V70.1509ZM3699.76 82.2691L3717.95 137.333H3712.38H3706.81L3689.82 85.8833L3672.83 34.4339H3655.59C3646.11 34.4339 3638.35 34.3582 3638.35 34.2658C3638.35 34.0444 3640.38 27.5513 3640.53 27.2744C3640.6 27.1564 3649.86 27.0927 3661.11 27.1326L3681.57 27.2055L3699.76 82.2691ZM3919.94 39.1111V51.1585H3915.69H3911.44V42.7962V34.4339H3875.99H3840.54V30.7488V27.0637H3880.24H3919.94V39.1111ZM3976.02 50.1528L3991.69 73.2313V82.6047C3991.69 91.3449 3991.66 91.9776 3991.19 91.9719C3990.86 91.968 3984.49 82.8168 3971.17 63.1999L3951.64 34.4339H3943.31H3934.97V30.7488V27.0637L3947.66 27.0691L3960.35 27.0742L3976.02 50.1528ZM4030.26 82.1982V137.333H4026H4021.75V85.8833V34.4339H4011.12H4000.48V30.7488V27.0637H4015.37H4030.26V82.1982ZM4199.6 47.1599C4204.88 58.1349 4209.2 67.2172 4209.2 67.3428C4209.2 67.9908 4203.51 79.2218 4203.18 79.2218C4202.96 79.2218 4198.4 70.0553 4192.04 56.8279L4181.28 34.4339H4170.91H4160.54L4158.64 30.9127C4157.59 28.976 4156.73 27.3169 4156.73 27.2253C4156.73 27.134 4164.22 27.0921 4173.37 27.1323L4190 27.2055L4199.6 47.1599ZM4266.53 28.5519C4266.07 29.3706 4256.94 46.3903 4246.24 66.3736L4226.78 102.707V120.02V137.333H4222.38H4217.99L4218 123.655L4218.01 109.978L4238.23 72.2769L4258.45 34.5756L4244.46 34.5022C4236.76 34.4617 4230.46 34.3809 4230.46 34.3228C4230.46 34.2647 4231.24 32.6075 4232.19 30.6403L4233.92 27.0637H4250.65H4267.37L4266.53 28.5519ZM341.457 97.9307V137.333H337.062H332.666V97.9307V58.5287H337.062H341.457V97.9307ZM872.318 64.3398V70.1509H895.004H917.691V82.1982V94.2456H913.295H908.9V85.8833V77.521H886.213H863.527V68.0248V58.5287H867.922H872.318V64.3398ZM1840.74 97.9307V137.333H1836.35H1831.95V97.9307V58.5287H1836.35H1840.74V97.9307ZM2371.32 64.3398V70.1509H2394H2416.69V82.1982V94.2456H2412.44H2408.18V85.885V77.5244L2385.43 77.4519L2362.67 77.3793L2362.59 67.954L2362.52 58.5287H2366.92H2371.32V64.3398ZM3339.74 97.9307V137.333H3335.35H3330.95V97.9307V58.5287H3335.35H3339.74V97.9307ZM3870.6 64.3398V70.1509H3893.29H3915.97V82.1982V94.2456H3911.58H3907.18V85.8833V77.521H3884.5H3861.81V68.0248V58.5287H3866.21H3870.6V64.3398ZM172.672 59.8139C176.833 61.0141 180.483 64.0007 182.222 67.6277L183.228 69.7257L176.135 69.8013L169.041 69.877V76.3772V82.8771L167.552 82.963L166.064 83.0486V93.6787V104.309L175.705 104.45L185.347 104.592L183.87 105.233C181.047 106.457 179.048 106.811 174.854 106.828C171.802 106.84 170.491 106.726 169.183 106.331C164.78 105.003 161.849 102.424 159.794 98.0724C157.667 93.5693 156.847 89.0848 156.847 81.9587C156.847 75.1246 157.897 69.8297 160.056 65.769C161.186 63.6453 163.911 60.7006 165.685 59.6881C166.941 58.9715 167.173 58.9329 169.045 59.133C170.152 59.2512 171.784 59.5577 172.672 59.8139ZM777.584 59.9225C782.074 61.2894 785.729 64.5654 787.335 68.6627L787.807 69.8674H780.719H773.632V76.3871V82.9069H772.214H770.796V93.6787V104.45L780.367 104.464L789.938 104.477L788.596 105.175C786.329 106.355 783.814 106.809 779.446 106.826C775.032 106.844 773.345 106.493 770.43 104.947C767.386 103.332 764.653 99.6193 763.173 95.0878C762.087 91.7656 761.701 89.0959 761.533 83.7573C761.21 73.5145 763.063 66.6475 767.374 62.1103C768.242 61.1961 769.554 60.1036 770.289 59.683C771.537 58.9689 771.761 58.9326 773.674 59.137C774.801 59.2572 776.56 59.6107 777.584 59.9225ZM1672.48 60.094C1673.65 60.4863 1675.27 61.2324 1676.07 61.752C1678.71 63.4522 1681.25 66.6251 1682.06 69.2296L1682.26 69.8674H1675.15H1668.04V76.3871V82.9069H1666.62H1665.21V93.675V104.443L1674.78 104.518L1684.35 104.592L1682.99 105.235C1681.04 106.161 1678.53 106.685 1675.13 106.878C1662.81 107.576 1656.65 100.285 1655.95 84.1825C1655.44 72.5938 1658.53 63.7346 1664.38 59.9494L1665.99 58.9128L1668.17 59.1466C1669.37 59.2753 1671.31 59.7017 1672.48 60.094ZM2277.07 60.0761C2280.93 61.2999 2283.96 63.8142 2285.8 67.3179C2286.36 68.3761 2286.81 69.3824 2286.81 69.5544C2286.81 69.7744 2284.7 69.8674 2279.72 69.8674H2272.63V76.3871V82.9069H2271.21H2269.8V93.675V104.443L2279.37 104.518L2288.94 104.592L2287.58 105.235C2282.88 107.468 2274.63 107.489 2270.14 105.28C2264.74 102.623 2261.47 96.0136 2260.67 86.0988C2259.68 73.9037 2262.85 63.9046 2268.98 59.9494C2270.58 58.9131 2270.58 58.9128 2272.71 59.141C2273.88 59.2665 2275.84 59.6872 2277.07 60.0761ZM3169.68 59.5483C3174.43 60.6011 3178.46 63.5347 3180.32 67.2907C3180.82 68.2899 3181.22 69.2786 3181.22 69.4875C3181.22 69.7948 3179.89 69.8674 3174.27 69.8674H3167.33V76.3724V82.8771L3165.84 82.963L3164.35 83.0486V93.6787V104.309L3173.85 104.45C3181.97 104.572 3183.25 104.647 3182.68 104.971C3179.38 106.853 3171.91 107.501 3167.35 106.3C3163.85 105.376 3160.81 103.054 3158.85 99.7886C3157.51 97.5778 3156.07 93.1874 3155.56 89.83C3155 86.1444 3155 77.9286 3155.55 74.5282C3156.44 69.0703 3158.31 64.8188 3161.09 61.968C3163.94 59.0537 3165.48 58.618 3169.68 59.5483ZM3775.78 59.9021C3779.96 61.1947 3783.37 64.0268 3785.1 67.6277L3786.1 69.7257L3779.01 69.8013L3771.92 69.877V76.3772V82.8771L3770.43 82.963L3768.94 83.0486V93.6787V104.309L3778.44 104.45L3787.94 104.592L3786.63 105.226C3784.14 106.435 3781.98 106.816 3777.59 106.821C3773.84 106.826 3773.28 106.758 3771.25 106.054C3767.39 104.719 3764.82 102.429 3762.89 98.602C3760.65 94.1303 3759.73 89.3589 3759.72 82.1478C3759.72 75.0636 3760.51 70.7215 3762.57 66.5395C3763.84 63.9639 3766.18 61.2018 3768.23 59.872C3769.44 59.0848 3769.62 59.052 3771.77 59.2042C3773.02 59.2921 3774.83 59.6061 3775.78 59.9021ZM-4.86247 85.8125L-4.79016 111.821H2.95694C11.1152 111.821 14.2499 111.51 17.5513 110.375C18.4146 110.078 19.1587 109.873 19.2055 109.919C19.252 109.966 18.7217 110.728 18.0272 111.612C14.8375 115.675 9.91343 118.042 2.87102 118.899C1.54954 119.059 -2.69366 119.191 -6.558 119.191H-13.584V89.4193V59.6478L-9.25937 59.726L-4.93478 59.8043L-4.86247 85.8125ZM1494.21 85.7416V111.821L1501.93 111.819C1510.02 111.818 1513.05 111.533 1516.56 110.44L1518.31 109.897L1517.81 110.744C1516.83 112.423 1513.61 115.136 1511.17 116.334C1506.56 118.601 1502.72 119.191 1492.58 119.191H1485.42V89.6157C1485.42 73.3492 1485.5 59.9554 1485.61 59.8516C1485.71 59.7476 1487.69 59.6625 1490 59.6625H1494.21V85.7416ZM2993.21 85.7416V111.821H3001.11C3009.36 111.821 3011.91 111.577 3015.56 110.44C3016.53 110.141 3017.31 109.978 3017.31 110.079C3017.31 110.179 3016.74 110.991 3016.04 111.882C3013.77 114.773 3009.96 116.994 3005.26 118.17C3002.18 118.939 2998.85 119.191 2991.73 119.191H2984.7V89.4267V59.6625H2988.95H2993.21V85.7416ZM7.08104 60.9622C13.4939 62.5774 17.4754 65.6449 20.1285 71.0146C21.7934 74.3842 22.7859 77.9652 23.2507 82.2802C23.8772 88.0958 23.4787 98.4302 22.5588 100.22C21.963 101.379 19.9552 103.027 18.07 103.904C14.6909 105.476 10.6459 106.137 4.35243 106.146L0.878586 106.151V83.0209V59.8905L2.65096 60.0917C3.6259 60.2023 5.61919 60.5943 7.08104 60.9622ZM1503.46 60.3786C1512.64 61.9564 1518.17 66.4967 1520.83 74.6475C1522.35 79.3049 1523.03 86.8644 1522.56 93.9622C1522.17 99.7571 1522.06 100.098 1520.04 101.972C1517.03 104.755 1513.13 105.834 1505.2 106.078L1500.16 106.233V83.0892C1500.16 63.6906 1500.23 59.946 1500.55 59.946C1500.76 59.946 1502.07 60.1408 1503.46 60.3786ZM3005.26 60.9407C3014.37 63.2175 3019.22 68.9305 3021.17 79.6632C3021.57 81.8774 3021.68 83.9708 3021.68 89.4267C3021.68 99.4308 3021.35 100.669 3018.07 102.929C3015.06 104.998 3011.49 105.812 3004.34 106.058L2999.16 106.236V83.0767V59.9179L3000.94 60.1099C3001.91 60.2153 3003.86 60.5892 3005.26 60.9407ZM154.73 63.4233C152.363 68.0231 151.237 73.0184 150.98 80.0722C150.662 88.796 152.193 96.7648 155.23 102.182C156.871 105.107 160.586 108.824 163.228 110.181C167.126 112.185 168.811 112.529 174.713 112.529C178.91 112.529 180.373 112.423 182.028 112C183.166 111.708 184.156 111.528 184.227 111.598C184.559 111.93 181.873 115.062 180.284 116.196C178.122 117.738 176.423 118.489 173.437 119.223C170.53 119.938 164.524 120.226 161.668 119.787C154.935 118.752 149.905 115.369 146.654 109.689C143.242 103.729 141.602 94.4015 142.346 85.1928C143.106 75.7836 145.678 69.2398 150.407 64.6864C151.871 63.2762 155.671 60.6601 155.909 60.8985C155.953 60.9421 155.423 62.0785 154.73 63.4233ZM760.018 62.1732C758.268 65.0164 756.763 69.5502 756.005 74.2611C755.408 77.9697 755.56 87.4673 756.278 91.4109C758.331 102.672 763.306 109.173 771.931 111.865C773.851 112.465 774.581 112.529 779.446 112.524C783.762 112.519 785.218 112.415 786.767 111.999C787.83 111.714 788.758 111.539 788.829 111.61C789.168 111.948 786.855 114.673 785.099 116.005C781.567 118.685 776.58 120.048 770.371 120.03C757.391 119.992 749.677 112.481 747.368 97.6325C746.735 93.5628 746.742 85.2078 747.382 81.0644C748.793 71.9234 753.162 64.7721 759.309 61.5405C760.088 61.1312 760.757 60.7964 760.795 60.7964C760.834 60.7964 760.485 61.4161 760.018 62.1732ZM1080.27 63.8437C1077.75 69.0221 1076.78 74.1166 1076.78 82.2595C1076.78 90.5756 1077.79 96.0051 1080.32 101.191C1082.85 106.396 1086.99 110.014 1092.54 111.873C1094.31 112.465 1095 112.528 1099.61 112.517C1103.37 112.507 1105.1 112.388 1106.2 112.062C1107.02 111.819 1107.69 111.674 1107.69 111.74C1107.69 111.806 1107.31 112.414 1106.84 113.091C1104.93 115.868 1101.15 118.34 1097.2 119.393C1094.55 120.097 1087.28 120.09 1084.72 119.381C1078.72 117.718 1074.18 113.895 1071.37 108.125C1070.33 106.004 1069.25 102.501 1068.69 99.4541C1067.98 95.6165 1067.82 86.4347 1068.38 82.1665C1069.68 72.3571 1073.81 65.0226 1079.94 61.6443C1080.77 61.1836 1081.52 60.8044 1081.61 60.8015C1081.69 60.7987 1081.09 62.1678 1080.27 63.8437ZM1654 63.135C1650.93 68.9254 1649.57 76.9623 1650.17 85.8382C1651.02 98.4384 1655.22 106.622 1662.78 110.397C1666.2 112.102 1667.82 112.451 1673 112.594C1676.81 112.699 1678 112.626 1680.36 112.139C1681.92 111.82 1683.24 111.609 1683.3 111.67C1683.36 111.731 1683.02 112.35 1682.54 113.046C1680.6 115.861 1677.13 118.047 1672.72 119.235C1670.82 119.747 1669.62 119.85 1665.35 119.873C1660.84 119.896 1659.98 119.825 1658.03 119.259C1649.33 116.738 1644.17 110.163 1642.06 98.9228C1641.31 94.924 1641.3 83.6556 1642.04 79.9662C1643.48 72.8551 1645.86 68.1391 1649.95 64.3264C1651.3 63.0588 1654.52 60.8979 1655.19 60.8041C1655.22 60.7998 1654.69 61.8489 1654 63.135ZM2258.42 63.5602C2256.78 66.8249 2255.81 70.0859 2255.17 74.4695C2254.51 78.946 2254.74 88.6293 2255.6 92.6267C2256.83 98.3072 2258.96 102.938 2261.89 106.26C2264.49 109.212 2269.01 111.63 2273.36 112.392C2276.23 112.895 2283.5 112.619 2286.16 111.907L2288.21 111.36L2287.58 112.475C2286 115.295 2281.79 118.055 2277.31 119.21C2272.46 120.459 2264.84 120.191 2260.65 118.624C2251.18 115.084 2246 104.804 2245.98 89.512C2245.97 77.8643 2248.7 69.7461 2254.44 64.4395C2255.91 63.0735 2258.98 60.9787 2259.76 60.8041C2259.78 60.7998 2259.18 62.04 2258.42 63.5602ZM2579.92 62.5681C2578.63 64.8747 2577.09 69.5618 2576.45 73.1273C2575.75 77.015 2575.73 87.5065 2576.42 91.4143C2578.53 103.426 2584.18 110.313 2593.53 112.243C2597.17 112.994 2603.89 112.692 2606.51 111.66C2607.43 111.295 2606.52 112.607 2604.31 114.829C2602.1 117.042 2599.56 118.51 2596.46 119.373C2593.86 120.095 2586.64 120.091 2583.86 119.367C2573.33 116.624 2567.83 107.636 2567.1 91.9779C2566.69 83.4333 2568.29 75.0067 2571.33 69.5851C2572.76 67.0293 2576.63 63.0012 2578.9 61.7018C2579.76 61.2108 2580.56 60.8061 2580.68 60.8027C2580.81 60.7993 2580.47 61.5938 2579.92 62.5681ZM3152.84 63.7737C3150.06 69.4456 3149.02 75.2093 3149.26 83.7573C3149.64 97.5701 3153.94 106.543 3162.08 110.516C3165.7 112.286 3167.09 112.532 3173.28 112.505C3177.97 112.485 3179.1 112.394 3180.72 111.906C3181.78 111.589 3182.64 111.379 3182.64 111.439C3182.64 111.499 3182.32 112.049 3181.94 112.66C3180.07 115.608 3176.14 118.133 3171.68 119.246C3168.33 120.082 3160.63 120.158 3157.54 119.386C3148.53 117.131 3142.92 109.748 3140.92 97.5055C3140.35 93.9973 3140.43 84.0073 3141.07 80.4974C3142.39 73.1709 3145.6 66.9151 3149.69 63.6748C3150.88 62.728 3154.04 60.7491 3154.17 60.8707C3154.2 60.9087 3153.61 62.2149 3152.84 63.7737ZM3757.63 63.3765C3754.87 68.6048 3753.91 73.4674 3753.93 82.1982C3753.95 88.8742 3754.25 91.3639 3755.62 96.0938C3758.31 105.384 3764.09 110.922 3772.64 112.41C3775.21 112.859 3782.84 112.588 3785.06 111.969C3785.97 111.715 3786.84 111.547 3786.99 111.598C3787.14 111.647 3786.75 112.388 3786.14 113.243C3784.1 116.064 3780.69 118.145 3776.3 119.239C3772.85 120.099 3765.18 120.17 3762.13 119.37C3753.13 117.01 3747.67 109.909 3745.63 97.9341C3745.06 94.5583 3744.98 84.9124 3745.5 81.6313C3746.74 73.8396 3749.91 67.2972 3754.12 63.8513C3755.44 62.7688 3758.64 60.7525 3758.79 60.9061C3758.84 60.9554 3758.32 62.0672 3757.63 63.3765ZM4079.04 62.574C4073.73 71.984 4073.47 91.0954 4078.52 101.162C4081.29 106.69 4085.22 110.08 4090.94 111.865C4092.84 112.459 4093.6 112.528 4098.03 112.514C4101.65 112.503 4103.4 112.379 4104.48 112.059C4105.3 111.818 4105.97 111.697 4105.97 111.791C4105.97 112.394 4103.1 115.434 4101.41 116.622C4097.7 119.224 4093.7 120.214 4087.97 119.95C4076.61 119.427 4069.71 112.908 4067.07 100.198C4066.26 96.2517 4066.04 86.2481 4066.68 81.6979C4067.83 73.4649 4070.9 67.1977 4075.68 63.3488C4077.21 62.1233 4079.61 60.7131 4079.82 60.9234C4079.88 60.9778 4079.53 61.7208 4079.04 62.574ZM418.381 69.5451L419.768 74.1829L416.911 83.6275C415.339 88.8217 414.054 93.2696 414.054 93.5112C414.054 93.8916 414.844 93.961 419.93 94.0274L425.807 94.1039L426.827 97.5055L427.846 100.907L416.652 100.981C410.496 101.022 405.398 100.995 405.325 100.922C405.251 100.848 407.455 93.2886 410.223 84.123C412.991 74.9571 415.439 66.8439 415.663 66.0939C416.365 63.7456 416.819 64.3219 418.381 69.5451ZM655.39 67.6705C655.876 69.2684 656.52 71.3851 656.819 72.3738L657.362 74.1716L654.547 83.4699C652.999 88.5836 651.691 93.0046 651.642 93.294C651.557 93.7892 651.902 93.8289 657.473 93.9622L663.394 94.1039L664.393 97.438C664.943 99.2718 665.329 100.836 665.251 100.914C665.173 100.992 660.075 101.022 653.923 100.981L642.736 100.907L648.191 82.9069C651.191 73.0068 653.653 64.8747 653.662 64.8358C653.671 64.797 653.864 64.765 654.091 64.765C654.369 64.765 654.795 65.7197 655.39 67.6705ZM1917.4 69.2296C1918.14 71.6853 1918.74 73.9275 1918.73 74.2127C1918.73 74.4978 1917.45 78.9457 1915.89 84.0969C1914.33 89.2481 1913.05 93.5752 1913.05 93.7124C1913.05 93.8499 1915.71 93.9622 1918.96 93.9622H1924.87L1925.78 97.0094C1926.29 98.6856 1926.76 100.28 1926.84 100.553C1926.98 101.019 1926.31 101.049 1915.59 101.049C1906.6 101.049 1904.23 100.974 1904.33 100.695C1904.4 100.5 1906.87 92.3356 1909.82 82.5526C1913.92 68.9399 1915.28 64.765 1915.62 64.765C1915.94 64.765 1916.42 65.9518 1917.4 69.2296ZM2155.07 69.4739L2156.46 74.1789L2153.58 83.7454C2151.99 89.0069 2150.69 93.4581 2150.69 93.637C2150.69 93.8712 2152.34 93.9622 2156.59 93.9622H2162.49L2163.4 97.0528C2163.89 98.7525 2164.38 100.347 2164.48 100.596C2164.63 101.006 2163.57 101.049 2153.24 101.049C2142.52 101.049 2141.84 101.019 2141.97 100.553C2142.04 100.28 2144.5 92.1162 2147.44 82.4108C2151.58 68.7145 2152.87 64.7655 2153.22 64.767C2153.56 64.7684 2154.02 65.9581 2155.07 69.4739ZM3415.56 66.1114C3415.8 66.8521 3416.45 68.9507 3417.01 70.7748L3418.03 74.0919L3415.19 83.4806C3413.63 88.6446 3412.32 93.0837 3412.27 93.345C3412.2 93.7734 3412.78 93.8343 3418.11 93.9622L3424.02 94.1039L3425.09 97.5764L3426.15 101.049H3414.73H3403.3L3403.69 99.8441C3403.91 99.1817 3406.34 91.1771 3409.08 82.0565C3411.82 72.9359 3414.12 65.3143 3414.18 65.1193C3414.45 64.3242 3415.15 64.8236 3415.56 66.1114ZM3653.21 66.2532C3653.45 67.0715 3654.08 69.1771 3654.62 70.9318L3655.6 74.1222L3652.65 83.9019C3651.02 89.2804 3649.69 93.7445 3649.69 93.8218C3649.69 93.8989 3652.36 93.9622 3655.63 93.9622H3661.56L3661.85 94.8834C3662.93 98.3134 3663.62 100.829 3663.52 100.933C3663.45 101.001 3658.35 101.022 3652.18 100.981L3640.97 100.907L3646.32 83.1904C3649.27 73.4462 3651.73 65.3143 3651.81 65.1193C3652.13 64.2876 3652.79 64.8256 3653.21 66.2532ZM228.876 69.5839C228.876 69.7659 226.135 69.8674 221.22 69.8674C216.304 69.8674 213.563 69.7659 213.563 69.5839C213.563 69.4019 216.304 69.3005 221.22 69.3005C226.135 69.3005 228.876 69.4019 228.876 69.5839ZM833.468 69.5839C833.468 69.7659 830.726 69.8674 825.811 69.8674C820.896 69.8674 818.154 69.7659 818.154 69.5839C818.154 69.4019 820.896 69.3005 825.811 69.3005C830.726 69.3005 833.468 69.4019 833.468 69.5839ZM1728.16 69.5839C1728.16 69.7659 1725.37 69.8674 1720.36 69.8674C1715.35 69.8674 1712.56 69.7659 1712.56 69.5839C1712.56 69.4019 1715.35 69.3005 1720.36 69.3005C1725.37 69.3005 1728.16 69.4019 1728.16 69.5839ZM2332.75 69.5839C2332.75 69.7659 2330.02 69.8674 2325.11 69.8674C2320.32 69.8674 2317.41 69.7617 2317.3 69.5839C2317.18 69.3977 2319.8 69.3005 2324.94 69.3005C2329.96 69.3005 2332.75 69.4019 2332.75 69.5839ZM3227.16 69.5839C3227.16 69.7659 3224.42 69.8674 3219.5 69.8674C3214.59 69.8674 3211.85 69.7659 3211.85 69.5839C3211.85 69.4019 3214.59 69.3005 3219.5 69.3005C3224.42 69.3005 3227.16 69.4019 3227.16 69.5839ZM3831.75 69.5839C3831.75 69.7659 3829.01 69.8674 3824.09 69.8674C3819.18 69.8674 3816.44 69.7659 3816.44 69.5839C3816.44 69.4019 3819.18 69.3005 3824.09 69.3005C3829.01 69.3005 3831.75 69.4019 3831.75 69.5839ZM223.769 84.5368C223.766 96.8025 223.188 102.114 221.194 108.215C218.197 117.381 213.149 124.055 204.221 130.653C203.649 131.075 203.864 130.75 206.205 127.642C209.7 123.005 212.578 116.431 213.813 110.262C214.773 105.473 214.981 102.286 214.981 92.4141V82.9069H194.847H174.713V79.3636V75.8202H199.242H223.772L223.769 84.5368ZM828.363 84.8203C828.363 89.7702 828.23 95.2236 828.068 96.9386C826.971 108.577 822.898 117.595 815.328 125.147C812.603 127.866 808.513 131.208 808.513 130.716C808.513 130.643 808.98 130.029 809.55 129.352C812.381 125.993 815.338 120.59 816.901 115.921C819.1 109.352 819.572 105.223 819.572 92.5559V82.9069H799.58H779.587V79.3636V75.8202H803.975H828.363L828.363 84.8203ZM1722.77 85.4692C1722.77 95.9113 1722.56 98.8713 1721.45 103.884C1719.22 114.005 1713.54 123.034 1705.74 128.857C1702.71 131.117 1702.62 131.131 1704.23 129.101C1708.33 123.93 1711.23 117.891 1712.71 111.458C1713.77 106.825 1713.97 103.921 1713.98 93.3244L1713.98 82.9069H1693.99H1674V79.3636V75.8202H1698.38H1722.77V85.4692ZM2327.36 85.9542C2327.35 98.8324 2326.88 102.736 2324.51 109.411C2321.51 117.9 2315.25 125.971 2308.22 130.414C2307.42 130.92 2307.44 130.868 2308.54 129.536C2311.39 126.082 2314.19 121.112 2315.7 116.832C2318.19 109.796 2318.66 106.04 2318.69 93.2535L2318.71 83.0486L2298.65 82.9758L2278.59 82.9032V79.3616V75.8202H2302.98H2327.36L2327.36 85.9542ZM3221.98 86.3794C3221.82 97.368 3221.57 100.194 3220.31 105.159C3219.64 107.849 3218.05 112.18 3216.93 114.406C3215.33 117.588 3212.02 122.136 3209.32 124.874C3206.98 127.237 3202.61 130.813 3202.06 130.813C3201.96 130.813 3202.45 130.143 3203.14 129.325C3207.64 124.035 3210.95 116.594 3212.44 108.419C3212.96 105.589 3213.05 103.692 3213.18 94.033L3213.33 82.9069H3193.16H3173V79.3636V75.8202H3197.56H3222.13L3221.98 86.3794ZM3826.64 84.3951C3826.64 93.7371 3826.38 97.8848 3825.51 102.482C3823.93 110.866 3819.81 118.919 3814.08 124.819C3812.36 126.582 3807.06 130.891 3806.86 130.686C3806.8 130.63 3807.41 129.774 3808.22 128.785C3811.3 124.984 3814.23 119.285 3815.72 114.194C3817.41 108.434 3817.62 106.375 3817.77 94.1748L3817.91 82.9069H3797.75H3777.59V79.3636V75.8202H3802.12H3826.65L3826.64 84.3951ZM423.512 86.5211L423.948 88.0093H422.799C421.854 88.0093 421.681 87.9274 421.827 87.5476C421.924 87.2936 422.147 86.52 422.321 85.8283C422.691 84.3583 422.918 84.4898 423.512 86.5211ZM661.077 86.4599L661.557 88.0093H660.453C659.846 88.0093 659.35 87.9249 659.35 87.8217C659.35 87.3307 660.32 84.6327 660.45 84.7625C660.531 84.8438 660.814 85.6075 661.077 86.4599ZM1922.96 87.655C1922.97 87.8821 1922.58 88.0093 1921.86 88.0093H1920.75L1921.34 86.243L1921.94 84.4765L1922.44 85.8887C1922.71 86.6651 1922.95 87.4603 1922.96 87.655ZM2160.49 87.4821C2160.63 87.9362 2160.5 88.0093 2159.52 88.0093H2158.38L2158.82 86.5211C2159.45 84.4005 2159.56 84.3214 2159.96 85.7127C2160.16 86.3958 2160.4 87.1921 2160.49 87.4821ZM3421.77 86.5211L3422.2 88.0093H3421.08C3420.14 88.0093 3419.98 87.9263 3420.1 87.5133C3420.18 87.2406 3420.4 86.4709 3420.59 85.8034C3421 84.3832 3421.2 84.502 3421.77 86.5211ZM3659.53 87.189C3659.68 87.973 3659.64 88.0093 3658.66 88.0093C3658.1 88.0093 3657.63 87.9334 3657.63 87.8404C3657.63 87.7474 3657.85 86.9503 3658.1 86.0687L3658.58 84.466L3658.97 85.4173C3659.18 85.9406 3659.44 86.738 3659.53 87.189ZM962.46 92.4102L966.466 98.2283V117.781V137.333H962.213H957.959V111.962C957.959 97.7133 958.067 86.592 958.206 86.592C958.342 86.592 960.256 89.2101 962.46 92.4102ZM2461.69 92.5649L2465.72 98.3559L2465.73 117.844L2465.75 137.333H2461.35H2456.96V111.939C2456.96 91.7514 2457.03 86.5682 2457.31 86.6595C2457.51 86.7227 2459.48 89.3802 2461.69 92.5649ZM3960.77 92.5267L3964.75 98.3196V117.826V137.333H3960.5H3956.24V111.939C3956.24 95.8064 3956.34 86.5792 3956.52 86.6393C3956.67 86.6912 3958.58 89.3405 3960.77 92.5267ZM1149.09 98.7859C1149.09 101.719 1147.08 108.473 1144.91 112.813C1142.76 117.108 1139.14 122.014 1135.57 125.467C1133.76 127.216 1129.47 130.574 1129.29 130.387C1129.22 130.323 1129.71 129.659 1130.37 128.912C1131.97 127.092 1134.73 122.948 1135.96 120.491C1138.07 116.3 1139.92 110.453 1140.4 106.408L1140.56 105.106L1128.6 104.905C1122.02 104.794 1116.6 104.664 1116.55 104.617C1116.5 104.57 1116.85 103.716 1117.32 102.719C1117.8 101.722 1118.34 100.174 1118.52 99.2772L1118.86 97.6472H1133.98H1149.09V98.7859ZM2648.24 99.1354C2647.25 106.754 2644.09 114.16 2639.15 120.466C2636.41 123.971 2631.33 128.717 2628.53 130.392C2628.3 130.53 2628.47 130.203 2628.91 129.665C2633.4 124.142 2635.99 119.541 2637.82 113.805C2638.69 111.113 2639.58 106.972 2639.58 105.695V105.017H2634.81C2632.18 105.017 2626.77 104.933 2622.78 104.831L2615.52 104.644L2616.17 103.342C2616.8 102.072 2617.52 99.9915 2617.87 98.4268L2618.04 97.6472H2633.24H2648.43L2648.24 99.1354ZM4147.27 99.481C4146.83 103.756 4144.74 110.021 4142.24 114.541C4139.46 119.572 4134.28 125.589 4130.08 128.665C4127.3 130.708 4127 130.762 4128.58 128.938C4133.84 122.857 4137.53 114.508 4138.68 106.125L4138.82 105.106L4126.87 104.904C4120.3 104.794 4114.88 104.665 4114.84 104.618C4114.79 104.571 4115.07 103.845 4115.46 103.003C4115.85 102.162 4116.39 100.613 4116.66 99.5606L4117.16 97.6472H4132.31H4147.45L4147.27 99.481ZM872.318 107.427V113.238H896.989H921.661V125.285V137.333H917.265H912.87V128.97V120.608H888.198H863.527V111.112V101.616H867.922H872.318V107.427ZM2371.32 107.427V113.238H2395.99H2420.66V125.285V137.333H2416.27H2411.87V128.972V120.611L2387.27 120.539L2362.67 120.466L2362.59 111.041L2362.52 101.616H2366.92H2371.32V107.427ZM3870.6 107.427V113.238H3895.27H3919.94V125.285V137.333H3915.55H3911.15V128.97V120.608H3886.48H3861.81V111.112V101.616H3866.21H3870.6V107.427ZM404.696 123.778C404.696 124.048 402.249 132.347 400.971 136.411L400.681 137.333H397.423C394.454 137.333 394.178 137.289 394.309 136.837C395.2 133.783 398.264 123.818 398.362 123.655C398.588 123.282 404.696 123.4 404.696 123.778ZM642.339 123.655C642.341 123.772 641.426 126.898 640.307 130.6L638.271 137.333H635.057C633.289 137.333 631.843 137.247 631.843 137.142C631.843 137.037 632.761 133.912 633.883 130.197L635.924 123.443H639.13C640.893 123.443 642.337 123.538 642.339 123.655ZM1903.86 123.939C1903.78 124.212 1902.86 127.241 1901.83 130.671C1900.79 134.101 1899.86 137.008 1899.74 137.13C1899.63 137.252 1898.13 137.316 1896.42 137.272L1893.3 137.191L1894.68 132.656C1895.44 130.161 1896.37 127.068 1896.76 125.781L1897.48 123.443H1900.75C1903.73 123.443 1904 123.486 1903.86 123.939ZM2141.17 124.841C2140.94 125.61 2140.01 128.703 2139.09 131.715L2137.43 137.191L2134.1 137.271C2131.04 137.345 2130.79 137.313 2130.96 136.857C2131.07 136.585 2131.98 133.615 2132.99 130.257C2133.99 126.899 2134.88 123.992 2134.95 123.797C2135.04 123.542 2135.99 123.443 2138.33 123.443H2141.59L2141.17 124.841ZM3402.98 123.655C3402.99 123.772 3402.07 126.898 3400.96 130.6L3398.92 137.333H3395.67C3392.71 137.333 3392.43 137.288 3392.56 136.837C3392.63 136.564 3393.56 133.438 3394.63 129.892L3396.56 123.443H3399.77C3401.54 123.443 3402.98 123.538 3402.98 123.655ZM3640.55 123.939C3640.48 124.212 3639.54 127.337 3638.47 130.884L3636.53 137.333H3633.33C3631.57 137.333 3630.13 137.226 3630.13 137.097C3630.13 136.967 3631.02 133.884 3632.11 130.246C3633.2 126.608 3634.1 123.589 3634.1 123.537C3634.1 123.485 3635.58 123.443 3637.39 123.443C3640.39 123.443 3640.67 123.487 3640.55 123.939Z" fill="black"/>
</svg>
