<svg width="4482" height="146" viewBox="0 0 4482 146" fill="none" xmlns="http://www.w3.org/2000/svg">
<path fill-rule="evenodd" clip-rule="evenodd" d="M39.701 0.14681C39.701 0.22281 39.073 2.61471 38.304 5.46181C37.537 8.30901 36.766 11.1805 36.592 11.8433C36.403 12.567 36.111 13.048 35.862 13.048C35.634 13.048 35.447 13.1002 35.447 13.1642C35.447 13.228 27.472 42.9045 17.724 79.1119C7.976 115.319 0 144.988 0 145.044C0 145.099 5.665 145.144 12.589 145.144H25.177L25.354 144.441L25.53 143.737L31.968 143.661L38.407 143.585L57.616 72.2928C68.181 33.0821 76.83 0.777311 76.837 0.504611C76.849 0.0371114 75.781 0.00851004 58.276 0.00851004C48.06 0.00851004 39.701 0.07091 39.701 0.14681ZM102.278 0.221111C102.208 0.338211 101.419 3.17621 100.525 6.52831C99.463 10.5132 98.725 12.7699 98.392 13.048C98.028 13.353 92.985 31.69 80.54 77.9622C71.001 113.431 63.021 143.058 62.807 143.8L62.416 145.15L75.092 145.076L87.768 145.002L87.859 144.365L87.949 143.727H94.421H100.893L101.053 143.089C101.142 142.738 109.833 110.446 120.368 71.3279C130.902 32.2099 139.521 0.160411 139.521 0.106611C139.521 -0.0963893 102.4 0.0178107 102.278 0.221111ZM1538.89 0.221111C1538.82 0.338211 1538.03 3.17621 1537.14 6.52831C1536.08 10.5053 1535.34 12.7705 1535.01 13.048C1534.64 13.3525 1529.62 31.618 1517.3 77.3952C1507.85 112.552 1499.87 142.18 1499.58 143.233L1499.04 145.15L1511.71 145.076L1524.38 145.002L1524.47 144.365L1524.56 143.727H1531.03H1537.51L1537.69 143.005C1537.79 142.608 1546.48 110.317 1557 71.2485C1567.52 32.1793 1576.13 0.16751 1576.13 0.11111C1576.13 -0.0946899 1539.01 0.0147107 1538.89 0.221111ZM1601.15 0.929811C1601.01 1.43631 1600.22 4.37051 1599.39 7.44951C1598.43 11.0328 1597.75 13.048 1597.52 13.048C1597.32 13.048 1597.09 13.2711 1597.01 13.5441C1596.79 14.2587 1562.03 143.432 1561.8 144.365L1561.61 145.144H1574.24H1586.87L1586.96 144.506C1587.05 143.871 1587.08 143.868 1593.54 143.727L1600.03 143.585L1619.27 72.1511C1629.85 32.8624 1638.52 0.557912 1638.52 0.362812C1638.52 0.0830115 1634.62 0.00851004 1619.96 0.00851004H1601.4L1601.15 0.929811ZM3037.76 0.929811C3037.62 1.43631 3036.83 4.37051 3036 7.44951C3035.04 11.0328 3034.37 13.048 3034.13 13.048C3033.93 13.048 3033.7 13.2711 3033.62 13.5441C3033.41 14.2587 2998.64 143.432 2998.41 144.365L2998.22 145.144H3010.85H3023.48L3023.57 144.506C3023.66 143.871 3023.69 143.868 3030.15 143.727L3036.64 143.585L3055.88 72.1511C3066.47 32.8624 3075.13 0.557912 3075.13 0.362812C3075.13 0.0830115 3071.24 0.00851004 3056.57 0.00851004H3038.01L3037.76 0.929811ZM3100.4 0.64631C3100.27 0.99691 3099.48 3.83531 3098.66 6.95351C3097.68 10.6587 3096.98 12.7702 3096.65 13.048C3096.28 13.3542 3091.21 31.7773 3078.55 78.7964C3068.87 114.724 3060.89 144.35 3060.8 144.632C3060.64 145.121 3061.21 145.144 3073.27 145.144H3085.9L3086.08 144.435L3086.26 143.727H3092.68H3099.11L3118.36 72.2219C3128.95 32.8942 3137.67 0.557912 3137.74 0.362812C3137.84 0.0816115 3134.02 0.00851004 3119.25 0.00851004H3100.64L3100.4 0.64631ZM372.34 4.02441C361.781 5.01851 350.13 9.45901 342.192 15.5145C339.304 17.717 333.853 23.2075 331.625 26.1576C327.609 31.4754 325.057 36.4058 322.565 43.6625C321.735 46.0791 320.487 49.6729 319.792 51.6487C319.097 53.6245 318.289 56.4217 317.998 57.8648L317.467 60.4883L317.325 32.8706L317.183 5.25261L296.411 5.18011L275.639 5.10721V11.7707V18.4339H274.079H272.52L272.501 35.938L272.483 53.4422L271.795 50.1273C266.83 26.2018 249.443 10.0798 224.325 6.11041C218.971 5.26461 211.929 5.08171 188.013 5.16761L164.334 5.25261L164.258 11.8433L164.182 18.4339H162.769H161.357V73.5865V128.739L185.957 128.626C211.753 128.507 212.207 128.487 218.923 127.163C220.093 126.933 222.518 126.541 224.311 126.292C237.572 124.453 249.203 118.745 257.686 109.91C264.664 102.643 269.571 93.072 271.727 82.5212L272.378 79.3384L272.52 103.95L272.661 128.561L287.62 128.635L302.579 128.708V128.002V127.295L309.881 127.22L317.183 127.144L317.275 107.018L317.367 86.891L318.049 89.868C319.065 94.304 320.286 97.821 322.182 101.773C330.034 118.139 344.745 127.961 364.258 129.866C368.782 130.307 376.89 130.02 380.989 129.273C382.704 128.96 385.512 128.513 387.228 128.279C395.302 127.178 400.975 125.517 407.078 122.469C420.8 115.616 430.047 103.565 433.292 88.309L433.834 85.758L433.855 107.23L433.876 128.703H448.906H463.936V127.994V127.286H471.167H478.398V84.907V42.5287H493.286H508.174V85.616V128.703H522.92H537.666V127.994V127.286H545.039H552.413V84.907V42.5287H561.629H570.845V41.82V41.1113H578.22H585.596L585.522 23.182L585.45 5.25261H511.152H436.854L436.778 11.8433L436.702 18.4339H435.289H433.876L433.843 35.0876C433.813 50.7694 433.788 51.543 433.421 48.3398C432.584 41.0274 431.292 36.4157 428.615 31.1854C419.036 12.4649 396.78 1.72321 372.34 4.02441ZM976.931 4.00371C965.388 5.17871 953.65 9.90611 945.312 16.7388C942.667 18.9056 938.026 23.7367 936.055 26.3744C932.492 31.1421 929.188 37.5878 927.194 43.6634C926.504 45.7676 925.477 48.6723 924.913 50.1177C923.637 53.3903 922.41 58.1118 921.729 62.3714C921.309 65.0023 921.21 67.2179 921.216 73.8519C921.223 81.0681 921.302 82.5226 921.861 85.758C923.422 94.784 925.977 101.47 930.376 108.037C938.174 119.677 949.263 126.619 964.365 129.314C967.532 129.879 968.907 129.96 975.087 129.947C981.193 129.934 982.649 129.844 985.58 129.296C987.452 128.946 990.323 128.478 991.96 128.257C1005.34 126.448 1015.55 121.884 1023.71 114.062C1030.88 107.196 1035.43 99.069 1037.74 89.017L1038.43 86.041L1038.45 107.372L1038.47 128.703H1078.17H1117.87V127.994V127.286H1125.1H1132.33V109.285V91.285H1107.66H1082.99V88.45V85.616H1098.44H1113.9V84.907V84.198H1121.28H1128.65L1128.58 66.2691L1128.5 48.3398L1105.75 48.2672L1082.99 48.1946V45.3617V42.5287H1100.57H1118.15V41.82V41.1113H1125.39H1132.62V23.1111V5.11091H1087.11H1041.6L1041.52 11.7015L1041.45 18.2922L1039.96 18.3778L1038.47 18.4637L1038.44 34.9607C1038.4 50.4482 1038.38 51.2498 1038.02 48.0563C1037.8 46.1854 1037.36 43.3944 1037.03 41.8537C1032.91 22.4594 1015.87 7.83621 993.378 4.40851C989.747 3.85491 980.604 3.63011 976.931 4.00371ZM1298.79 3.86821C1283.51 5.27141 1270.51 11.2171 1261.17 21.0832C1255.34 27.2415 1251.27 34.1871 1248.17 43.3003C1247.33 45.7602 1246.14 49.2398 1245.52 51.0327C1244.89 52.8256 1244.07 55.6958 1243.68 57.4107L1242.97 60.5289L1242.95 32.8182L1242.93 5.10721L1222.16 5.18011L1201.38 5.25261L1201.31 11.8433L1201.23 18.4339H1199.82H1198.41L1198.34 32.4939L1198.26 46.5536L1184.54 26.3285C1176.99 15.2044 1170.62 5.87881 1170.38 5.60471C1169.98 5.13811 1168.88 5.11121 1152.92 5.17951L1135.88 5.25261L1135.8 11.8433L1135.72 18.4339H1134.31H1132.9V73.571V128.708L1147.86 128.635L1162.82 128.561L1162.91 127.923L1163 127.286H1170.21H1177.42V109.269C1177.42 99.359 1177.52 91.311 1177.63 91.384C1177.75 91.456 1183.59 99.879 1190.61 110.102L1203.37 128.689L1215.85 128.625L1228.32 128.561L1228.41 127.923L1228.51 127.286H1235.72H1242.93L1242.96 106.947C1242.98 93.418 1243.08 86.987 1243.26 87.742C1243.4 88.365 1243.79 90.024 1244.12 91.427C1245.8 98.638 1248.62 104.638 1253.21 110.785C1260.63 120.711 1271.78 127.129 1285.64 129.458C1290.3 130.241 1301.37 130.163 1305.88 129.316C1307.68 128.979 1310.61 128.505 1312.41 128.263C1314.2 128.021 1316.88 127.572 1318.36 127.266C1340.98 122.587 1357.93 104.326 1360.04 82.3559C1360.2 80.6409 1360.4 78.5248 1360.48 77.6535L1360.63 76.0692L1353.6 75.8824C1349.74 75.7797 1340.36 75.6953 1332.76 75.695L1318.94 75.6944L1318.79 76.3322C1318.72 76.6831 1318.46 78.2456 1318.22 79.8047C1317.17 86.669 1313.73 90.055 1307.06 90.796C1303.41 91.2 1299.64 90.645 1296.91 89.3C1292.39 87.076 1289.38 82.0849 1288.12 74.7023C1287.44 70.6824 1287.44 61.8172 1288.13 58.0168C1289.32 51.4471 1291.65 47.0148 1295.38 44.2116C1296.67 43.2436 1297.06 43.0956 1298.35 43.0956C1300.37 43.0956 1303.93 44.0345 1306.16 45.1513C1307.3 45.7251 1308.74 46.8198 1309.99 48.0563C1312.81 50.8538 1314.12 53.676 1315.13 59.1824L1315.25 59.8202H1330.45H1345.65L1345.51 59.1115L1345.38 58.4029H1353C1359.17 58.4029 1360.61 58.3312 1360.61 58.0233C1360.61 57.0456 1359.72 48.4172 1359.45 46.7807C1356.73 30.3815 1347.22 17.2776 1332.82 10.0654C1327.45 7.37301 1320.95 5.37821 1314.39 4.40171C1311.52 3.97391 1301.41 3.62811 1298.79 3.86821ZM1871.62 3.99771C1849.99 6.39221 1833.27 17.9395 1824.47 36.558C1823.7 38.1851 1822.39 41.5017 1821.56 43.9282C1820.74 46.3546 1819.48 49.9981 1818.78 52.0248C1818.07 54.0516 1817.26 56.9218 1816.98 58.4029L1816.47 61.0958L1816.33 33.1742L1816.18 5.25261H1795.48H1774.78L1774.71 11.8433L1774.63 18.4339H1773.22H1771.8L1771.78 36.2215L1771.75 54.0091L1771.1 51.008C1769.21 42.3594 1766.74 36.1855 1762.73 30.0856C1755.37 18.8889 1744.15 11.0728 1730.39 7.55021C1721.73 5.33061 1718.11 5.12401 1687.79 5.11691L1663.48 5.11091V11.7724V18.4339H1662.06H1660.64V73.5877V128.742L1685.38 128.61C1700.97 128.527 1710.86 128.366 1712.11 128.173C1713.2 128.005 1715.44 127.618 1717.07 127.313C1718.71 127.009 1721.2 126.616 1722.6 126.441C1728.89 125.658 1736.15 123.547 1741.6 120.916C1756.97 113.504 1767.23 99.878 1770.97 81.9307L1771.77 78.1039L1771.79 103.406L1771.8 128.708L1786.76 128.635L1801.72 128.561L1801.81 127.923L1801.9 127.286H1809.11H1816.33L1816.35 106.805L1816.37 86.324L1817.03 89.301C1818.79 97.271 1821.72 103.898 1826.12 109.874C1834.44 121.156 1846.64 127.912 1861.91 129.698C1868.32 130.447 1876.82 130.105 1882.62 128.866C1883.67 128.642 1886.11 128.245 1888.06 127.983C1908.13 125.274 1923.61 113.54 1930.13 96.088C1931.01 93.738 1931.49 91.986 1932.83 86.324C1933.01 85.577 1933.11 92.6 1933.13 106.947L1933.16 128.703H1948.05H1962.94V127.994V127.286H1970.31H1977.68V84.907V42.5287H1992.57H2007.46V85.616V128.703H2022.2H2036.95V127.994V127.286H2044.18H2051.41V84.907V42.5287H2060.77H2070.13V41.82V41.1113H2077.36H2084.59V23.1111V5.11091H2010.29H1936V11.7724V18.4339H1934.58H1933.16V35.3476C1933.16 44.6499 1933.11 52.2074 1933.04 52.1419C1932.98 52.0764 1932.72 50.1678 1932.47 47.9007C1931.52 39.2339 1929.35 33.0396 1924.91 26.3577C1922.65 22.9521 1916.49 16.7552 1912.74 14.1127C1905.81 9.23141 1896.87 5.75351 1887.79 4.40541C1883.96 3.83731 1875.09 3.61361 1871.62 3.99771ZM2477.49 3.86821C2464.74 5.20191 2454.66 8.95051 2445.79 15.6463C2442.7 17.9821 2437.65 23.0729 2435.33 26.1825C2431.41 31.4462 2427.9 38.3104 2426.17 44.0877C2425.75 45.4909 2424.92 47.8508 2424.32 49.3319C2418.85 62.8743 2418.69 83.1519 2423.95 97.238C2427.84 107.634 2435.19 116.77 2444.03 122.194C2448.69 125.055 2454.84 127.51 2460.41 128.731C2468.39 130.483 2479.38 130.538 2487.21 128.866C2488.26 128.642 2490.71 128.246 2492.66 127.986C2508.48 125.879 2521.5 118.158 2529.62 106.081C2532.94 101.149 2535.84 94.137 2537.09 88.025L2537.61 85.474L2537.68 107.088L2537.75 128.703H2577.31H2616.87V127.994V127.286H2624.24H2631.62L2631.55 109.356L2631.47 91.427L2606.87 91.354L2582.27 91.282V88.449V85.616H2597.73H2613.18V84.907V84.198H2620.41H2627.65V66.1982V48.198H2604.96H2582.27V45.3634V42.5287H2599.71H2617.15V41.8291V41.1298L2624.53 41.0495L2631.9 40.9696L2631.97 84.765L2632.04 128.561L2647 128.635L2661.96 128.708V128.002V127.295L2669.26 127.22L2676.56 127.144L2676.71 109.245L2676.85 91.347L2689.7 110.025L2702.55 128.703H2715.01H2727.47V127.999V127.295L2734.77 127.22L2742.07 127.144L2742.21 107.234L2742.35 87.323L2742.87 89.927C2744.01 95.681 2746.8 102.594 2749.88 107.301C2754.97 115.089 2760.7 120.315 2768.4 124.171C2774.5 127.231 2780.71 129.023 2788.01 129.833C2793.52 130.443 2802.37 130.005 2807.65 128.86C2808.7 128.633 2810.77 128.304 2812.26 128.129C2833.31 125.645 2850.5 112.084 2856.92 92.888C2857.49 91.197 2858.2 88.563 2858.49 87.033C2859.08 84.024 2859.79 76.345 2859.51 76.0677C2859.42 75.9742 2850.04 75.8336 2838.66 75.7554L2817.97 75.6133L2817.78 77.0004C2816.86 83.481 2816.1 85.447 2813.64 87.727C2811.03 90.142 2806.95 91.272 2802.29 90.871C2797.87 90.491 2795.32 89.402 2792.66 86.765C2789.58 83.7058 2787.75 79.1873 2786.99 72.7296C2786.51 68.6593 2786.82 59.5396 2787.54 56.4186C2788.62 51.7504 2790.03 48.759 2792.36 46.1653C2794.29 44.0155 2795.88 43.0948 2797.64 43.0999C2801.42 43.1109 2805.84 44.975 2808.87 47.8321C2811.4 50.2095 2813.18 53.6029 2813.89 57.347L2814.36 59.8202H2829.47H2844.58V59.1115V58.4029H2852.14H2859.69L2859.49 55.3556C2858.7 43.1316 2856.09 34.6032 2850.63 26.4096C2842.52 14.2281 2829.24 6.55231 2812.26 4.22221C2808.73 3.73781 2798.15 3.73241 2794.67 4.21321C2776.51 6.72301 2762.19 15.7429 2753.2 30.3396C2751.11 33.7304 2748.88 38.629 2747.21 43.5208C2746.36 46.0153 2745.15 49.5232 2744.52 51.3162C2743.89 53.1091 2743.15 55.715 2742.87 57.1071C2742.35 59.6379 2742.35 59.6362 2742.21 32.4454L2742.07 5.25261L2721.3 5.18011L2700.53 5.10721V11.7707V18.4339H2698.97H2697.41L2697.34 32.4128L2697.26 46.3915L2683.25 25.7513L2669.23 5.11091H2652.12H2635.02V11.7724V18.4339H2633.46H2631.91L2631.83 11.8433L2631.76 5.25261H2586.24H2540.73L2540.65 11.8433L2540.58 18.4339H2539.16H2537.75V35.3476C2537.75 44.6499 2537.7 52.208 2537.64 52.1431C2537.58 52.0781 2537.37 50.5579 2537.19 48.765C2536.47 41.7795 2535.04 36.5203 2532.45 31.3575C2525.37 17.2348 2510.38 7.11701 2492.52 4.40591C2489.53 3.95271 2479.96 3.61001 2477.49 3.86821ZM3372.04 3.88891C3366.74 4.28911 3359.1 5.99281 3354.44 7.81461C3337.98 14.2528 3326.58 26.4762 3320.62 44.0877C3319.77 46.5823 3318.57 50.0902 3317.94 51.8831C3317.3 53.676 3316.49 56.5462 3316.13 58.2611L3315.47 61.3793L3315.4 33.2434L3315.32 5.10721L3294.55 5.18011L3273.78 5.25261L3273.71 11.8433L3273.63 18.4339H3272.22H3270.8L3270.79 36.0798L3270.77 53.7257L3270.06 50.324C3265.14 26.4878 3247.94 10.2564 3223.34 6.23971C3217.34 5.25971 3211.08 5.07861 3186.3 5.16761L3162.62 5.25261L3162.54 11.8433L3162.47 18.4339H3161.05H3159.64V73.5865V128.739L3184.24 128.626C3209.53 128.509 3211.11 128.443 3216.15 127.303C3216.9 127.134 3219 126.801 3220.83 126.562C3238.78 124.215 3252.64 116.166 3261.47 102.972C3265.73 96.612 3268.47 89.847 3270.25 81.3638C3270.74 78.9829 3270.75 79.2505 3270.78 103.829L3270.8 128.703H3285.83H3300.86V127.994V127.286H3308.09H3315.33L3315.35 106.947C3315.36 92.439 3315.45 86.811 3315.66 87.317C3316.35 88.94 3316.43 89.197 3316.58 90.01C3316.67 90.477 3316.82 91.37 3316.91 91.994C3317.1 93.235 3318.29 97.087 3318.74 97.872C3318.89 98.143 3319.01 98.505 3319.01 98.676C3319.01 99.278 3322.4 105.74 3323.8 107.82C3331.94 119.873 3343.34 126.916 3358.86 129.464C3363.58 130.24 3374.64 130.159 3379.13 129.315C3380.92 128.978 3384.23 128.44 3386.47 128.12C3388.72 127.799 3392.23 127.113 3394.29 126.595C3413.74 121.698 3427.49 107.503 3431.56 88.12L3432.12 85.474L3432.14 107.091L3432.16 128.708L3447.12 128.635L3462.08 128.561L3462.17 127.923L3462.26 127.286H3469.47H3476.68V84.907V42.5287H3491.57H3506.46V85.616V128.703H3521.2H3535.95V127.999V127.295L3543.25 127.22L3550.55 127.144L3550.63 84.836L3550.7 42.5287H3559.91H3569.13V41.8248V41.121L3576.43 41.0453L3583.73 40.9696V23.1111V5.25261H3509.44H3435.14L3435.06 11.8433L3434.99 18.4339H3433.57H3432.16L3432.12 35.2294C3432.09 51.0041 3432.06 51.8182 3431.7 48.6232C3431.12 43.5716 3430.55 40.7723 3429.33 37.111C3423.29 18.9447 3405.32 5.99561 3383.38 3.99321C3380.34 3.71571 3374.99 3.66641 3372.04 3.88891ZM3975.36 4.01161C3966.17 4.87961 3956.72 8.04061 3949.02 12.8159C3940.76 17.9336 3933.37 26.1663 3928.74 35.3833C3927.58 37.7024 3925.9 41.9765 3924.99 44.9382C3924.56 46.3413 3923.74 48.7012 3923.16 50.1823C3920.5 57.0099 3919.3 64.4739 3919.32 73.9936C3919.34 85.441 3921.17 94.209 3925.21 102.199C3932.96 117.532 3945.59 126.539 3963.45 129.465C3968.18 130.242 3979.24 130.159 3983.72 129.313C3985.52 128.974 3988.39 128.506 3990.1 128.273C3998.2 127.171 4003.84 125.521 4009.95 122.469C4015.16 119.866 4018.56 117.417 4022.72 113.259C4026.81 109.166 4029.32 105.716 4031.77 100.781C4033.76 96.772 4034.97 93.356 4036.03 88.734L4036.71 85.758L4036.73 107.23L4036.75 128.703H4076.45H4116.15V127.994V127.286H4123.39H4130.62V109.285V91.285H4105.94H4081.27V88.45V85.616H4096.73H4112.18V84.912V84.208L4119.49 84.132L4126.79 84.057V66.1982V48.3398L4104.03 48.2672L4081.27 48.1946V45.3639V42.5329L4098.78 42.4601L4116.3 42.3869L4116.39 41.7491L4116.48 41.1113H4123.69H4130.9V23.1103V5.10921L4085.31 5.18091L4039.73 5.25261L4039.65 11.8433L4039.58 18.4339H4038.16H4036.75L4036.72 35.0876C4036.69 45.464 4036.59 50.9933 4036.45 49.7571C4035.84 44.6414 4035.53 42.7526 4034.88 40.1762C4032.55 30.9119 4027.18 22.716 4019.17 16.1582C4007.99 7.00731 3991.63 2.47301 3975.36 4.01161ZM4297.08 3.88891C4292.06 4.26761 4285.15 5.72601 4280.62 7.36651C4276.94 8.69621 4270.02 12.2747 4267.02 14.3965C4263.52 16.8726 4257.22 23.1769 4254.76 26.6545C4251 31.9927 4247.89 38.2477 4246.32 43.6625C4245.99 44.8318 4245.2 47.0347 4244.58 48.5578C4243.53 51.1685 4241.58 58.0817 4241.43 59.7615C4241.39 60.1836 4241.29 48.0917 4241.21 32.8908L4241.07 5.25261H4220.37H4199.67L4199.59 11.8433L4199.52 18.4339H4198.11H4196.7L4196.62 32.5347L4196.55 46.6356L4182.49 25.9441L4168.44 5.25261H4151.3H4134.16L4134.09 11.8433L4134.01 18.4339H4132.6H4131.18V73.571V128.708L4146.14 128.635L4161.1 128.561L4161.19 127.923L4161.28 127.286H4168.49H4175.7L4175.77 109.236L4175.85 91.186L4188.75 109.945L4201.65 128.704L4214.13 128.633L4226.61 128.561L4226.7 127.923L4226.79 127.286H4234H4241.21L4241.24 106.947L4241.26 86.608L4241.97 89.851C4246.47 110.618 4260.76 124.777 4281.45 128.979C4288.06 130.321 4297.87 130.447 4304.31 129.273C4306.02 128.96 4308.89 128.505 4310.67 128.262C4318.49 127.193 4323.74 125.667 4329.63 122.741C4338.41 118.385 4344.89 112.755 4350.15 104.922C4353.56 99.835 4356.46 92.93 4357.62 87.132C4358.06 84.953 4358.92 76.248 4358.72 76.0088C4358.67 75.9478 4349.28 75.8841 4337.85 75.8671L4317.08 75.8362L4316.61 78.8602C4316.05 82.439 4315.5 84.231 4314.41 85.942C4312.19 89.441 4307.18 91.342 4301.4 90.877C4294.26 90.302 4290.02 86.855 4287.56 79.6125C4286.25 75.7593 4285.9 72.9561 4285.91 66.1982C4285.92 60.8299 4286 59.5509 4286.55 57.0074C4287.83 51.0319 4290.14 46.7821 4293.44 44.3587C4294.95 43.2433 4295.33 43.0956 4296.64 43.0956C4297.45 43.0956 4299.1 43.347 4300.31 43.6546C4307.21 45.4181 4311.81 50.4845 4313.07 57.6942L4313.42 59.6785H4328.57H4343.73L4343.64 59.0407L4343.55 58.4029H4351.06C4355.2 58.4029 4358.64 58.3003 4358.72 58.1752C4358.92 57.8504 4358.12 49.3767 4357.61 46.4187C4355.13 32.0823 4347.99 20.9202 4336.34 13.1665C4325.86 6.18501 4311.53 2.79841 4297.08 3.88891ZM605.487 5.60701C605.345 5.88001 604.371 8.78181 603.322 12.0559C602.273 15.3299 601.313 18.1363 601.19 18.2922C601.066 18.4481 592.85 43.1466 582.932 73.1775C573.015 103.209 564.821 127.987 564.723 128.241C564.56 128.664 565.893 128.703 580.735 128.703H596.924L597.1 128L597.277 127.296L603.661 127.22L610.045 127.144L612.571 118.782C613.96 114.182 615.295 109.749 615.536 108.931L615.975 107.443H627.818H639.661L642.874 118.073L646.088 128.703H662.235H678.383L678.205 127.994L678.027 127.286H683.563H689.098V127.995V128.705L726.318 128.633L763.537 128.561L763.628 127.923L763.719 127.286H770.93H778.142V109.285V91.285H755.882H733.621L733.55 48.2689L733.478 5.25261L712.706 5.18011L691.934 5.10721V11.7707V18.4339H690.516H689.098V63.2692C689.098 87.928 689.039 108.045 688.967 107.973C688.895 107.901 681.303 85.015 672.095 57.1145C662.888 29.2142 655.23 6.09941 655.076 5.74871L654.797 5.11091H630.271C607.201 5.11091 605.73 5.14041 605.487 5.60701ZM843.224 5.39301C842.833 6.02511 837.714 21.3355 820.573 73.1432C810.694 102.999 802.521 127.714 802.41 128.065L802.208 128.703H818.386H834.563L834.741 127.994L834.919 127.286H841.247H847.575L847.866 126.364C848.026 125.857 848.938 122.828 849.893 119.632C850.848 116.436 852.074 112.386 852.617 110.632L853.605 107.443H865.341C872.012 107.443 877.146 107.553 877.236 107.699C877.322 107.839 878.487 111.57 879.822 115.99C881.158 120.41 882.57 125.078 882.959 126.364L883.667 128.703H899.82H915.972L915.794 127.994L915.616 127.286H924.154C928.85 127.286 932.692 127.188 932.692 127.069C932.692 126.95 923.659 99.492 912.619 66.0525L892.546 5.25261L867.973 5.18011C851.725 5.13251 843.34 5.20451 843.224 5.39301ZM1353.82 5.46361C1353.83 5.65941 1355.35 8.62591 1357.2 12.0559L1360.57 18.2922L1357.62 18.4339L1354.68 18.5756L1374.8 56.1351L1394.92 93.695L1394.99 111.128L1395.07 128.561L1409.89 128.635L1424.7 128.708V127.997V127.286H1432.08H1439.45V107.666V88.047L1461.57 46.7645C1473.73 24.059 1483.69 5.39841 1483.69 5.29661C1483.69 5.19451 1473.22 5.11091 1460.42 5.11091H1437.15L1436.72 5.89051C1436.49 6.31931 1432.4 14.7701 1427.65 24.6702C1422.89 34.5703 1418.91 42.7603 1418.8 42.8697C1418.69 42.9794 1414.51 34.5604 1409.51 24.1608L1400.42 5.25261L1377.12 5.18011C1358.56 5.12251 1353.81 5.18011 1353.82 5.46361ZM2102.58 11.7015C2101.38 15.3262 2100.3 18.4197 2100.19 18.5756C2099.95 18.8957 2063.89 128.046 2063.89 128.446C2063.89 128.597 2070.52 128.703 2079.92 128.703H2095.95L2096.22 127.994L2096.49 127.286H2102.74C2108.43 127.286 2109.02 127.241 2109.2 126.789C2109.3 126.517 2110.67 122.084 2112.23 116.939L2115.08 107.585H2126.95H2138.82L2141.99 118.073L2145.16 128.561L2161.27 128.634L2177.39 128.708L2177.25 127.996L2177.12 127.286H2182.61H2188.1V127.994V128.703H2225.39H2262.68V127.994V127.286H2269.91H2277.14V109.285V91.285H2254.88H2232.62V48.1963V5.10721L2211.85 5.18011L2191.08 5.25261L2191 11.8433L2190.92 18.4339H2189.51H2188.1L2188.07 63.151L2188.04 107.868L2178.73 79.8047C2173.61 64.3699 2165.96 41.2497 2161.73 28.4261L2154.03 5.11091H2129.4H2104.77L2102.58 11.7015ZM2342.28 5.32351C2342.21 5.44031 2341.3 8.15111 2340.24 11.3472C2339.19 14.5433 2338.15 17.541 2337.94 18.0087C2337.42 19.1701 2301.53 127.946 2301.53 128.367C2301.53 128.622 2305.4 128.703 2317.56 128.703H2333.59L2333.86 128L2334.12 127.296L2340.43 127.22L2346.74 127.144L2349.71 117.293L2352.68 107.443H2364.52H2376.36L2377.07 109.781C2377.46 111.068 2378.87 115.736 2380.21 120.156C2381.54 124.575 2382.71 128.306 2382.79 128.447C2382.88 128.594 2389.76 128.703 2398.99 128.703H2415.02L2414.84 127.994L2414.67 127.286H2423.18C2430.38 127.286 2431.69 127.223 2431.69 126.88C2431.69 126.412 2392.07 6.35931 2391.67 5.60781C2391.42 5.14011 2389.97 5.11091 2366.9 5.11091C2353.43 5.11091 2342.34 5.20671 2342.28 5.32351ZM2852.93 5.58461C2853.03 5.84511 2854.57 8.77901 2856.36 12.1041C2858.15 15.4294 2859.61 18.2097 2859.61 18.2825C2859.61 18.3551 2858.3 18.4509 2856.7 18.4951L2853.79 18.5756L2874 56.2769L2894.2 93.978L2894.21 111.34V128.703H2909.1H2923.99V127.994V127.286H2931.22H2938.45V107.775V88.264L2960.47 47.1835C2972.58 24.5894 2982.55 5.87911 2982.62 5.60531C2982.75 5.13331 2981.56 5.11121 2959.44 5.18011L2936.12 5.25261L2927.02 24.1775C2922.02 34.5865 2917.83 43.0055 2917.72 42.8864C2917.61 42.7676 2913.54 34.379 2908.67 24.245C2903.81 14.111 2899.7 5.66031 2899.54 5.46531C2899.31 5.18691 2894.25 5.11091 2876 5.11091C2854.39 5.11091 2852.76 5.14441 2852.93 5.58461ZM3603.87 5.39301C3603.48 6.02081 3598.39 21.2587 3581.18 73.2849C3571.27 103.219 3563.1 127.934 3563.01 128.207C3562.86 128.675 3563.75 128.703 3579.03 128.703H3595.21L3595.39 127.994L3595.56 127.286H3601.89H3608.22L3608.51 126.364C3608.67 125.857 3609.64 122.637 3610.68 119.207C3611.71 115.777 3612.94 111.727 3613.4 110.207L3614.24 107.443H3626.07H3637.91L3640.53 116.159C3641.98 120.953 3643.42 125.737 3643.73 126.789L3644.3 128.703H3660.46H3676.62L3676.44 127.994L3676.26 127.286H3681.66C3687.04 127.286 3687.06 127.288 3687.15 127.923L3687.24 128.561L3724.46 128.633L3761.68 128.705V127.995V127.286H3769.05H3776.43V109.285V91.285H3754.17H3731.91L3731.83 48.2689L3731.76 5.25261L3710.99 5.18011L3690.22 5.10721V11.7707V18.4339H3688.66H3687.1L3687.03 62.9701L3686.96 107.507L3670.08 56.3795L3653.2 5.25261L3628.62 5.18011C3612.37 5.13251 3603.99 5.20451 3603.87 5.39301ZM3839.15 11.8419C3832.58 31.5168 3800.54 128.309 3800.54 128.49C3800.53 128.607 3807.79 128.703 3816.66 128.703H3832.8L3832.97 127.994L3833.15 127.286H3839.48H3845.81L3848.79 117.435L3851.76 107.585H3863.64H3875.52L3878.69 118.073L3881.86 128.561L3898.01 128.634L3914.17 128.707L3914.03 127.996L3913.9 127.286H3922.44C3927.13 127.286 3930.97 127.19 3930.97 127.073C3930.96 126.956 3921.92 99.499 3910.87 66.0565L3890.78 5.25261L3866.09 5.18041L3841.4 5.10781L3839.15 11.8419ZM4352.1 5.46361C4352.1 5.65941 4353.61 8.62591 4355.45 12.0559L4358.79 18.2922L4355.87 18.3727C4354.26 18.4169 4352.94 18.4954 4352.94 18.547C4352.94 18.5989 4362 35.5486 4373.08 56.2131L4393.21 93.785V111.244V128.703H4408.1H4422.99V127.999V127.295L4430.29 127.22L4437.59 127.144L4437.66 107.549L4437.74 87.955L4456.45 53.0241L4475.17 18.0932L4482 5.11091H4475.17H4455.23H4435.3L4426.28 23.8907C4421.32 34.2197 4417.17 42.7668 4417.06 42.8847C4416.95 43.0026 4412.77 34.5836 4407.76 24.1758L4398.67 5.25261L4375.38 5.18011C4356.84 5.12251 4352.09 5.18011 4352.1 5.46361ZM69.215 6.74091C69.094 7.16971 61.103 36.8273 51.459 72.6471L33.924 137.774H30.574C28.731 137.774 27.224 137.7 27.224 137.611C27.224 137.479 60.093 15.2242 60.58 13.5441C60.715 13.0789 60.151 13.048 51.507 13.048H42.289L42.849 10.9929C43.157 9.86271 43.599 8.26821 43.831 7.44951L44.254 5.96131H56.846H69.437L69.215 6.74091ZM131.759 6.59911C129.548 15.0626 96.46 137.541 96.357 137.645C96.276 137.726 94.74 137.756 92.945 137.712L89.681 137.632L106.371 75.6944C115.55 41.6287 123.063 13.5974 123.067 13.4024C123.072 13.1263 121.073 13.048 113.999 13.048C109.008 13.048 104.924 12.9678 104.924 12.87C104.924 12.7719 105.327 11.1774 105.82 9.32661L106.715 5.96131H119.32H131.926L131.759 6.59911ZM1568.37 6.59911C1565.41 17.8497 1533.07 137.541 1532.97 137.644C1532.89 137.726 1531.35 137.756 1529.56 137.712L1526.29 137.632L1542.98 75.6944C1552.16 41.6287 1559.68 13.5974 1559.68 13.4024C1559.68 13.1263 1557.69 13.048 1550.61 13.048C1545.62 13.048 1541.54 12.9678 1541.54 12.87C1541.54 12.7719 1541.94 11.1774 1542.43 9.32661L1543.33 5.96131H1555.93H1568.54L1568.37 6.59911ZM1630.8 6.63681C1630.73 7.00851 1622.77 36.6657 1613.12 72.5423L1595.56 137.772L1592.23 137.773C1590.39 137.773 1588.89 137.665 1588.89 137.531C1588.89 137.398 1596.35 109.598 1605.47 75.7548C1614.58 41.911 1622.08 13.9886 1622.13 13.7051C1622.21 13.217 1621.73 13.1858 1613.04 13.1149C1605.39 13.0526 1603.89 12.9752 1604.02 12.6497C1604.1 12.4352 1604.51 10.9382 1604.93 9.32301C1605.36 7.70801 1605.76 6.29071 1605.82 6.17391C1605.89 6.05711 1611.57 5.96131 1618.44 5.96131H1630.93L1630.8 6.63681ZM3067.42 6.63291C3067.34 7.00221 3059.39 36.6598 3049.73 72.538L3032.17 137.772L3028.84 137.773C3027.01 137.773 3025.51 137.666 3025.51 137.535C3025.51 137.403 3032.97 109.578 3042.09 75.7015C3051.22 41.8248 3058.71 13.901 3058.75 13.6487C3058.82 13.2348 3057.92 13.1824 3049.65 13.1149C3042 13.0526 3040.5 12.9752 3040.63 12.6497C3040.71 12.4352 3041.12 10.9382 3041.55 9.32301C3041.97 7.70801 3042.37 6.29071 3042.43 6.17391C3042.5 6.05711 3048.18 5.96131 3055.05 5.96131H3067.54L3067.42 6.63291ZM3130.03 6.45741C3129.92 6.84151 3096.18 132.124 3094.96 136.711L3094.68 137.774H3091.27C3088.15 137.774 3087.87 137.731 3088.01 137.278C3088.21 136.638 3120.98 14.8605 3121.23 13.8276L3121.42 13.048H3112.31C3105.48 13.048 3103.21 12.9641 3103.21 12.7118C3103.21 12.5267 3103.46 11.4745 3103.76 10.3732C3104.06 9.27191 3104.45 7.82881 3104.62 7.16611L3104.93 5.96131H3117.56C3129.45 5.96131 3130.18 5.98991 3130.03 6.45741ZM385.892 9.94551C401.381 11.6284 414.98 19.6996 422.052 31.4071C424.622 35.6619 426.675 41.3492 427.217 45.7177L427.419 47.3476L422.353 47.3448L417.287 47.3422L416.333 44.7964C414.37 39.5576 411.195 34.8889 406.56 30.4263C398.407 22.5765 387.538 18.0127 374.608 17.0092C363.264 16.1285 351.273 18.7412 341.997 24.1146L340.437 25.018L341.855 23.5451C343.463 21.8744 347.521 18.7627 350.131 17.1988C356.04 13.6578 364.652 10.765 371.631 9.97661C374.867 9.61131 382.657 9.59421 385.892 9.94551ZM990.483 9.95231C1009.31 12.042 1024.48 22.964 1030.04 38.4243C1030.8 40.5637 1031.95 45.4665 1031.95 46.6341V47.3476H1026.89H1021.84L1021.33 45.7424C1020.53 43.19 1017.93 38.3458 1015.95 35.7186C1012.03 30.4986 1005.5 25.1578 999.525 22.2732C991.083 18.2003 980.582 16.2742 970.786 17.001C962.7 17.6011 956.114 19.3821 949.198 22.8393C945.338 24.7688 945.189 24.819 946.078 23.8884C952.698 16.9675 965.132 11.2293 976.222 9.97661C979.482 9.60841 987.267 9.59511 990.483 9.95231ZM1312.27 10.0716C1321.17 11.0992 1329.81 14.2763 1336.29 18.9124C1339.1 20.9233 1343.54 25.2541 1345.51 27.9131C1350.09 34.1085 1353.08 41.9966 1354.04 50.3949L1354.27 52.4501H1349.37H1344.47L1344.17 51.2453C1344.01 50.5826 1343.49 48.8469 1343.03 47.3879C1338.53 33.3287 1326.71 22.7177 1311.13 18.7426C1301.51 16.29 1290.29 16.2265 1280.93 18.5714C1276.76 19.6145 1273.48 20.8615 1269.3 22.9821L1265.47 24.9262L1267.74 22.786C1274.86 16.0686 1285.85 11.2233 1296.81 9.96421C1300.33 9.56021 1308.31 9.61551 1312.27 10.0716ZM1886 10.0764C1901.36 12.0505 1914.48 20.0894 1921.37 31.7453C1923.86 35.9562 1925.69 41.104 1926.31 45.6355L1926.55 47.3601L1921.47 47.283L1916.4 47.2059L1915.33 44.5129C1910.06 31.1389 1897.36 21.2898 1881.16 18.0107C1876.09 16.9854 1870.24 16.6189 1865.15 17.0081C1857.04 17.6286 1850.45 19.4178 1843.59 22.8682C1838.92 25.2113 1838.96 24.9508 1843.9 20.9701C1851.06 15.1896 1860.06 11.445 1870.06 10.0895C1873.99 9.55741 1881.91 9.55091 1886 10.0764ZM2490.59 10.0764C2501.93 11.534 2511.7 16.0519 2519.18 23.2951C2526.04 29.9365 2529.4 36.471 2531.06 46.4326L2531.22 47.3604L2526.09 47.283L2520.96 47.2059L2520.18 45.0799C2518.33 40.0152 2515.31 35.3986 2511.11 31.1993C2503.65 23.7529 2494.22 19.195 2482.6 17.4279C2478.76 16.8445 2470.37 16.762 2466.57 17.2706C2458.86 18.3032 2451.89 20.6056 2445.57 24.2056L2443.74 25.2422L2445.87 23.2472C2453.19 16.3793 2463.76 11.5275 2474.51 10.0999C2478.59 9.55851 2486.47 9.54691 2490.59 10.0764ZM2810.41 9.93161C2822.42 11.2505 2832.46 15.6157 2839.95 22.7704C2847.59 30.0697 2851.7 38.7931 2853.24 50.9618L2853.43 52.4501H2848.51H2843.59L2842.97 50.0723C2840.55 40.7057 2834.96 32.4114 2827.14 26.5876C2822.72 23.2883 2816.09 20.1931 2810.32 18.7355C2804.16 17.1781 2796.63 16.5262 2790.26 16.9993C2782.18 17.5982 2775.6 19.3804 2768.64 22.8495L2764.47 24.9253L2766.32 23.2359C2774.18 16.025 2783.88 11.5967 2795.1 10.0863C2798.51 9.62771 2806.88 9.54291 2810.41 9.93161ZM3387.8 10.4617C3398.52 12.478 3407.04 16.7257 3414.02 23.5363C3420.29 29.6496 3424.5 37.8319 3425.5 45.8594L3425.69 47.3476H3420.61H3415.52L3415.16 46.1429C3414.97 45.4801 3414.25 43.7762 3413.57 42.3563C3407.21 29.0535 3393.66 19.8212 3376.95 17.4072C3372.49 16.7631 3364.24 16.7691 3359.99 17.4197C3352.82 18.5155 3345.79 20.8763 3340.55 23.9482C3339.58 24.5143 3338.75 24.931 3338.69 24.8743C3338.52 24.7036 3343.28 20.6708 3345.68 18.9572C3352.03 14.4192 3361.17 11.0408 3370.06 9.94661C3373.8 9.48541 3384.22 9.78791 3387.8 10.4617ZM3988.77 9.94551C3997.47 10.8911 4006.61 14.253 4013.21 18.9373C4018.6 22.7633 4023.64 28.5435 4026.44 34.1037C4027.64 36.4883 4029.18 41.0544 4029.78 44.005C4030.54 47.6926 4031.01 47.3476 4025.16 47.3476H4020.09L4019.32 45.1508C4016.07 35.9993 4007.76 27.1452 3997.9 22.3409C3990.26 18.6153 3982.28 16.8944 3972.8 16.9278C3962.46 16.9644 3953.02 19.3923 3944.87 24.1152L3943.31 25.0191L3944.59 23.6832C3951.11 16.8544 3963.43 11.2293 3974.65 9.96051C3977.76 9.60871 3985.59 9.60051 3988.77 9.94551ZM4310.41 10.058C4330.36 12.4678 4344.64 23.4847 4350.22 40.7774C4351.24 43.9253 4352.38 49.5811 4352.38 51.486V52.4501H4347.57H4342.76L4342.45 51.2453C4339.58 40.1161 4333.62 31.4987 4324.62 25.4747C4319.76 22.2261 4315.26 20.2609 4309.08 18.6955C4300.49 16.5196 4290.37 16.2827 4281.34 18.0458C4276.65 18.9614 4270.18 21.3715 4265.82 23.8317L4263.76 24.9934L4265.17 23.5307C4269.18 19.4011 4277.49 14.4781 4284.03 12.3666C4287.31 11.3087 4291.8 10.3304 4295.09 9.95961C4298.49 9.57611 4306.86 9.63001 4310.41 10.058ZM222.752 11.7446C231.19 13.0783 238.215 15.5332 244.304 19.2764C255.244 26.0019 263.077 37.4095 265.974 50.8357C267.335 57.1468 267.83 67.2763 267.119 74.3179C265.768 87.709 260.451 99.355 252.055 107.312C249.9 109.355 246.11 112.32 245.91 112.119C245.847 112.057 246.371 111.33 247.072 110.504C250.431 106.552 253.602 100.735 255.501 95.041C257.802 88.143 258.696 82.202 258.71 73.7101C258.72 67.4685 258.421 64.2293 257.329 58.7555C253.334 38.7404 239.345 24.5458 219.155 20.0191C212.673 18.566 210.192 18.4339 189.362 18.4339H170.148V14.7318V11.03L194.89 11.1408C216.65 11.2381 220.008 11.3109 222.752 11.7446ZM311.37 66.1982V121.333H306.975H302.579V69.8833V18.4339H291.945H281.311V14.7488V11.0637H296.34H311.37V66.1982ZM472.727 66.1982V121.333H468.331H463.936V69.8833V18.4339H453.302H442.667V14.7488V11.0637H457.697H472.727V66.1982ZM579.636 23.1111V35.1585H575.241H570.845V26.7962V18.4339H527.316H483.786V14.7488V11.0637H531.711H579.636V23.1111ZM668.776 65.7691C678.713 95.857 686.919 120.67 687.011 120.91C687.158 121.294 686.515 121.336 681.562 121.268L675.947 121.191L667.895 96.813C663.467 83.4047 655.828 60.2845 650.92 45.4342L641.995 18.4339H624.681C610.947 18.4339 607.394 18.3605 607.499 18.0796C607.572 17.8848 608.124 16.2265 608.725 14.3945L609.819 11.0637H630.263H650.708L668.776 65.7691ZM727.665 54.1509V97.238H749.926H772.186V109.285V121.333H767.933H763.679V112.972V104.612L741.347 104.539L719.015 104.466L718.944 61.4502L718.872 18.4339H708.38H697.889V14.7488V11.0637H712.777H727.665V54.1509ZM901.903 52.2389C909.378 74.8837 917.563 99.693 920.09 107.372L924.685 121.333L919.118 121.329L913.551 121.326L902.683 88.376C896.705 70.2538 889.064 47.103 885.702 36.9302L879.589 18.4339H862.328C852.834 18.4339 845.066 18.3384 845.066 18.2216C845.066 18.1051 845.587 16.4468 846.224 14.5365L847.382 11.0637L867.847 11.0652L888.312 11.0666L901.903 52.2389ZM1126.94 23.1111V35.1585H1122.55H1118.15V26.7962V18.4339H1082.71H1047.26V14.7488V11.0637H1087.1H1126.94V23.1111ZM1182.74 34.0955L1198.4 57.1273L1198.4 66.5526C1198.41 75.3474 1198.37 75.977 1197.91 75.9634C1197.57 75.9538 1191.08 66.607 1177.96 47.2623L1158.5 18.5756L1150.09 18.5005L1141.69 18.4254V14.7446V11.0637H1154.39H1167.09L1182.74 34.0955ZM1236.97 66.1982V121.333H1232.72H1228.47V69.8833V18.4339H1217.83H1207.2V14.7488V11.0637H1222.09H1236.97V66.1982ZM1406.32 31.0482C1411.58 41.9617 1415.89 51.0517 1415.9 51.2481C1415.91 51.4446 1414.67 54.2186 1413.15 57.4127C1411.35 61.1868 1410.23 63.2181 1409.96 63.2142C1409.67 63.2102 1405.9 55.6524 1398.78 40.8211L1388.03 18.4339H1377.65H1367.27L1365.43 14.9677C1364.42 13.0613 1363.55 11.4019 1363.5 11.2803C1363.44 11.1587 1370.91 11.0921 1380.08 11.1323L1396.76 11.2055L1406.32 31.0482ZM1472.67 13.6858C1471.9 15.1278 1462.76 32.1696 1452.38 51.556L1433.49 86.804V104.068V121.333H1429.1H1424.7V107.757V94.181L1444.96 56.3783L1465.21 18.5756L1451.2 18.4339L1437.19 18.2922L1438.94 14.678L1440.68 11.0637H1457.38H1474.08L1472.67 13.6858ZM1717.92 11.3614C1724.7 11.9762 1730.66 13.3457 1735.92 15.4975C1752.85 22.4288 1763.34 36.6062 1766.04 56.2352C1766.63 60.4759 1766.7 71.128 1766.17 75.2692C1764.94 84.841 1762.05 92.955 1757.32 100.083C1755.27 103.162 1749.2 109.407 1746.34 111.375L1744.55 112.604L1746.65 109.919C1749.24 106.603 1750.39 104.724 1752.36 100.598C1754.82 95.431 1756.48 89.627 1757.39 83.0646C1757.95 78.992 1757.87 67.3006 1757.26 63.2054C1755.4 50.7552 1751.03 41.3826 1743.49 33.6451C1736 25.9631 1726.4 21.2584 1713.81 19.1023C1711.36 18.6814 1708.2 18.6023 1690.2 18.5099L1669.43 18.4036V14.7335V11.0637L1692.05 11.0646C1705.47 11.0652 1715.99 11.1859 1717.92 11.3614ZM1810.37 66.1982V121.333H1806.12H1801.86V69.8833V18.4339H1791.23H1780.59V14.7488V11.0637H1795.48H1810.37V66.1982ZM1971.73 66.1982V121.333H1967.33H1962.94V69.8833V18.4339H1952.44H1941.95V14.7488V11.0637H1956.84H1971.73V66.1982ZM2078.92 23.1111V35.1585H2074.52H2070.13V26.7962V18.4339H2026.6H1983.07V14.7488V11.0637H2031H2078.92V23.1111ZM2167.99 66.0565C2177.95 96.225 2186.11 121.003 2186.11 121.12C2186.11 121.237 2183.64 121.333 2180.61 121.333H2175.11L2168.25 100.569C2164.48 89.148 2156.84 65.9992 2151.28 49.1258L2141.17 18.4469L2123.94 18.4404C2109.97 18.435 2106.71 18.3639 2106.71 18.0643C2106.71 17.7726 2108.18 13.1628 2108.83 11.4161C2108.94 11.1338 2113.2 11.0751 2129.42 11.1326L2149.88 11.2055L2167.99 66.0565ZM2226.73 54.08L2226.81 97.096L2249.14 97.169L2271.47 97.241V109.287V121.333H2267.07H2262.68V112.97V104.608H2240.42H2218.16V61.521V18.4339H2207.52H2196.89V14.7488V11.0637H2211.78H2226.66L2226.73 54.08ZM2389.83 18.363C2392.91 27.6452 2423.33 119.839 2423.6 120.701L2423.79 121.345L2418.22 121.268L2412.65 121.191L2395.71 69.8833L2378.76 18.5756L2361.38 18.5025C2347.68 18.445 2344.04 18.3551 2344.14 18.0773C2344.21 17.8837 2344.76 16.2265 2345.37 14.3945L2346.46 11.0637H2366.93H2387.41L2389.83 18.363ZM2625.94 23.1111V35.1585H2621.55H2617.15V26.7962V18.4339H2581.85H2546.54V14.7488V11.0637H2586.24H2625.94V23.1111ZM2681.85 34.0924L2697.41 56.9793V66.4786C2697.41 74.4267 2697.34 75.9779 2697.01 75.9779C2696.79 75.9779 2687.83 63.0353 2677.09 47.2167L2657.56 18.4552L2649.2 18.3738L2640.83 18.2922L2640.75 14.6751L2640.67 11.0581L2653.49 11.1318L2666.3 11.2055L2681.85 34.0924ZM2736.26 66.1982V121.333H2731.86H2727.47V69.8867V18.4407L2716.9 18.3664L2706.34 18.2922L2706.26 14.678L2706.18 11.0637H2721.22H2736.26V66.1982ZM2905.5 31.2019L2915.18 51.3403L2912.35 57.21C2910.44 61.1879 2909.38 63.0801 2909.07 63.0801C2908.76 63.0801 2905.43 56.4455 2897.92 40.8279L2887.22 18.5756L2876.84 18.5014L2866.46 18.4268L2865.26 16.2336C2864.61 15.0272 2863.7 13.3706 2863.24 12.5519L2862.41 11.0637H2879.11H2895.82L2905.5 31.2019ZM2973.05 11.2055C2973.05 11.2834 2963.99 28.2572 2952.91 48.9246L2932.78 86.502V103.917V121.333H2928.38H2923.99V107.592V93.851L2944.12 56.2868C2955.19 35.6262 2964.25 18.6573 2964.25 18.5779C2964.25 18.4988 2958 18.4339 2950.36 18.4339C2941.14 18.4339 2936.46 18.337 2936.46 18.1462C2936.46 17.9877 2937.23 16.3294 2938.17 14.4611L2939.87 11.0637H2956.46C2965.58 11.0637 2973.05 11.1275 2973.05 11.2055ZM3220.76 11.7089C3233.99 13.8369 3243.08 18.1601 3250.97 26.0634C3259.41 34.5244 3264.18 45.4118 3265.44 59.0767C3265.86 63.5892 3265.63 73.3082 3265.01 77.2535C3263.14 89.221 3258.52 98.977 3251.24 106.324C3248.82 108.767 3244.57 112.262 3244.03 112.262C3243.91 112.262 3244.35 111.656 3245 110.915C3248.28 107.203 3252.06 100.283 3253.92 94.586C3256.03 88.157 3256.91 81.9639 3256.91 73.5684C3256.91 70.516 3256.77 66.7796 3256.61 65.2659C3253.75 38.9853 3236.82 21.9376 3210.53 18.8625C3207.6 18.5204 3202.99 18.4339 3187.65 18.4339H3168.43V14.7318V11.03L3193.17 11.1403C3214.22 11.2341 3218.34 11.3189 3220.76 11.7089ZM3309.65 66.1982V121.333H3305.26H3300.86V69.8833V18.4339H3290.23H3279.59V14.7488V11.0637H3294.62H3309.65V66.1982ZM3470.73 66.1982V121.333H3466.47H3462.22V69.8833V18.4339H3451.59H3440.95V14.7488V11.0637H3455.84H3470.73V66.1982ZM3577.92 23.1111V35.1585H3573.52H3569.13V26.7962V18.4339H3525.6H3482.07V14.7488V11.0637H3530H3577.92V23.1111ZM3663.4 54.7889C3671.34 78.8375 3679.52 103.648 3681.58 109.923L3685.33 121.333L3679.76 121.328L3674.2 121.323L3663.75 89.651C3658.01 72.2304 3650.37 49.0805 3646.78 38.2058L3640.25 18.4339H3622.98C3613.48 18.4339 3605.71 18.3384 3605.71 18.2216C3605.71 18.1051 3606.23 16.4468 3606.87 14.5365L3608.03 11.0637L3628.49 11.064H3648.96L3663.4 54.7889ZM3725.95 54.1509V97.238H3748.21H3770.47V109.285V121.333H3766.08H3761.68V112.97V104.608H3739.42H3717.16V61.5244V18.4407L3706.59 18.3664L3696.03 18.2922L3695.95 14.678L3695.87 11.0637H3710.91H3725.95V54.1509ZM3904.76 66.2691L3922.95 121.333H3917.38H3911.81L3894.82 69.8833L3877.83 18.4339H3860.59C3851.11 18.4339 3843.35 18.3582 3843.35 18.2658C3843.35 18.0444 3845.38 11.5513 3845.53 11.2744C3845.6 11.1564 3854.86 11.0927 3866.11 11.1326L3886.57 11.2055L3904.76 66.2691ZM4124.94 23.1111V35.1585H4120.69H4116.44V26.7962V18.4339H4080.99H4045.54V14.7488V11.0637H4085.24H4124.94V23.1111ZM4181.02 34.1528L4196.69 57.2313V66.6047C4196.69 75.3449 4196.66 75.9776 4196.19 75.9719C4195.86 75.968 4189.49 66.8168 4176.17 47.1999L4156.64 18.4339H4148.31H4139.97V14.7488V11.0637L4152.66 11.0691L4165.35 11.0742L4181.02 34.1528ZM4235.26 66.1982V121.333H4231H4226.75V69.8833V18.4339H4216.12H4205.48V14.7488V11.0637H4220.37H4235.26V66.1982ZM4404.6 31.1599C4409.88 42.1349 4414.2 51.2172 4414.2 51.3428C4414.2 51.9908 4408.51 63.2218 4408.18 63.2218C4407.96 63.2218 4403.4 54.0553 4397.04 40.8279L4386.28 18.4339H4375.91H4365.54L4363.64 14.9127C4362.59 12.976 4361.73 11.3169 4361.73 11.2253C4361.73 11.134 4369.22 11.0921 4378.37 11.1323L4395 11.2055L4404.6 31.1599ZM4471.53 12.5519C4471.07 13.3706 4461.94 30.3903 4451.24 50.3736L4431.78 86.707V104.02V121.333H4427.38H4422.99L4423 107.655L4423.01 93.978L4443.23 56.2769L4463.45 18.5756L4449.46 18.5022C4441.76 18.4617 4435.46 18.3809 4435.46 18.3228C4435.46 18.2647 4436.24 16.6075 4437.19 14.6403L4438.92 11.0637H4455.65H4472.37L4471.53 12.5519ZM546.457 81.9307V121.333H542.062H537.666V81.9307V42.5287H542.062H546.457V81.9307ZM1077.32 48.3398V54.1509H1100H1122.69V66.1982V78.2456H1118.29H1113.9V69.8833V61.521H1091.21H1068.53V52.0248V42.5287H1072.92H1077.32V48.3398ZM2045.74 81.9307V121.333H2041.35H2036.95V81.9307V42.5287H2041.35H2045.74V81.9307ZM2576.32 48.3398V54.1509H2599H2621.69V66.1982V78.2456H2617.44H2613.18V69.885V61.5244L2590.43 61.4519L2567.67 61.3793L2567.59 51.954L2567.52 42.5287H2571.92H2576.32V48.3398ZM3544.74 81.9307V121.333H3540.35H3535.95V81.9307V42.5287H3540.35H3544.74V81.9307ZM4075.6 48.3398V54.1509H4098.29H4120.97V66.1982V78.2456H4116.58H4112.18V69.8833V61.521H4089.5H4066.81V52.0248V42.5287H4071.21H4075.6V48.3398ZM377.672 43.8139C381.833 45.0141 385.483 48.0007 387.222 51.6277L388.228 53.7257L381.135 53.8013L374.041 53.877V60.3772V66.8771L372.552 66.963L371.064 67.0486V77.6787V88.309L380.705 88.45L390.347 88.592L388.87 89.233C386.047 90.457 384.048 90.811 379.854 90.828C376.802 90.84 375.491 90.726 374.183 90.331C369.78 89.003 366.849 86.424 364.794 82.0724C362.667 77.5693 361.847 73.0848 361.847 65.9587C361.847 59.1246 362.897 53.8297 365.056 49.769C366.186 47.6453 368.911 44.7006 370.685 43.6881C371.941 42.9715 372.173 42.9329 374.045 43.133C375.152 43.2512 376.784 43.5577 377.672 43.8139ZM982.584 43.9225C987.074 45.2894 990.729 48.5654 992.335 52.6627L992.807 53.8674H985.719H978.632V60.3871V66.9069H977.214H975.796V77.6787V88.45L985.367 88.464L994.938 88.477L993.596 89.175C991.329 90.355 988.814 90.809 984.446 90.826C980.032 90.844 978.345 90.493 975.43 88.947C972.386 87.332 969.653 83.6193 968.173 79.0878C967.087 75.7656 966.701 73.0959 966.533 67.7573C966.21 57.5145 968.063 50.6475 972.374 46.1103C973.242 45.1961 974.554 44.1036 975.289 43.683C976.537 42.9689 976.761 42.9326 978.674 43.137C979.801 43.2572 981.56 43.6107 982.584 43.9225ZM1877.48 44.094C1878.65 44.4863 1880.27 45.2324 1881.07 45.752C1883.71 47.4522 1886.25 50.6251 1887.06 53.2296L1887.26 53.8674H1880.15H1873.04V60.3871V66.9069H1871.62H1870.21V77.675V88.443L1879.78 88.518L1889.35 88.592L1887.99 89.235C1886.04 90.161 1883.53 90.685 1880.13 90.878C1867.81 91.576 1861.65 84.285 1860.95 68.1825C1860.44 56.5938 1863.53 47.7346 1869.38 43.9494L1870.99 42.9128L1873.17 43.1466C1874.37 43.2753 1876.31 43.7017 1877.48 44.094ZM2482.07 44.0761C2485.93 45.2999 2488.96 47.8142 2490.8 51.3179C2491.36 52.3761 2491.81 53.3824 2491.81 53.5544C2491.81 53.7744 2489.7 53.8674 2484.72 53.8674H2477.63V60.3871V66.9069H2476.21H2474.8V77.675V88.443L2484.37 88.518L2493.94 88.592L2492.58 89.235C2487.88 91.468 2479.63 91.489 2475.14 89.28C2469.74 86.623 2466.47 80.0136 2465.67 70.0988C2464.68 57.9037 2467.85 47.9046 2473.98 43.9494C2475.58 42.9131 2475.58 42.9128 2477.71 43.141C2478.88 43.2665 2480.84 43.6872 2482.07 44.0761ZM3374.68 43.5483C3379.43 44.6011 3383.46 47.5347 3385.32 51.2907C3385.82 52.2899 3386.22 53.2786 3386.22 53.4875C3386.22 53.7948 3384.89 53.8674 3379.27 53.8674H3372.33V60.3724V66.8771L3370.84 66.963L3369.35 67.0486V77.6787V88.309L3378.85 88.45C3386.97 88.572 3388.25 88.647 3387.68 88.971C3384.38 90.853 3376.91 91.501 3372.35 90.3C3368.85 89.376 3365.81 87.054 3363.85 83.7886C3362.51 81.5778 3361.07 77.1874 3360.56 73.83C3360 70.1444 3360 61.9286 3360.55 58.5282C3361.44 53.0703 3363.31 48.8188 3366.09 45.968C3368.94 43.0537 3370.48 42.618 3374.68 43.5483ZM3980.78 43.9021C3984.96 45.1947 3988.37 48.0268 3990.1 51.6277L3991.1 53.7257L3984.01 53.8013L3976.92 53.877V60.3772V66.8771L3975.43 66.963L3973.94 67.0486V77.6787V88.309L3983.44 88.45L3992.94 88.592L3991.63 89.226C3989.14 90.435 3986.98 90.816 3982.59 90.821C3978.84 90.826 3978.28 90.758 3976.25 90.054C3972.39 88.719 3969.82 86.429 3967.89 82.602C3965.65 78.1303 3964.73 73.3589 3964.72 66.1478C3964.72 59.0636 3965.51 54.7215 3967.57 50.5395C3968.84 47.9639 3971.18 45.2018 3973.23 43.872C3974.44 43.0848 3974.62 43.052 3976.77 43.2042C3978.02 43.2921 3979.83 43.6061 3980.78 43.9021ZM200.138 69.8125L200.21 95.821H207.957C216.115 95.821 219.25 95.51 222.551 94.375C223.415 94.078 224.159 93.873 224.206 93.919C224.252 93.966 223.722 94.728 223.027 95.612C219.838 99.675 214.913 102.042 207.871 102.899C206.55 103.059 202.306 103.191 198.442 103.191H191.416V73.4193V43.6478L195.741 43.726L200.065 43.8043L200.138 69.8125ZM1699.21 69.7416V95.821L1706.93 95.819C1715.02 95.818 1718.05 95.533 1721.56 94.44L1723.31 93.897L1722.81 94.744C1721.83 96.423 1718.61 99.136 1716.17 100.334C1711.56 102.601 1707.72 103.191 1697.58 103.191H1690.42V73.6157C1690.42 57.3492 1690.5 43.9554 1690.61 43.8516C1690.71 43.7476 1692.69 43.6625 1695 43.6625H1699.21V69.7416ZM3198.21 69.7416V95.821H3206.11C3214.36 95.821 3216.91 95.577 3220.56 94.44C3221.53 94.141 3222.31 93.978 3222.31 94.079C3222.31 94.179 3221.74 94.991 3221.04 95.882C3218.77 98.773 3214.96 100.994 3210.26 102.17C3207.18 102.939 3203.85 103.191 3196.73 103.191H3189.7V73.4267V43.6625H3193.95H3198.21V69.7416ZM212.081 44.9622C218.494 46.5774 222.475 49.6449 225.128 55.0146C226.793 58.3842 227.786 61.9652 228.251 66.2802C228.877 72.0958 228.479 82.4302 227.559 84.22C226.963 85.379 224.955 87.027 223.07 87.904C219.691 89.476 215.646 90.137 209.352 90.146L205.879 90.151V67.0209V43.8905L207.651 44.0917C208.626 44.2023 210.619 44.5943 212.081 44.9622ZM1708.46 44.3786C1717.64 45.9564 1723.17 50.4967 1725.83 58.6475C1727.35 63.3049 1728.03 70.8644 1727.56 77.9622C1727.17 83.7571 1727.06 84.098 1725.04 85.972C1722.03 88.755 1718.13 89.834 1710.2 90.078L1705.16 90.233V67.0892C1705.16 47.6906 1705.23 43.946 1705.55 43.946C1705.76 43.946 1707.07 44.1408 1708.46 44.3786ZM3210.26 44.9407C3219.37 47.2175 3224.22 52.9305 3226.17 63.6632C3226.57 65.8774 3226.68 67.9708 3226.68 73.4267C3226.68 83.4308 3226.35 84.669 3223.07 86.929C3220.06 88.998 3216.49 89.812 3209.34 90.058L3204.16 90.236V67.0767V43.9179L3205.94 44.1099C3206.91 44.2153 3208.86 44.5892 3210.26 44.9407ZM359.73 47.4233C357.363 52.0231 356.237 57.0184 355.98 64.0722C355.662 72.796 357.193 80.7648 360.23 86.182C361.871 89.107 365.586 92.824 368.228 94.181C372.126 96.185 373.811 96.529 379.713 96.529C383.91 96.529 385.373 96.423 387.028 96C388.166 95.708 389.156 95.528 389.227 95.598C389.559 95.93 386.873 99.062 385.284 100.196C383.122 101.738 381.423 102.489 378.437 103.223C375.53 103.938 369.524 104.226 366.668 103.787C359.935 102.752 354.905 99.369 351.654 93.689C348.242 87.729 346.602 78.4015 347.346 69.1928C348.106 59.7836 350.678 53.2398 355.407 48.6864C356.871 47.2762 360.671 44.6601 360.909 44.8985C360.953 44.9421 360.423 46.0785 359.73 47.4233ZM965.018 46.1732C963.268 49.0164 961.763 53.5502 961.005 58.2611C960.408 61.9697 960.56 71.4673 961.278 75.4109C963.331 86.672 968.306 93.173 976.931 95.865C978.851 96.465 979.581 96.529 984.446 96.524C988.762 96.519 990.218 96.415 991.767 95.999C992.83 95.714 993.758 95.539 993.829 95.61C994.168 95.948 991.855 98.673 990.099 100.005C986.567 102.685 981.58 104.048 975.371 104.03C962.391 103.992 954.677 96.481 952.368 81.6325C951.735 77.5628 951.742 69.2078 952.382 65.0644C953.793 55.9234 958.162 48.7721 964.309 45.5405C965.088 45.1312 965.757 44.7964 965.795 44.7964C965.834 44.7964 965.485 45.4161 965.018 46.1732ZM1285.27 47.8437C1282.75 53.0221 1281.78 58.1166 1281.78 66.2595C1281.78 74.5756 1282.79 80.0051 1285.32 85.191C1287.85 90.396 1291.99 94.014 1297.54 95.873C1299.31 96.465 1300 96.528 1304.61 96.517C1308.37 96.507 1310.1 96.388 1311.2 96.062C1312.02 95.819 1312.69 95.674 1312.69 95.74C1312.69 95.806 1312.31 96.414 1311.84 97.091C1309.93 99.868 1306.15 102.34 1302.2 103.393C1299.55 104.097 1292.28 104.09 1289.72 103.381C1283.72 101.718 1279.18 97.895 1276.37 92.125C1275.33 90.004 1274.25 86.501 1273.69 83.4541C1272.98 79.6165 1272.82 70.4347 1273.38 66.1665C1274.68 56.3571 1278.81 49.0226 1284.94 45.6443C1285.77 45.1836 1286.52 44.8044 1286.61 44.8015C1286.69 44.7987 1286.09 46.1678 1285.27 47.8437ZM1859 47.135C1855.93 52.9254 1854.57 60.9623 1855.17 69.8382C1856.02 82.4384 1860.22 90.622 1867.78 94.397C1871.2 96.102 1872.82 96.451 1878 96.594C1881.81 96.699 1883 96.626 1885.36 96.139C1886.92 95.82 1888.24 95.609 1888.3 95.67C1888.36 95.731 1888.02 96.35 1887.54 97.046C1885.6 99.861 1882.13 102.047 1877.72 103.235C1875.82 103.747 1874.62 103.85 1870.35 103.873C1865.84 103.896 1864.98 103.825 1863.03 103.259C1854.33 100.738 1849.17 94.163 1847.06 82.9228C1846.31 78.924 1846.3 67.6556 1847.04 63.9662C1848.48 56.8551 1850.86 52.1391 1854.95 48.3264C1856.3 47.0588 1859.52 44.8979 1860.19 44.8041C1860.22 44.7998 1859.69 45.8489 1859 47.135ZM2463.42 47.5602C2461.78 50.8249 2460.81 54.0859 2460.17 58.4695C2459.51 62.946 2459.74 72.6293 2460.6 76.6267C2461.83 82.3072 2463.96 86.938 2466.89 90.26C2469.49 93.212 2474.01 95.63 2478.36 96.392C2481.23 96.895 2488.5 96.619 2491.16 95.907L2493.21 95.36L2492.58 96.475C2491 99.295 2486.79 102.055 2482.31 103.21C2477.46 104.459 2469.84 104.191 2465.65 102.624C2456.18 99.084 2451 88.804 2450.98 73.512C2450.97 61.8643 2453.7 53.7461 2459.44 48.4395C2460.91 47.0735 2463.98 44.9787 2464.76 44.8041C2464.78 44.7998 2464.18 46.04 2463.42 47.5602ZM2784.92 46.5681C2783.63 48.8747 2782.09 53.5618 2781.45 57.1273C2780.75 61.015 2780.73 71.5065 2781.42 75.4143C2783.53 87.426 2789.18 94.313 2798.53 96.243C2802.17 96.994 2808.89 96.692 2811.51 95.66C2812.43 95.295 2811.52 96.607 2809.31 98.829C2807.1 101.042 2804.56 102.51 2801.46 103.373C2798.86 104.095 2791.64 104.091 2788.86 103.367C2778.33 100.624 2772.83 91.636 2772.1 75.9779C2771.69 67.4333 2773.29 59.0067 2776.33 53.5851C2777.76 51.0293 2781.63 47.0012 2783.9 45.7018C2784.76 45.2108 2785.56 44.8061 2785.68 44.8027C2785.81 44.7993 2785.47 45.5938 2784.92 46.5681ZM3357.84 47.7737C3355.06 53.4456 3354.02 59.2093 3354.26 67.7573C3354.64 81.5701 3358.94 90.543 3367.08 94.516C3370.7 96.286 3372.09 96.532 3378.28 96.505C3382.97 96.485 3384.1 96.394 3385.72 95.906C3386.78 95.589 3387.64 95.379 3387.64 95.439C3387.64 95.499 3387.32 96.049 3386.94 96.66C3385.07 99.608 3381.14 102.133 3376.68 103.246C3373.33 104.082 3365.63 104.158 3362.54 103.386C3353.53 101.131 3347.92 93.748 3345.92 81.5055C3345.35 77.9973 3345.43 68.0073 3346.07 64.4974C3347.39 57.1709 3350.6 50.9151 3354.69 47.6748C3355.88 46.728 3359.04 44.7491 3359.17 44.8707C3359.2 44.9087 3358.61 46.2149 3357.84 47.7737ZM3962.63 47.3765C3959.87 52.6048 3958.91 57.4674 3958.93 66.1982C3958.95 72.8742 3959.25 75.3639 3960.62 80.0938C3963.31 89.384 3969.09 94.922 3977.64 96.41C3980.21 96.859 3987.84 96.588 3990.06 95.969C3990.97 95.715 3991.84 95.547 3991.99 95.598C3992.14 95.647 3991.75 96.388 3991.14 97.243C3989.1 100.064 3985.69 102.145 3981.3 103.239C3977.85 104.099 3970.18 104.17 3967.13 103.37C3958.13 101.01 3952.67 93.909 3950.63 81.9341C3950.06 78.5583 3949.98 68.9124 3950.5 65.6313C3951.74 57.8396 3954.91 51.2972 3959.12 47.8513C3960.44 46.7688 3963.64 44.7525 3963.79 44.9061C3963.84 44.9554 3963.32 46.0672 3962.63 47.3765ZM4284.04 46.574C4278.73 55.984 4278.47 75.0954 4283.52 85.162C4286.29 90.69 4290.22 94.08 4295.94 95.865C4297.84 96.459 4298.6 96.528 4303.03 96.514C4306.65 96.503 4308.4 96.379 4309.48 96.059C4310.3 95.818 4310.97 95.697 4310.97 95.791C4310.97 96.394 4308.1 99.434 4306.41 100.622C4302.7 103.224 4298.7 104.214 4292.97 103.95C4281.61 103.427 4274.71 96.908 4272.07 84.198C4271.26 80.2517 4271.04 70.2481 4271.68 65.6979C4272.83 57.4649 4275.9 51.1977 4280.68 47.3488C4282.21 46.1233 4284.61 44.7131 4284.82 44.9234C4284.88 44.9778 4284.53 45.7208 4284.04 46.574ZM623.381 53.5451L624.768 58.1829L621.911 67.6275C620.339 72.8217 619.054 77.2696 619.054 77.5112C619.054 77.8916 619.844 77.961 624.93 78.0274L630.807 78.1039L631.827 81.5055L632.846 84.907L621.652 84.981C615.496 85.022 610.398 84.995 610.325 84.922C610.251 84.848 612.455 77.2886 615.223 68.123C617.991 58.9571 620.439 50.8439 620.663 50.0939C621.365 47.7456 621.819 48.3219 623.381 53.5451ZM860.39 51.6705C860.876 53.2684 861.52 55.3851 861.819 56.3738L862.362 58.1716L859.547 67.4699C857.999 72.5836 856.691 77.0046 856.642 77.294C856.557 77.7892 856.902 77.8289 862.473 77.9622L868.394 78.1039L869.393 81.438C869.943 83.2718 870.329 84.836 870.251 84.914C870.173 84.992 865.075 85.022 858.923 84.981L847.736 84.907L853.191 66.9069C856.191 57.0068 858.653 48.8747 858.662 48.8358C858.671 48.797 858.864 48.765 859.091 48.765C859.369 48.765 859.795 49.7197 860.39 51.6705ZM2122.4 53.2296C2123.14 55.6853 2123.74 57.9275 2123.73 58.2127C2123.73 58.4978 2122.45 62.9457 2120.89 68.0969C2119.33 73.2481 2118.05 77.5752 2118.05 77.7124C2118.05 77.8499 2120.71 77.9622 2123.96 77.9622H2129.87L2130.78 81.0094C2131.29 82.6856 2131.76 84.28 2131.84 84.553C2131.98 85.019 2131.31 85.049 2120.59 85.049C2111.6 85.049 2109.23 84.974 2109.33 84.695C2109.4 84.5 2111.87 76.3356 2114.82 66.5526C2118.92 52.9399 2120.28 48.765 2120.62 48.765C2120.94 48.765 2121.42 49.9518 2122.4 53.2296ZM2360.07 53.4739L2361.46 58.1789L2358.58 67.7454C2356.99 73.0069 2355.69 77.4581 2355.69 77.637C2355.69 77.8712 2357.34 77.9622 2361.59 77.9622H2367.49L2368.4 81.0528C2368.89 82.7525 2369.38 84.347 2369.48 84.596C2369.63 85.006 2368.57 85.049 2358.24 85.049C2347.52 85.049 2346.84 85.019 2346.97 84.553C2347.04 84.28 2349.5 76.1162 2352.44 66.4108C2356.58 52.7145 2357.87 48.7655 2358.22 48.767C2358.56 48.7684 2359.02 49.9581 2360.07 53.4739ZM3620.56 50.1114C3620.8 50.8521 3621.45 52.9507 3622.01 54.7748L3623.03 58.0919L3620.19 67.4806C3618.63 72.6446 3617.32 77.0837 3617.27 77.345C3617.2 77.7734 3617.78 77.8343 3623.11 77.9622L3629.02 78.1039L3630.09 81.5764L3631.15 85.049H3619.73H3608.3L3608.69 83.8441C3608.91 83.1817 3611.34 75.1771 3614.08 66.0565C3616.82 56.9359 3619.12 49.3143 3619.18 49.1193C3619.45 48.3242 3620.15 48.8236 3620.56 50.1114ZM3858.21 50.2532C3858.45 51.0715 3859.08 53.1771 3859.62 54.9318L3860.6 58.1222L3857.65 67.9019C3856.02 73.2804 3854.69 77.7445 3854.69 77.8218C3854.69 77.8989 3857.36 77.9622 3860.63 77.9622H3866.56L3866.85 78.8834C3867.93 82.3134 3868.62 84.829 3868.52 84.933C3868.45 85.001 3863.35 85.022 3857.18 84.981L3845.97 84.907L3851.32 67.1904C3854.27 57.4462 3856.73 49.3143 3856.81 49.1193C3857.13 48.2876 3857.79 48.8256 3858.21 50.2532ZM433.876 53.5839C433.876 53.7659 431.135 53.8674 426.22 53.8674C421.304 53.8674 418.563 53.7659 418.563 53.5839C418.563 53.4019 421.304 53.3005 426.22 53.3005C431.135 53.3005 433.876 53.4019 433.876 53.5839ZM1038.47 53.5839C1038.47 53.7659 1035.73 53.8674 1030.81 53.8674C1025.9 53.8674 1023.15 53.7659 1023.15 53.5839C1023.15 53.4019 1025.9 53.3005 1030.81 53.3005C1035.73 53.3005 1038.47 53.4019 1038.47 53.5839ZM1933.16 53.5839C1933.16 53.7659 1930.37 53.8674 1925.36 53.8674C1920.35 53.8674 1917.56 53.7659 1917.56 53.5839C1917.56 53.4019 1920.35 53.3005 1925.36 53.3005C1930.37 53.3005 1933.16 53.4019 1933.16 53.5839ZM2537.75 53.5839C2537.75 53.7659 2535.02 53.8674 2530.11 53.8674C2525.32 53.8674 2522.41 53.7617 2522.3 53.5839C2522.18 53.3977 2524.8 53.3005 2529.94 53.3005C2534.96 53.3005 2537.75 53.4019 2537.75 53.5839ZM3432.16 53.5839C3432.16 53.7659 3429.42 53.8674 3424.5 53.8674C3419.59 53.8674 3416.85 53.7659 3416.85 53.5839C3416.85 53.4019 3419.59 53.3005 3424.5 53.3005C3429.42 53.3005 3432.16 53.4019 3432.16 53.5839ZM4036.75 53.5839C4036.75 53.7659 4034.01 53.8674 4029.09 53.8674C4024.18 53.8674 4021.44 53.7659 4021.44 53.5839C4021.44 53.4019 4024.18 53.3005 4029.09 53.3005C4034.01 53.3005 4036.75 53.4019 4036.75 53.5839ZM428.769 68.5368C428.766 80.8025 428.188 86.114 426.194 92.215C423.197 101.381 418.149 108.055 409.221 114.653C408.649 115.075 408.864 114.75 411.205 111.642C414.7 107.005 417.578 100.431 418.813 94.262C419.773 89.473 419.981 86.286 419.981 76.4141V66.9069H399.847H379.713V63.3636V59.8202H404.242H428.772L428.769 68.5368ZM1033.36 68.8203C1033.36 73.7702 1033.23 79.2236 1033.07 80.9386C1031.97 92.577 1027.9 101.595 1020.33 109.147C1017.6 111.866 1013.51 115.208 1013.51 114.716C1013.51 114.643 1013.98 114.029 1014.55 113.352C1017.38 109.993 1020.34 104.59 1021.9 99.921C1024.1 93.352 1024.57 89.223 1024.57 76.5559V66.9069H1004.58H984.587V63.3636V59.8202H1008.97H1033.36V68.8203ZM1927.77 69.4692C1927.77 79.9113 1927.56 82.8713 1926.45 87.884C1924.22 98.005 1918.54 107.034 1910.74 112.857C1907.71 115.117 1907.62 115.131 1909.23 113.101C1913.33 107.93 1916.23 101.891 1917.71 95.458C1918.77 90.825 1918.97 87.921 1918.98 77.3244V66.9069H1898.99H1879V63.3636V59.8202H1903.38H1927.77V69.4692ZM2532.36 69.9542C2532.35 82.8324 2531.88 86.736 2529.51 93.411C2526.51 101.9 2520.25 109.971 2513.22 114.414C2512.42 114.92 2512.44 114.868 2513.54 113.536C2516.39 110.082 2519.19 105.112 2520.7 100.832C2523.19 93.796 2523.66 90.04 2523.69 77.2535L2523.71 67.0486L2503.65 66.9758L2483.59 66.9032V63.3616V59.8202H2507.98H2532.36V69.9542ZM3426.98 70.3794C3426.82 81.368 3426.57 84.194 3425.31 89.159C3424.64 91.849 3423.05 96.18 3421.93 98.406C3420.33 101.588 3417.02 106.136 3414.32 108.874C3411.98 111.237 3407.61 114.813 3407.06 114.813C3406.96 114.813 3407.45 114.143 3408.14 113.325C3412.64 108.035 3415.95 100.594 3417.44 92.419C3417.96 89.589 3418.05 87.692 3418.18 78.033L3418.33 66.9069H3398.16H3378V63.3636V59.8202H3402.56H3427.13L3426.98 70.3794ZM4031.64 68.3951C4031.64 77.7371 4031.38 81.8848 4030.51 86.482C4028.93 94.866 4024.81 102.919 4019.08 108.819C4017.36 110.582 4012.06 114.891 4011.86 114.686C4011.8 114.63 4012.41 113.774 4013.22 112.785C4016.3 108.984 4019.23 103.285 4020.72 98.194C4022.41 92.434 4022.62 90.375 4022.77 78.1748L4022.91 66.9069H4002.75H3982.59V63.3636V59.8202H4007.12H4031.65L4031.64 68.3951ZM628.512 70.5211L628.948 72.0093H627.799C626.854 72.0093 626.681 71.9274 626.827 71.5476C626.924 71.2936 627.147 70.52 627.321 69.8283C627.691 68.3583 627.918 68.4898 628.512 70.5211ZM866.077 70.4599L866.557 72.0093H865.453C864.846 72.0093 864.35 71.9249 864.35 71.8217C864.35 71.3307 865.32 68.6327 865.45 68.7625C865.531 68.8438 865.814 69.6075 866.077 70.4599ZM2127.96 71.655C2127.97 71.8821 2127.58 72.0093 2126.86 72.0093H2125.75L2126.34 70.243L2126.94 68.4765L2127.44 69.8887C2127.71 70.6651 2127.95 71.4603 2127.96 71.655ZM2365.49 71.4821C2365.63 71.9362 2365.5 72.0093 2364.52 72.0093H2363.38L2363.82 70.5211C2364.45 68.4005 2364.56 68.3214 2364.96 69.7127C2365.16 70.3958 2365.4 71.1921 2365.49 71.4821ZM3626.77 70.5211L3627.2 72.0093H3626.08C3625.14 72.0093 3624.98 71.9263 3625.1 71.5133C3625.18 71.2406 3625.4 70.4709 3625.59 69.8034C3626 68.3832 3626.2 68.502 3626.77 70.5211ZM3864.53 71.189C3864.68 71.973 3864.64 72.0093 3863.66 72.0093C3863.1 72.0093 3862.63 71.9334 3862.63 71.8404C3862.63 71.7474 3862.85 70.9503 3863.1 70.0687L3863.58 68.466L3863.97 69.4173C3864.18 69.9406 3864.44 70.738 3864.53 71.189ZM1167.46 76.4102L1171.47 82.2283V101.781V121.333H1167.21H1162.96V95.962C1162.96 81.7133 1163.07 70.592 1163.21 70.592C1163.34 70.592 1165.26 73.2101 1167.46 76.4102ZM2666.69 76.5649L2670.72 82.3559L2670.73 101.844L2670.75 121.333H2666.35H2661.96V95.939C2661.96 75.7514 2662.03 70.5682 2662.31 70.6595C2662.51 70.7227 2664.48 73.3802 2666.69 76.5649ZM4165.77 76.5267L4169.75 82.3196V101.826V121.333H4165.5H4161.24V95.939C4161.24 79.8064 4161.34 70.5792 4161.52 70.6393C4161.67 70.6912 4163.58 73.3405 4165.77 76.5267ZM1354.09 82.7859C1354.09 85.719 1352.08 92.473 1349.91 96.813C1347.76 101.108 1344.14 106.014 1340.57 109.467C1338.76 111.216 1334.47 114.574 1334.29 114.387C1334.22 114.323 1334.71 113.659 1335.37 112.912C1336.97 111.092 1339.73 106.948 1340.96 104.491C1343.07 100.3 1344.92 94.453 1345.4 90.408L1345.56 89.106L1333.6 88.905C1327.02 88.794 1321.6 88.664 1321.55 88.617C1321.5 88.57 1321.85 87.716 1322.32 86.719C1322.8 85.722 1323.34 84.174 1323.52 83.2772L1323.86 81.6472H1338.98H1354.09V82.7859ZM2853.24 83.1354C2852.25 90.754 2849.09 98.16 2844.15 104.466C2841.41 107.971 2836.33 112.717 2833.53 114.392C2833.3 114.53 2833.47 114.203 2833.91 113.665C2838.4 108.142 2840.99 103.541 2842.82 97.805C2843.69 95.113 2844.58 90.972 2844.58 89.695V89.017H2839.81C2837.18 89.017 2831.77 88.933 2827.78 88.831L2820.52 88.644L2821.17 87.342C2821.8 86.072 2822.52 83.9915 2822.87 82.4268L2823.04 81.6472H2838.24H2853.43L2853.24 83.1354ZM4352.27 83.481C4351.83 87.756 4349.74 94.021 4347.24 98.541C4344.46 103.572 4339.28 109.589 4335.08 112.665C4332.3 114.708 4332 114.762 4333.58 112.938C4338.84 106.857 4342.53 98.508 4343.68 90.125L4343.82 89.106L4331.87 88.904C4325.3 88.794 4319.88 88.665 4319.84 88.618C4319.79 88.571 4320.07 87.845 4320.46 87.003C4320.85 86.162 4321.39 84.613 4321.66 83.5606L4322.16 81.6472H4337.31H4352.45L4352.27 83.481ZM1077.32 91.427V97.238H1101.99H1126.66V109.285V121.333H1122.27H1117.87V112.97V104.608H1093.2H1068.53V95.112V85.616H1072.92H1077.32V91.427ZM2576.32 91.427V97.238H2600.99H2625.66V109.285V121.333H2621.27H2616.87V112.972V104.611L2592.27 104.539L2567.67 104.466L2567.59 95.041L2567.52 85.616H2571.92H2576.32V91.427ZM4075.6 91.427V97.238H4100.27H4124.94V109.285V121.333H4120.55H4116.15V112.97V104.608H4091.48H4066.81V95.112V85.616H4071.21H4075.6V91.427ZM609.696 107.778C609.696 108.048 607.249 116.347 605.971 120.411L605.681 121.333H602.423C599.454 121.333 599.178 121.289 599.309 120.837C600.2 117.783 603.264 107.818 603.362 107.655C603.588 107.282 609.696 107.4 609.696 107.778ZM847.339 107.655C847.341 107.772 846.426 110.898 845.307 114.6L843.271 121.333H840.057C838.289 121.333 836.843 121.247 836.843 121.142C836.843 121.037 837.761 117.912 838.883 114.197L840.924 107.443H844.13C845.893 107.443 847.337 107.538 847.339 107.655ZM2108.86 107.939C2108.78 108.212 2107.86 111.241 2106.83 114.671C2105.79 118.101 2104.86 121.008 2104.74 121.13C2104.63 121.252 2103.13 121.316 2101.42 121.272L2098.3 121.191L2099.68 116.656C2100.44 114.161 2101.37 111.068 2101.76 109.781L2102.48 107.443H2105.75C2108.73 107.443 2109 107.486 2108.86 107.939ZM2346.17 108.841C2345.94 109.61 2345.01 112.703 2344.09 115.715L2342.43 121.191L2339.1 121.271C2336.04 121.345 2335.79 121.313 2335.96 120.857C2336.07 120.585 2336.98 117.615 2337.99 114.257C2338.99 110.899 2339.88 107.992 2339.95 107.797C2340.04 107.542 2340.99 107.443 2343.33 107.443H2346.59L2346.17 108.841ZM3607.98 107.655C3607.99 107.772 3607.07 110.898 3605.96 114.6L3603.92 121.333H3600.67C3597.71 121.333 3597.43 121.288 3597.56 120.837C3597.63 120.564 3598.56 117.438 3599.63 113.892L3601.56 107.443H3604.77C3606.54 107.443 3607.98 107.538 3607.98 107.655ZM3845.55 107.939C3845.48 108.212 3844.54 111.337 3843.47 114.884L3841.53 121.333H3838.33C3836.57 121.333 3835.13 121.226 3835.13 121.097C3835.13 120.967 3836.02 117.884 3837.11 114.246C3838.2 110.608 3839.1 107.589 3839.1 107.537C3839.1 107.485 3840.58 107.443 3842.39 107.443C3845.39 107.443 3845.67 107.487 3845.55 107.939Z" fill="black"/>
</svg>
