<svg width="496" height="273" viewBox="0 0 496 273" fill="none" xmlns="http://www.w3.org/2000/svg">
<rect x="10.5" y="10.5" width="484" height="261" rx="8.5" fill="black" stroke="black" stroke-width="3"/>
<g clip-path="url(#clip0_2672_14188)">
<rect width="487" height="264" rx="10" fill="#FFE457"/>
<line x1="-8.74228e-08" y1="25" x2="485" y2="25" stroke="black" stroke-width="2"/>
<line x1="445" y1="12.5" x2="452" y2="12.5" stroke="black"/>
<rect x="456.5" y="10.5" width="5" height="5" stroke="black"/>
<line x1="466.525" y1="15.4746" x2="471.475" y2="10.5248" stroke="black"/>
<line x1="466.525" y1="10.5293" x2="471.475" y2="15.479" stroke="black"/>
<path d="M227.025 44V36.7273H229.752C230.311 36.7273 230.78 36.8314 231.158 37.0398C231.54 37.2481 231.827 37.5346 232.021 37.8991C232.218 38.2614 232.316 38.6733 232.316 39.1349C232.316 39.6013 232.218 40.0156 232.021 40.3778C231.825 40.7401 231.535 41.0253 231.151 41.2337C230.768 41.4396 230.296 41.5426 229.734 41.5426H227.927V40.4595H229.557C229.884 40.4595 230.151 40.4027 230.359 40.2891C230.568 40.1754 230.722 40.0192 230.821 39.8203C230.923 39.6214 230.974 39.393 230.974 39.1349C230.974 38.8769 230.923 38.6496 230.821 38.4531C230.722 38.2566 230.567 38.1039 230.356 37.995C230.148 37.8838 229.879 37.8281 229.55 37.8281H228.342V44H227.025ZM233.46 44V36.7273H236.188C236.746 36.7273 237.215 36.8243 237.594 37.0185C237.975 37.2126 238.263 37.4848 238.457 37.8352C238.653 38.1832 238.752 38.5893 238.752 39.0533C238.752 39.5196 238.652 39.9245 238.453 40.2678C238.257 40.6087 237.967 40.8726 237.583 41.0597C237.2 41.2443 236.729 41.3366 236.17 41.3366H234.228V40.2429H235.992C236.319 40.2429 236.587 40.1979 236.795 40.108C237.003 40.0156 237.157 39.8819 237.257 39.7067C237.358 39.5291 237.409 39.3113 237.409 39.0533C237.409 38.7952 237.358 38.575 237.257 38.3928C237.155 38.2081 237 38.0684 236.791 37.9737C236.583 37.8767 236.314 37.8281 235.985 37.8281H234.778V44H233.46ZM237.218 40.7045L239.018 44H237.548L235.779 40.7045H237.218ZM246.463 40.3636C246.463 41.1473 246.316 41.8184 246.023 42.3771C245.731 42.9335 245.334 43.3596 244.829 43.6555C244.328 43.9515 243.758 44.0994 243.121 44.0994C242.485 44.0994 241.914 43.9515 241.41 43.6555C240.908 43.3572 240.51 42.9299 240.217 42.3736C239.925 41.8149 239.78 41.1449 239.78 40.3636C239.78 39.58 239.925 38.91 240.217 38.3537C240.51 37.795 240.908 37.3677 241.41 37.0717C241.914 36.7758 242.485 36.6278 243.121 36.6278C243.758 36.6278 244.328 36.7758 244.829 37.0717C245.334 37.3677 245.731 37.795 246.023 38.3537C246.316 38.91 246.463 39.58 246.463 40.3636ZM245.138 40.3636C245.138 39.812 245.052 39.3468 244.879 38.968C244.709 38.5869 244.472 38.2992 244.169 38.1051C243.866 37.9086 243.517 37.8104 243.121 37.8104C242.726 37.8104 242.377 37.9086 242.074 38.1051C241.771 38.2992 241.533 38.5869 241.36 38.968C241.19 39.3468 241.104 39.812 241.104 40.3636C241.104 40.9152 241.19 41.3816 241.36 41.7628C241.533 42.1416 241.771 42.4292 242.074 42.6257C242.377 42.8198 242.726 42.9169 243.121 42.9169C243.517 42.9169 243.866 42.8198 244.169 42.6257C244.472 42.4292 244.709 42.1416 244.879 41.7628C245.052 41.3816 245.138 40.9152 245.138 40.3636ZM247.067 37.8317V36.7273H252.869V37.8317H250.621V44H249.315V37.8317H247.067ZM260.164 40.3636C260.164 41.1473 260.017 41.8184 259.724 42.3771C259.433 42.9335 259.035 43.3596 258.531 43.6555C258.029 43.9515 257.459 44.0994 256.823 44.0994C256.186 44.0994 255.615 43.9515 255.111 43.6555C254.609 43.3572 254.211 42.9299 253.918 42.3736C253.627 41.8149 253.481 41.1449 253.481 40.3636C253.481 39.58 253.627 38.91 253.918 38.3537C254.211 37.795 254.609 37.3677 255.111 37.0717C255.615 36.7758 256.186 36.6278 256.823 36.6278C257.459 36.6278 258.029 36.7758 258.531 37.0717C259.035 37.3677 259.433 37.795 259.724 38.3537C260.017 38.91 260.164 39.58 260.164 40.3636ZM258.84 40.3636C258.84 39.812 258.753 39.3468 258.58 38.968C258.41 38.5869 258.173 38.2992 257.87 38.1051C257.567 37.9086 257.218 37.8104 256.823 37.8104C256.427 37.8104 256.078 37.9086 255.775 38.1051C255.472 38.2992 255.234 38.5869 255.061 38.968C254.891 39.3468 254.805 39.812 254.805 40.3636C254.805 40.9152 254.891 41.3816 255.061 41.7628C255.234 42.1416 255.472 42.4292 255.775 42.6257C256.078 42.8198 256.427 42.9169 256.823 42.9169C257.218 42.9169 257.567 42.8198 257.87 42.6257C258.173 42.4292 258.41 42.1416 258.58 41.7628C258.753 41.3816 258.84 40.9152 258.84 40.3636Z" fill="black"/>
<rect x="15" y="13" width="1.54301" height="4.45758" fill="black"/>
<rect x="22.5437" y="17.4531" width="1.54301" height="2.91457" transform="rotate(90 22.5437 17.4531)" fill="black"/>
<rect x="27.1729" y="17.4531" width="1.54301" height="2.91457" transform="rotate(90 27.1729 17.4531)" fill="black"/>
<rect x="18.0859" y="11.4531" width="1.54301" height="6.00059" fill="black"/>
<rect x="18.0859" y="7" width="1.54301" height="1.54301" fill="black"/>
<rect x="27.1729" y="7" width="1.54301" height="1.54301" fill="black"/>
<rect x="28.7148" y="11.4531" width="1.54301" height="3.08602" fill="black"/>
<rect x="16.5439" y="11.4531" width="1.54301" height="3.08602" fill="black"/>
<rect x="25.6309" y="8.54688" width="1.54301" height="1.54301" fill="black"/>
<rect x="19.627" y="8.54688" width="1.54301" height="1.54301" fill="black"/>
<rect x="18.0859" y="9.92188" width="10.6296" height="1.54301" fill="black"/>
<rect x="18.0859" y="14.375" width="10.6296" height="1.54301" fill="black"/>
<rect x="18.0859" y="13" width="10.6296" height="1.54301" fill="black"/>
<rect x="21.1709" y="11.4531" width="4.45758" height="1.54301" fill="black"/>
<rect x="27.1729" y="11.4531" width="1.54301" height="6.00059" fill="black"/>
<rect x="30.2599" y="13" width="1.54301" height="4.45758" fill="black"/>
<rect x="429.5" y="37" width="9" height="7" rx="1" fill="black"/>
<rect x="443.5" y="37" width="9" height="7" rx="1" fill="black"/>
<rect x="457.5" y="37" width="9" height="7" rx="1" fill="black"/>
<rect x="20" y="37" width="22" height="7" rx="1" fill="black"/>
<rect x="20" y="193" width="102" height="20" rx="5" fill="black"/>
<rect x="20" y="233" width="176" height="20" rx="5" fill="black"/>
<rect x="291" y="173" width="176" height="10" rx="5" fill="black"/>
<rect x="291" y="64" width="176" height="20" rx="5" fill="black"/>
<rect x="291" y="89" width="176" height="20" rx="5" fill="black"/>
<rect x="291" y="114" width="176" height="20" rx="5" fill="black"/>
<rect x="21" y="65" width="254" height="117" rx="4" fill="#FFE457" stroke="black" stroke-width="2"/>
<line x1="21.4108" y1="66.0883" x2="274.411" y2="180.088" stroke="black" stroke-width="2"/>
<line x1="21.593" y1="180.096" x2="274.585" y2="66.0784" stroke="black" stroke-width="2"/>
<rect x="212" y="234" width="254" height="117" rx="4" fill="#FFE457" stroke="black" stroke-width="2"/>
<line x1="212.411" y1="235.088" x2="465.411" y2="349.088" stroke="black" stroke-width="2"/>
<line x1="212.593" y1="349.096" x2="465.585" y2="235.078" stroke="black" stroke-width="2"/>
</g>
<rect x="1.5" y="1.5" width="484" height="261" rx="8.5" stroke="black" stroke-width="3"/>
<defs>
<clipPath id="clip0_2672_14188">
<rect width="487" height="264" rx="10" fill="white"/>
</clipPath>
</defs>
</svg>
