<?xml version="1.0" encoding="utf-8"?><svg viewBox="0 0 152 132" xmlns="http://www.w3.org/2000/svg" xmlns:xlink="http://www.w3.org/1999/xlink"><style>:root>svg{display:none}:root>svg:target{display:block}</style><svg viewBox="0 0 114 132" id="about_1" xmlns="http://www.w3.org/2000/svg"><path d="M11.1 101L57 21.5l45.899 79.5H11.101z"/><path d="M2.828 57.5L57 3.328 111.172 57.5 57 111.672 2.828 57.5z"/></svg><svg viewBox="0 0 114 114" id="about_2" xmlns="http://www.w3.org/2000/svg"><circle cx="57" cy="57" r="48.5"/><path d="M11.1 83.5L57 4l45.899 79.5H11.101z"/></svg><svg viewBox="0 0 136 114" id="about_3" xmlns="http://www.w3.org/2000/svg"><path d="M33.1 83.5L79 4l45.899 79.5H33.101zM1 12.268l121.244 70"/></svg><svg viewBox="0 0 152 82" id="about_4" xmlns="http://www.w3.org/2000/svg"><path d="M4 80L50.556 2M4 80h97.444L148 2M4 80l72-39M50.556 2H148M50.556 2L76 41m72-39L76 41"/></svg><svg viewBox="0 0 45 33" id="arrow_slider" xmlns="http://www.w3.org/2000/svg"><path d="M44.738 16.37H3m0 0l14.369 14.368M3 16.37L17.369 2.001"/></svg><svg viewBox="0 0 40 28" id="logo" xmlns="http://www.w3.org/2000/svg"><path fill-rule="evenodd" clip-rule="evenodd" d="M7.2 0h3.6v3.6H7.2V0zm0 6.803V10.4H3.601v7.2h3.597v6.801h3.6v-3.6h17.603v3.6h-6.8V28h6.8v-3.6h3.6v-6.8H35.6v-7.2h-3.599V6.802h-3.596v-3.2h-3.6v3.2H14.397v-3.2h-3.6v3.2H7.199zm21.202 7.195v-3.595H24.8v3.595h3.603zm-14.004-3.595v3.595H10.8v-3.595h3.598zM3.6 13.998H0v10.4h3.6v-10.4zm14.002 14.003v-3.6h-6.8V28h6.8zM32.002 0h-3.6v3.6h3.6V0zm7.204 13.998h-3.6v10.4h3.6v-10.4z"/></svg><svg viewBox="0 0 25 21" id="telegram" xmlns="http://www.w3.org/2000/svg"><path fill-rule="evenodd" clip-rule="evenodd" d="M15.13 3.134c-2.236.93-6.708 2.856-13.412 5.777-1.089.433-1.66.857-1.712 1.27-.088.702.79.978 1.982 1.352.163.052.332.103.504.16 1.175.382 2.754.829 3.575.846.745.015 1.577-.291 2.495-.92 6.264-4.23 9.497-6.367 9.7-6.413.144-.033.343-.075.478.046.134.119.12.345.107.406-.088.37-3.527 3.569-5.31 5.225a54.16 54.16 0 00-1.029.966c-.18.186-.364.364-.54.535-1.092 1.05-1.909 1.84.046 3.128.94.619 1.69 1.13 2.44 1.64.818.558 1.635 1.114 2.693 1.808.268.176.525.358.776.537.953.68 1.81 1.29 2.867 1.194.614-.058 1.25-.635 1.572-2.358.761-4.075 2.26-12.899 2.607-16.537a4.046 4.046 0 00-.039-.905.97.97 0 00-.33-.622c-.273-.225-.699-.273-.89-.269-.865.016-2.191.477-8.58 3.134z"/></svg></svg>